<?xml version="1.0" encoding="utf-8" standalone="no"?>
<!DOCTYPE svg PUBLIC "-//W3C//DTD SVG 1.1//EN"
  "http://www.w3.org/Graphics/SVG/1.1/DTD/svg11.dtd">
<svg xmlns:xlink="http://www.w3.org/1999/xlink" width="432pt" height="288pt" viewBox="0 0 432 288" xmlns="http://www.w3.org/2000/svg" version="1.1">
 <metadata>
  <rdf:RDF xmlns:dc="http://purl.org/dc/elements/1.1/" xmlns:cc="http://creativecommons.org/ns#" xmlns:rdf="http://www.w3.org/1999/02/22-rdf-syntax-ns#">
   <cc:Work>
    <dc:type rdf:resource="http://purl.org/dc/dcmitype/StillImage"/>
    <dc:date>2026-06-28T20:29:09.657807</dc:date>
    <dc:format>image/svg+xml</dc:format>
    <dc:creator>
     <cc:Agent>
      <dc:title>Matplotlib v3.9.4, https://matplotlib.org/</dc:title>
     </cc:Agent>
    </dc:creator>
   </cc:Work>
  </rdf:RDF>
 </metadata>
 <defs>
  <style type="text/css">*{stroke-linejoin: round; stroke-linecap: butt}</style>
 </defs>
 <g id="figure_1">
  <g id="patch_1">
   <path d="M 0 288 
L 432 288 
L 432 0 
L 0 0 
z
" style="fill: #ffffff"/>
  </g>
  <g id="axes_1">
   <g id="patch_2">
    <path d="M 47.81 246.04 
L 421.2 246.04 
L 421.2 26.88 
L 47.81 26.88 
z
" style="fill: #ffffff"/>
   </g>
   <g id="matplotlib.axis_1">
    <g id="xtick_1">
     <g id="line2d_1">
      <defs>
       <path id="mbb1e29f69c" d="M 0 0 
L 0 3.5 
" style="stroke: #000000; stroke-width: 0.8"/>
      </defs>
      <g>
       <use xlink:href="#mbb1e29f69c" x="64.782273" y="246.04" style="stroke: #000000; stroke-width: 0.8"/>
      </g>
     </g>
     <g id="text_1">
      <!-- 0 -->
      <g transform="translate(61.601023 260.638438) scale(0.1 -0.1)">
       <defs>
        <path id="DejaVuSans-30" d="M 2034 4250 
Q 1547 4250 1301 3770 
Q 1056 3291 1056 2328 
Q 1056 1369 1301 889 
Q 1547 409 2034 409 
Q 2525 409 2770 889 
Q 3016 1369 3016 2328 
Q 3016 3291 2770 3770 
Q 2525 4250 2034 4250 
z
M 2034 4750 
Q 2819 4750 3233 4129 
Q 3647 3509 3647 2328 
Q 3647 1150 3233 529 
Q 2819 -91 2034 -91 
Q 1250 -91 836 529 
Q 422 1150 422 2328 
Q 422 3509 836 4129 
Q 1250 4750 2034 4750 
z
" transform="scale(0.015625)"/>
       </defs>
       <use xlink:href="#DejaVuSans-30"/>
      </g>
     </g>
    </g>
    <g id="xtick_2">
     <g id="line2d_2">
      <g>
       <use xlink:href="#mbb1e29f69c" x="132.739321" y="246.04" style="stroke: #000000; stroke-width: 0.8"/>
      </g>
     </g>
     <g id="text_2">
      <!-- 200 -->
      <g transform="translate(123.195571 260.638438) scale(0.1 -0.1)">
       <defs>
        <path id="DejaVuSans-32" d="M 1228 531 
L 3431 531 
L 3431 0 
L 469 0 
L 469 531 
Q 828 903 1448 1529 
Q 2069 2156 2228 2338 
Q 2531 2678 2651 2914 
Q 2772 3150 2772 3378 
Q 2772 3750 2511 3984 
Q 2250 4219 1831 4219 
Q 1534 4219 1204 4116 
Q 875 4013 500 3803 
L 500 4441 
Q 881 4594 1212 4672 
Q 1544 4750 1819 4750 
Q 2544 4750 2975 4387 
Q 3406 4025 3406 3419 
Q 3406 3131 3298 2873 
Q 3191 2616 2906 2266 
Q 2828 2175 2409 1742 
Q 1991 1309 1228 531 
z
" transform="scale(0.015625)"/>
       </defs>
       <use xlink:href="#DejaVuSans-32"/>
       <use xlink:href="#DejaVuSans-30" x="63.623047"/>
       <use xlink:href="#DejaVuSans-30" x="127.246094"/>
      </g>
     </g>
    </g>
    <g id="xtick_3">
     <g id="line2d_3">
      <g>
       <use xlink:href="#mbb1e29f69c" x="200.696369" y="246.04" style="stroke: #000000; stroke-width: 0.8"/>
      </g>
     </g>
     <g id="text_3">
      <!-- 400 -->
      <g transform="translate(191.152619 260.638438) scale(0.1 -0.1)">
       <defs>
        <path id="DejaVuSans-34" d="M 2419 4116 
L 825 1625 
L 2419 1625 
L 2419 4116 
z
M 2253 4666 
L 3047 4666 
L 3047 1625 
L 3713 1625 
L 3713 1100 
L 3047 1100 
L 3047 0 
L 2419 0 
L 2419 1100 
L 313 1100 
L 313 1709 
L 2253 4666 
z
" transform="scale(0.015625)"/>
       </defs>
       <use xlink:href="#DejaVuSans-34"/>
       <use xlink:href="#DejaVuSans-30" x="63.623047"/>
       <use xlink:href="#DejaVuSans-30" x="127.246094"/>
      </g>
     </g>
    </g>
    <g id="xtick_4">
     <g id="line2d_4">
      <g>
       <use xlink:href="#mbb1e29f69c" x="268.653417" y="246.04" style="stroke: #000000; stroke-width: 0.8"/>
      </g>
     </g>
     <g id="text_4">
      <!-- 600 -->
      <g transform="translate(259.109667 260.638438) scale(0.1 -0.1)">
       <defs>
        <path id="DejaVuSans-36" d="M 2113 2584 
Q 1688 2584 1439 2293 
Q 1191 2003 1191 1497 
Q 1191 994 1439 701 
Q 1688 409 2113 409 
Q 2538 409 2786 701 
Q 3034 994 3034 1497 
Q 3034 2003 2786 2293 
Q 2538 2584 2113 2584 
z
M 3366 4563 
L 3366 3988 
Q 3128 4100 2886 4159 
Q 2644 4219 2406 4219 
Q 1781 4219 1451 3797 
Q 1122 3375 1075 2522 
Q 1259 2794 1537 2939 
Q 1816 3084 2150 3084 
Q 2853 3084 3261 2657 
Q 3669 2231 3669 1497 
Q 3669 778 3244 343 
Q 2819 -91 2113 -91 
Q 1303 -91 875 529 
Q 447 1150 447 2328 
Q 447 3434 972 4092 
Q 1497 4750 2381 4750 
Q 2619 4750 2861 4703 
Q 3103 4656 3366 4563 
z
" transform="scale(0.015625)"/>
       </defs>
       <use xlink:href="#DejaVuSans-36"/>
       <use xlink:href="#DejaVuSans-30" x="63.623047"/>
       <use xlink:href="#DejaVuSans-30" x="127.246094"/>
      </g>
     </g>
    </g>
    <g id="xtick_5">
     <g id="line2d_5">
      <g>
       <use xlink:href="#mbb1e29f69c" x="336.610465" y="246.04" style="stroke: #000000; stroke-width: 0.8"/>
      </g>
     </g>
     <g id="text_5">
      <!-- 800 -->
      <g transform="translate(327.066715 260.638438) scale(0.1 -0.1)">
       <defs>
        <path id="DejaVuSans-38" d="M 2034 2216 
Q 1584 2216 1326 1975 
Q 1069 1734 1069 1313 
Q 1069 891 1326 650 
Q 1584 409 2034 409 
Q 2484 409 2743 651 
Q 3003 894 3003 1313 
Q 3003 1734 2745 1975 
Q 2488 2216 2034 2216 
z
M 1403 2484 
Q 997 2584 770 2862 
Q 544 3141 544 3541 
Q 544 4100 942 4425 
Q 1341 4750 2034 4750 
Q 2731 4750 3128 4425 
Q 3525 4100 3525 3541 
Q 3525 3141 3298 2862 
Q 3072 2584 2669 2484 
Q 3125 2378 3379 2068 
Q 3634 1759 3634 1313 
Q 3634 634 3220 271 
Q 2806 -91 2034 -91 
Q 1263 -91 848 271 
Q 434 634 434 1313 
Q 434 1759 690 2068 
Q 947 2378 1403 2484 
z
M 1172 3481 
Q 1172 3119 1398 2916 
Q 1625 2713 2034 2713 
Q 2441 2713 2670 2916 
Q 2900 3119 2900 3481 
Q 2900 3844 2670 4047 
Q 2441 4250 2034 4250 
Q 1625 4250 1398 4047 
Q 1172 3844 1172 3481 
z
" transform="scale(0.015625)"/>
       </defs>
       <use xlink:href="#DejaVuSans-38"/>
       <use xlink:href="#DejaVuSans-30" x="63.623047"/>
       <use xlink:href="#DejaVuSans-30" x="127.246094"/>
      </g>
     </g>
    </g>
    <g id="xtick_6">
     <g id="line2d_6">
      <g>
       <use xlink:href="#mbb1e29f69c" x="404.567513" y="246.04" style="stroke: #000000; stroke-width: 0.8"/>
      </g>
     </g>
     <g id="text_6">
      <!-- 1000 -->
      <g transform="translate(391.842513 260.638438) scale(0.1 -0.1)">
       <defs>
        <path id="DejaVuSans-31" d="M 794 531 
L 1825 531 
L 1825 4091 
L 703 3866 
L 703 4441 
L 1819 4666 
L 2450 4666 
L 2450 531 
L 3481 531 
L 3481 0 
L 794 0 
L 794 531 
z
" transform="scale(0.015625)"/>
       </defs>
       <use xlink:href="#DejaVuSans-31"/>
       <use xlink:href="#DejaVuSans-30" x="63.623047"/>
       <use xlink:href="#DejaVuSans-30" x="127.246094"/>
       <use xlink:href="#DejaVuSans-30" x="190.869141"/>
      </g>
     </g>
    </g>
    <g id="text_7">
     <!-- test day (out-of-sample, newest) -->
     <g transform="translate(152.858906 274.316562) scale(0.1 -0.1)">
      <defs>
       <path id="DejaVuSans-74" d="M 1172 4494 
L 1172 3500 
L 2356 3500 
L 2356 3053 
L 1172 3053 
L 1172 1153 
Q 1172 725 1289 603 
Q 1406 481 1766 481 
L 2356 481 
L 2356 0 
L 1766 0 
Q 1100 0 847 248 
Q 594 497 594 1153 
L 594 3053 
L 172 3053 
L 172 3500 
L 594 3500 
L 594 4494 
L 1172 4494 
z
" transform="scale(0.015625)"/>
       <path id="DejaVuSans-65" d="M 3597 1894 
L 3597 1613 
L 953 1613 
Q 991 1019 1311 708 
Q 1631 397 2203 397 
Q 2534 397 2845 478 
Q 3156 559 3463 722 
L 3463 178 
Q 3153 47 2828 -22 
Q 2503 -91 2169 -91 
Q 1331 -91 842 396 
Q 353 884 353 1716 
Q 353 2575 817 3079 
Q 1281 3584 2069 3584 
Q 2775 3584 3186 3129 
Q 3597 2675 3597 1894 
z
M 3022 2063 
Q 3016 2534 2758 2815 
Q 2500 3097 2075 3097 
Q 1594 3097 1305 2825 
Q 1016 2553 972 2059 
L 3022 2063 
z
" transform="scale(0.015625)"/>
       <path id="DejaVuSans-73" d="M 2834 3397 
L 2834 2853 
Q 2591 2978 2328 3040 
Q 2066 3103 1784 3103 
Q 1356 3103 1142 2972 
Q 928 2841 928 2578 
Q 928 2378 1081 2264 
Q 1234 2150 1697 2047 
L 1894 2003 
Q 2506 1872 2764 1633 
Q 3022 1394 3022 966 
Q 3022 478 2636 193 
Q 2250 -91 1575 -91 
Q 1294 -91 989 -36 
Q 684 19 347 128 
L 347 722 
Q 666 556 975 473 
Q 1284 391 1588 391 
Q 1994 391 2212 530 
Q 2431 669 2431 922 
Q 2431 1156 2273 1281 
Q 2116 1406 1581 1522 
L 1381 1569 
Q 847 1681 609 1914 
Q 372 2147 372 2553 
Q 372 3047 722 3315 
Q 1072 3584 1716 3584 
Q 2034 3584 2315 3537 
Q 2597 3491 2834 3397 
z
" transform="scale(0.015625)"/>
       <path id="DejaVuSans-20" transform="scale(0.015625)"/>
       <path id="DejaVuSans-64" d="M 2906 2969 
L 2906 4863 
L 3481 4863 
L 3481 0 
L 2906 0 
L 2906 525 
Q 2725 213 2448 61 
Q 2172 -91 1784 -91 
Q 1150 -91 751 415 
Q 353 922 353 1747 
Q 353 2572 751 3078 
Q 1150 3584 1784 3584 
Q 2172 3584 2448 3432 
Q 2725 3281 2906 2969 
z
M 947 1747 
Q 947 1113 1208 752 
Q 1469 391 1925 391 
Q 2381 391 2643 752 
Q 2906 1113 2906 1747 
Q 2906 2381 2643 2742 
Q 2381 3103 1925 3103 
Q 1469 3103 1208 2742 
Q 947 2381 947 1747 
z
" transform="scale(0.015625)"/>
       <path id="DejaVuSans-61" d="M 2194 1759 
Q 1497 1759 1228 1600 
Q 959 1441 959 1056 
Q 959 750 1161 570 
Q 1363 391 1709 391 
Q 2188 391 2477 730 
Q 2766 1069 2766 1631 
L 2766 1759 
L 2194 1759 
z
M 3341 1997 
L 3341 0 
L 2766 0 
L 2766 531 
Q 2569 213 2275 61 
Q 1981 -91 1556 -91 
Q 1019 -91 701 211 
Q 384 513 384 1019 
Q 384 1609 779 1909 
Q 1175 2209 1959 2209 
L 2766 2209 
L 2766 2266 
Q 2766 2663 2505 2880 
Q 2244 3097 1772 3097 
Q 1472 3097 1187 3025 
Q 903 2953 641 2809 
L 641 3341 
Q 956 3463 1253 3523 
Q 1550 3584 1831 3584 
Q 2591 3584 2966 3190 
Q 3341 2797 3341 1997 
z
" transform="scale(0.015625)"/>
       <path id="DejaVuSans-79" d="M 2059 -325 
Q 1816 -950 1584 -1140 
Q 1353 -1331 966 -1331 
L 506 -1331 
L 506 -850 
L 844 -850 
Q 1081 -850 1212 -737 
Q 1344 -625 1503 -206 
L 1606 56 
L 191 3500 
L 800 3500 
L 1894 763 
L 2988 3500 
L 3597 3500 
L 2059 -325 
z
" transform="scale(0.015625)"/>
       <path id="DejaVuSans-28" d="M 1984 4856 
Q 1566 4138 1362 3434 
Q 1159 2731 1159 2009 
Q 1159 1288 1364 580 
Q 1569 -128 1984 -844 
L 1484 -844 
Q 1016 -109 783 600 
Q 550 1309 550 2009 
Q 550 2706 781 3412 
Q 1013 4119 1484 4856 
L 1984 4856 
z
" transform="scale(0.015625)"/>
       <path id="DejaVuSans-6f" d="M 1959 3097 
Q 1497 3097 1228 2736 
Q 959 2375 959 1747 
Q 959 1119 1226 758 
Q 1494 397 1959 397 
Q 2419 397 2687 759 
Q 2956 1122 2956 1747 
Q 2956 2369 2687 2733 
Q 2419 3097 1959 3097 
z
M 1959 3584 
Q 2709 3584 3137 3096 
Q 3566 2609 3566 1747 
Q 3566 888 3137 398 
Q 2709 -91 1959 -91 
Q 1206 -91 779 398 
Q 353 888 353 1747 
Q 353 2609 779 3096 
Q 1206 3584 1959 3584 
z
" transform="scale(0.015625)"/>
       <path id="DejaVuSans-75" d="M 544 1381 
L 544 3500 
L 1119 3500 
L 1119 1403 
Q 1119 906 1312 657 
Q 1506 409 1894 409 
Q 2359 409 2629 706 
Q 2900 1003 2900 1516 
L 2900 3500 
L 3475 3500 
L 3475 0 
L 2900 0 
L 2900 538 
Q 2691 219 2414 64 
Q 2138 -91 1772 -91 
Q 1169 -91 856 284 
Q 544 659 544 1381 
z
M 1991 3584 
L 1991 3584 
z
" transform="scale(0.015625)"/>
       <path id="DejaVuSans-2d" d="M 313 2009 
L 1997 2009 
L 1997 1497 
L 313 1497 
L 313 2009 
z
" transform="scale(0.015625)"/>
       <path id="DejaVuSans-66" d="M 2375 4863 
L 2375 4384 
L 1825 4384 
Q 1516 4384 1395 4259 
Q 1275 4134 1275 3809 
L 1275 3500 
L 2222 3500 
L 2222 3053 
L 1275 3053 
L 1275 0 
L 697 0 
L 697 3053 
L 147 3053 
L 147 3500 
L 697 3500 
L 697 3744 
Q 697 4328 969 4595 
Q 1241 4863 1831 4863 
L 2375 4863 
z
" transform="scale(0.015625)"/>
       <path id="DejaVuSans-6d" d="M 3328 2828 
Q 3544 3216 3844 3400 
Q 4144 3584 4550 3584 
Q 5097 3584 5394 3201 
Q 5691 2819 5691 2113 
L 5691 0 
L 5113 0 
L 5113 2094 
Q 5113 2597 4934 2840 
Q 4756 3084 4391 3084 
Q 3944 3084 3684 2787 
Q 3425 2491 3425 1978 
L 3425 0 
L 2847 0 
L 2847 2094 
Q 2847 2600 2669 2842 
Q 2491 3084 2119 3084 
Q 1678 3084 1418 2786 
Q 1159 2488 1159 1978 
L 1159 0 
L 581 0 
L 581 3500 
L 1159 3500 
L 1159 2956 
Q 1356 3278 1631 3431 
Q 1906 3584 2284 3584 
Q 2666 3584 2933 3390 
Q 3200 3197 3328 2828 
z
" transform="scale(0.015625)"/>
       <path id="DejaVuSans-70" d="M 1159 525 
L 1159 -1331 
L 581 -1331 
L 581 3500 
L 1159 3500 
L 1159 2969 
Q 1341 3281 1617 3432 
Q 1894 3584 2278 3584 
Q 2916 3584 3314 3078 
Q 3713 2572 3713 1747 
Q 3713 922 3314 415 
Q 2916 -91 2278 -91 
Q 1894 -91 1617 61 
Q 1341 213 1159 525 
z
M 3116 1747 
Q 3116 2381 2855 2742 
Q 2594 3103 2138 3103 
Q 1681 3103 1420 2742 
Q 1159 2381 1159 1747 
Q 1159 1113 1420 752 
Q 1681 391 2138 391 
Q 2594 391 2855 752 
Q 3116 1113 3116 1747 
z
" transform="scale(0.015625)"/>
       <path id="DejaVuSans-6c" d="M 603 4863 
L 1178 4863 
L 1178 0 
L 603 0 
L 603 4863 
z
" transform="scale(0.015625)"/>
       <path id="DejaVuSans-2c" d="M 750 794 
L 1409 794 
L 1409 256 
L 897 -744 
L 494 -744 
L 750 256 
L 750 794 
z
" transform="scale(0.015625)"/>
       <path id="DejaVuSans-6e" d="M 3513 2113 
L 3513 0 
L 2938 0 
L 2938 2094 
Q 2938 2591 2744 2837 
Q 2550 3084 2163 3084 
Q 1697 3084 1428 2787 
Q 1159 2491 1159 1978 
L 1159 0 
L 581 0 
L 581 3500 
L 1159 3500 
L 1159 2956 
Q 1366 3272 1645 3428 
Q 1925 3584 2291 3584 
Q 2894 3584 3203 3211 
Q 3513 2838 3513 2113 
z
" transform="scale(0.015625)"/>
       <path id="DejaVuSans-77" d="M 269 3500 
L 844 3500 
L 1563 769 
L 2278 3500 
L 2956 3500 
L 3675 769 
L 4391 3500 
L 4966 3500 
L 4050 0 
L 3372 0 
L 2619 2869 
L 1863 0 
L 1184 0 
L 269 3500 
z
" transform="scale(0.015625)"/>
       <path id="DejaVuSans-29" d="M 513 4856 
L 1013 4856 
Q 1481 4119 1714 3412 
Q 1947 2706 1947 2009 
Q 1947 1309 1714 600 
Q 1481 -109 1013 -844 
L 513 -844 
Q 928 -128 1133 580 
Q 1338 1288 1338 2009 
Q 1338 2731 1133 3434 
Q 928 4138 513 4856 
z
" transform="scale(0.015625)"/>
      </defs>
      <use xlink:href="#DejaVuSans-74"/>
      <use xlink:href="#DejaVuSans-65" x="39.208984"/>
      <use xlink:href="#DejaVuSans-73" x="100.732422"/>
      <use xlink:href="#DejaVuSans-74" x="152.832031"/>
      <use xlink:href="#DejaVuSans-20" x="192.041016"/>
      <use xlink:href="#DejaVuSans-64" x="223.828125"/>
      <use xlink:href="#DejaVuSans-61" x="287.304688"/>
      <use xlink:href="#DejaVuSans-79" x="348.583984"/>
      <use xlink:href="#DejaVuSans-20" x="407.763672"/>
      <use xlink:href="#DejaVuSans-28" x="439.550781"/>
      <use xlink:href="#DejaVuSans-6f" x="478.564453"/>
      <use xlink:href="#DejaVuSans-75" x="539.746094"/>
      <use xlink:href="#DejaVuSans-74" x="603.125"/>
      <use xlink:href="#DejaVuSans-2d" x="642.333984"/>
      <use xlink:href="#DejaVuSans-6f" x="680.292969"/>
      <use xlink:href="#DejaVuSans-66" x="741.474609"/>
      <use xlink:href="#DejaVuSans-2d" x="771.179688"/>
      <use xlink:href="#DejaVuSans-73" x="807.263672"/>
      <use xlink:href="#DejaVuSans-61" x="859.363281"/>
      <use xlink:href="#DejaVuSans-6d" x="920.642578"/>
      <use xlink:href="#DejaVuSans-70" x="1018.054688"/>
      <use xlink:href="#DejaVuSans-6c" x="1081.53125"/>
      <use xlink:href="#DejaVuSans-65" x="1109.314453"/>
      <use xlink:href="#DejaVuSans-2c" x="1170.837891"/>
      <use xlink:href="#DejaVuSans-20" x="1202.625"/>
      <use xlink:href="#DejaVuSans-6e" x="1234.412109"/>
      <use xlink:href="#DejaVuSans-65" x="1297.791016"/>
      <use xlink:href="#DejaVuSans-77" x="1359.314453"/>
      <use xlink:href="#DejaVuSans-65" x="1441.101562"/>
      <use xlink:href="#DejaVuSans-73" x="1502.625"/>
      <use xlink:href="#DejaVuSans-74" x="1554.724609"/>
      <use xlink:href="#DejaVuSans-29" x="1593.933594"/>
     </g>
    </g>
   </g>
   <g id="matplotlib.axis_2">
    <g id="ytick_1">
     <g id="line2d_7">
      <defs>
       <path id="m5916a6918b" d="M 0 0 
L -3.5 0 
" style="stroke: #000000; stroke-width: 0.8"/>
      </defs>
      <g>
       <use xlink:href="#m5916a6918b" x="47.81" y="225.784742" style="stroke: #000000; stroke-width: 0.8"/>
      </g>
     </g>
     <g id="text_8">
      <!-- 1.0 -->
      <g transform="translate(24.906875 229.583961) scale(0.1 -0.1)">
       <defs>
        <path id="DejaVuSans-2e" d="M 684 794 
L 1344 794 
L 1344 0 
L 684 0 
L 684 794 
z
" transform="scale(0.015625)"/>
       </defs>
       <use xlink:href="#DejaVuSans-31"/>
       <use xlink:href="#DejaVuSans-2e" x="63.623047"/>
       <use xlink:href="#DejaVuSans-30" x="95.410156"/>
      </g>
     </g>
    </g>
    <g id="ytick_2">
     <g id="line2d_8">
      <g>
       <use xlink:href="#m5916a6918b" x="47.81" y="188.381711" style="stroke: #000000; stroke-width: 0.8"/>
      </g>
     </g>
     <g id="text_9">
      <!-- 1.2 -->
      <g transform="translate(24.906875 192.18093) scale(0.1 -0.1)">
       <use xlink:href="#DejaVuSans-31"/>
       <use xlink:href="#DejaVuSans-2e" x="63.623047"/>
       <use xlink:href="#DejaVuSans-32" x="95.410156"/>
      </g>
     </g>
    </g>
    <g id="ytick_3">
     <g id="line2d_9">
      <g>
       <use xlink:href="#m5916a6918b" x="47.81" y="150.97868" style="stroke: #000000; stroke-width: 0.8"/>
      </g>
     </g>
     <g id="text_10">
      <!-- 1.4 -->
      <g transform="translate(24.906875 154.777898) scale(0.1 -0.1)">
       <use xlink:href="#DejaVuSans-31"/>
       <use xlink:href="#DejaVuSans-2e" x="63.623047"/>
       <use xlink:href="#DejaVuSans-34" x="95.410156"/>
      </g>
     </g>
    </g>
    <g id="ytick_4">
     <g id="line2d_10">
      <g>
       <use xlink:href="#m5916a6918b" x="47.81" y="113.575649" style="stroke: #000000; stroke-width: 0.8"/>
      </g>
     </g>
     <g id="text_11">
      <!-- 1.6 -->
      <g transform="translate(24.906875 117.374867) scale(0.1 -0.1)">
       <use xlink:href="#DejaVuSans-31"/>
       <use xlink:href="#DejaVuSans-2e" x="63.623047"/>
       <use xlink:href="#DejaVuSans-36" x="95.410156"/>
      </g>
     </g>
    </g>
    <g id="ytick_5">
     <g id="line2d_11">
      <g>
       <use xlink:href="#m5916a6918b" x="47.81" y="76.172618" style="stroke: #000000; stroke-width: 0.8"/>
      </g>
     </g>
     <g id="text_12">
      <!-- 1.8 -->
      <g transform="translate(24.906875 79.971836) scale(0.1 -0.1)">
       <use xlink:href="#DejaVuSans-31"/>
       <use xlink:href="#DejaVuSans-2e" x="63.623047"/>
       <use xlink:href="#DejaVuSans-38" x="95.410156"/>
      </g>
     </g>
    </g>
    <g id="ytick_6">
     <g id="line2d_12">
      <g>
       <use xlink:href="#m5916a6918b" x="47.81" y="38.769586" style="stroke: #000000; stroke-width: 0.8"/>
      </g>
     </g>
     <g id="text_13">
      <!-- 2.0 -->
      <g transform="translate(24.906875 42.568805) scale(0.1 -0.1)">
       <use xlink:href="#DejaVuSans-32"/>
       <use xlink:href="#DejaVuSans-2e" x="63.623047"/>
       <use xlink:href="#DejaVuSans-30" x="95.410156"/>
      </g>
     </g>
    </g>
    <g id="text_14">
     <!-- equity (start = 1) -->
     <g transform="translate(18.827188 179.8725) rotate(-90) scale(0.1 -0.1)">
      <defs>
       <path id="DejaVuSans-71" d="M 947 1747 
Q 947 1113 1208 752 
Q 1469 391 1925 391 
Q 2381 391 2643 752 
Q 2906 1113 2906 1747 
Q 2906 2381 2643 2742 
Q 2381 3103 1925 3103 
Q 1469 3103 1208 2742 
Q 947 2381 947 1747 
z
M 2906 525 
Q 2725 213 2448 61 
Q 2172 -91 1784 -91 
Q 1150 -91 751 415 
Q 353 922 353 1747 
Q 353 2572 751 3078 
Q 1150 3584 1784 3584 
Q 2172 3584 2448 3432 
Q 2725 3281 2906 2969 
L 2906 3500 
L 3481 3500 
L 3481 -1331 
L 2906 -1331 
L 2906 525 
z
" transform="scale(0.015625)"/>
       <path id="DejaVuSans-69" d="M 603 3500 
L 1178 3500 
L 1178 0 
L 603 0 
L 603 3500 
z
M 603 4863 
L 1178 4863 
L 1178 4134 
L 603 4134 
L 603 4863 
z
" transform="scale(0.015625)"/>
       <path id="DejaVuSans-72" d="M 2631 2963 
Q 2534 3019 2420 3045 
Q 2306 3072 2169 3072 
Q 1681 3072 1420 2755 
Q 1159 2438 1159 1844 
L 1159 0 
L 581 0 
L 581 3500 
L 1159 3500 
L 1159 2956 
Q 1341 3275 1631 3429 
Q 1922 3584 2338 3584 
Q 2397 3584 2469 3576 
Q 2541 3569 2628 3553 
L 2631 2963 
z
" transform="scale(0.015625)"/>
       <path id="DejaVuSans-3d" d="M 678 2906 
L 4684 2906 
L 4684 2381 
L 678 2381 
L 678 2906 
z
M 678 1631 
L 4684 1631 
L 4684 1100 
L 678 1100 
L 678 1631 
z
" transform="scale(0.015625)"/>
      </defs>
      <use xlink:href="#DejaVuSans-65"/>
      <use xlink:href="#DejaVuSans-71" x="61.523438"/>
      <use xlink:href="#DejaVuSans-75" x="125"/>
      <use xlink:href="#DejaVuSans-69" x="188.378906"/>
      <use xlink:href="#DejaVuSans-74" x="216.162109"/>
      <use xlink:href="#DejaVuSans-79" x="255.371094"/>
      <use xlink:href="#DejaVuSans-20" x="314.550781"/>
      <use xlink:href="#DejaVuSans-28" x="346.337891"/>
      <use xlink:href="#DejaVuSans-73" x="385.351562"/>
      <use xlink:href="#DejaVuSans-74" x="437.451172"/>
      <use xlink:href="#DejaVuSans-61" x="476.660156"/>
      <use xlink:href="#DejaVuSans-72" x="537.939453"/>
      <use xlink:href="#DejaVuSans-74" x="579.052734"/>
      <use xlink:href="#DejaVuSans-20" x="618.261719"/>
      <use xlink:href="#DejaVuSans-3d" x="650.048828"/>
      <use xlink:href="#DejaVuSans-20" x="733.837891"/>
      <use xlink:href="#DejaVuSans-31" x="765.625"/>
      <use xlink:href="#DejaVuSans-29" x="829.248047"/>
     </g>
    </g>
   </g>
   <g id="line2d_13">
    <path d="M 64.782273 223.811019 
L 65.122058 223.511636 
L 65.461843 222.835278 
L 65.801628 219.992536 
L 66.141414 220.152618 
L 66.820984 224.133632 
L 67.500555 225.537719 
L 67.84034 221.942051 
L 68.180125 223.538304 
L 68.51991 218.30933 
L 68.859696 217.162651 
L 69.199481 215.233399 
L 69.539266 217.077182 
L 69.879051 216.819774 
L 70.218837 219.082012 
L 70.558622 214.015074 
L 71.238192 208.744596 
L 71.577978 209.320661 
L 71.917763 210.67632 
L 72.257548 207.515415 
L 72.597333 207.674991 
L 73.276904 208.261912 
L 73.616689 209.130931 
L 73.956474 204.794689 
L 74.296259 204.941431 
L 74.636045 201.34083 
L 74.97583 200.501434 
L 75.315615 200.103231 
L 75.6554 201.642685 
L 75.995186 201.163451 
L 76.334971 203.893562 
L 76.674756 208.364171 
L 77.014541 208.82167 
L 77.354327 208.226837 
L 77.694112 205.344074 
L 78.033897 212.332858 
L 78.373682 213.669242 
L 79.053253 217.404729 
L 79.393038 216.81928 
L 79.732823 218.923426 
L 80.072609 219.717361 
L 80.412394 216.176031 
L 80.752179 214.876205 
L 81.431749 209.726753 
L 81.771535 218.506948 
L 82.11132 217.848876 
L 82.451105 220.055281 
L 82.79089 221.439598 
L 83.130676 220.127421 
L 83.470461 222.299245 
L 83.810246 225.559949 
L 84.150031 227.137928 
L 84.489817 230.33737 
L 84.829602 232.224129 
L 85.169387 232.607015 
L 85.509172 229.062235 
L 86.188743 235.653792 
L 86.868313 225.510544 
L 87.208099 225.888484 
L 87.547884 227.803407 
L 87.887669 232.983978 
L 88.56724 235.494711 
L 88.907025 236.078182 
L 89.24681 231.489489 
L 89.586595 235.779776 
L 89.92638 231.092274 
L 90.266166 229.015798 
L 90.945736 231.693524 
L 91.285521 227.396808 
L 91.625307 225.193853 
L 91.965092 222.14213 
L 92.644662 224.701785 
L 92.984448 220.06961 
L 93.324233 221.506299 
L 93.664018 222.290838 
L 94.003803 227.053943 
L 94.343589 229.020248 
L 95.023159 224.726487 
L 95.362944 223.673673 
L 95.70273 227.603316 
L 96.042515 217.337039 
L 96.3823 215.530816 
L 96.722085 217.293569 
L 97.061871 215.590099 
L 97.401656 217.217484 
L 97.741441 217.821701 
L 98.081226 216.893881 
L 98.421011 217.654719 
L 98.760797 215.00465 
L 99.100582 213.834753 
L 99.440367 213.891068 
L 99.780152 216.963055 
L 100.119938 217.274801 
L 100.459723 211.223715 
L 101.139293 211.639215 
L 101.818864 218.083548 
L 102.158649 218.446182 
L 102.498434 216.984295 
L 102.83822 218.423457 
L 103.178005 215.647899 
L 103.51779 214.210727 
L 103.857575 215.412732 
L 104.197361 220.331951 
L 104.876931 224.18996 
L 105.216716 223.994308 
L 105.556502 221.187148 
L 105.896287 223.956277 
L 106.236072 222.848124 
L 106.575857 223.617357 
L 106.915642 225.891452 
L 107.255428 222.627781 
L 107.595213 223.11096 
L 107.934998 223.869819 
L 108.274783 222.445481 
L 108.614569 224.662259 
L 108.954354 220.365048 
L 109.294139 220.512768 
L 109.633924 219.170943 
L 109.97371 216.682923 
L 110.65328 215.226476 
L 110.993065 215.627647 
L 111.332851 218.69616 
L 111.672636 220.178792 
L 112.012421 216.534709 
L 112.352206 214.202814 
L 113.031777 214.380181 
L 113.371562 212.196006 
L 113.711347 211.695531 
L 114.051132 214.303602 
L 115.070488 206.300564 
L 115.410273 208.438784 
L 115.750059 209.693656 
L 116.089844 207.079169 
L 116.769414 211.155048 
L 117.1092 210.712385 
L 117.448985 208.398764 
L 117.78877 208.456081 
L 118.128555 207.889399 
L 118.468341 210.714857 
L 118.808126 211.274109 
L 119.147911 215.312934 
L 119.487696 215.623691 
L 119.827482 214.572854 
L 120.167267 216.661682 
L 120.507052 216.058948 
L 120.846837 216.656254 
L 121.186623 217.583085 
L 121.526408 216.102913 
L 121.866193 212.926702 
L 122.205978 212.789356 
L 122.545763 215.854901 
L 122.885549 215.576264 
L 123.565119 222.019608 
L 123.904904 222.30764 
L 124.24469 219.168965 
L 124.584475 220.52068 
L 124.92426 217.143871 
L 125.264045 219.299894 
L 125.603831 217.574183 
L 125.943616 215.039725 
L 126.283401 218.295495 
L 126.623186 217.714991 
L 126.962972 216.61475 
L 127.302757 216.291642 
L 127.642542 216.600915 
L 127.982327 213.807578 
L 128.322113 212.670283 
L 128.661898 209.781103 
L 129.001683 209.030168 
L 129.341468 210.211415 
L 129.681254 210.716341 
L 130.021039 209.993051 
L 130.360824 209.790994 
L 130.700609 209.799389 
L 131.040394 210.638772 
L 131.38018 207.957572 
L 131.719965 208.381467 
L 132.05975 207.705628 
L 132.399535 207.530227 
L 132.739321 207.547523 
L 133.079106 208.769298 
L 133.758676 208.411115 
L 134.098462 211.642677 
L 134.438247 212.415359 
L 134.778032 208.494606 
L 135.117817 206.808433 
L 135.457603 206.887967 
L 135.797388 209.273717 
L 136.476958 212.156974 
L 136.816744 208.450146 
L 137.156529 208.357754 
L 137.496314 209.293981 
L 137.836099 208.381467 
L 138.51567 209.051396 
L 138.855455 208.448675 
L 139.19524 209.751962 
L 139.874811 205.396952 
L 140.214596 205.696829 
L 140.554381 205.664721 
L 140.894166 207.989198 
L 141.233952 209.488125 
L 141.573737 207.707606 
L 141.913522 205.031339 
L 142.253307 205.027889 
L 142.593093 206.29709 
L 142.932878 204.262118 
L 143.272663 201.231141 
L 143.612448 201.655037 
L 143.952234 201.158023 
L 144.292019 201.964804 
L 144.631804 200.660021 
L 144.971589 200.416472 
L 145.65116 196.950745 
L 145.990945 196.773872 
L 146.33073 194.143078 
L 147.010301 195.977464 
L 147.350086 197.114759 
L 147.689871 196.314395 
L 148.029656 197.972416 
L 148.369442 198.936312 
L 148.709227 196.486322 
L 149.049012 196.562914 
L 149.388797 195.595568 
L 149.728583 192.930687 
L 150.068368 192.673291 
L 150.408153 193.10657 
L 150.747938 194.847093 
L 151.087724 195.47155 
L 151.427509 194.94887 
L 152.107079 191.854641 
L 152.446865 189.983201 
L 152.78665 190.211456 
L 153.126435 189.353293 
L 153.46622 187.762962 
L 153.806006 187.232345 
L 154.145791 188.756481 
L 154.485576 188.68387 
L 155.165147 187.146393 
L 155.504932 187.181469 
L 155.844717 188.630992 
L 156.184502 186.416687 
L 156.524287 186.084195 
L 156.864073 186.688412 
L 157.203858 189.817691 
L 157.543643 190.385844 
L 157.883428 191.564655 
L 158.223214 189.568207 
L 158.562999 190.509862 
L 158.902784 192.074502 
L 159.242569 192.019163 
L 159.582355 192.25533 
L 159.92214 190.987094 
L 160.261925 193.549234 
L 160.941496 196.884044 
L 161.281281 196.916152 
L 161.621066 195.431047 
L 161.960851 196.034782 
L 162.300637 193.640637 
L 162.640422 196.590077 
L 163.319992 193.774015 
L 163.659778 190.59632 
L 163.999563 189.744573 
L 164.339348 190.100778 
L 164.679133 189.700114 
L 165.018918 190.635834 
L 165.358704 192.184673 
L 165.698489 192.893127 
L 166.038274 192.579403 
L 166.378059 191.098761 
L 166.717845 192.361545 
L 167.05763 192.087842 
L 167.397415 190.227257 
L 167.7372 192.933654 
L 168.076986 192.775067 
L 168.416771 193.248343 
L 168.756556 195.310985 
L 169.096341 198.878006 
L 169.436127 199.369085 
L 169.775912 198.510439 
L 170.115697 201.667894 
L 170.455482 201.619479 
L 170.795268 200.374956 
L 171.135053 200.950539 
L 171.474838 200.933725 
L 171.814623 203.845629 
L 172.154408 202.151061 
L 172.494194 202.425753 
L 172.833979 199.940205 
L 173.513549 197.482809 
L 173.853335 196.558451 
L 174.532905 198.987695 
L 174.87269 196.72249 
L 175.212476 196.743718 
L 175.552261 199.638832 
L 175.892046 201.447045 
L 176.231831 204.106981 
L 176.571617 204.458747 
L 176.911402 202.944984 
L 177.590972 208.401731 
L 177.930758 209.382899 
L 178.270543 206.939857 
L 178.610328 205.606922 
L 178.950113 203.430152 
L 179.289899 199.481741 
L 179.629684 197.477888 
L 179.969469 197.10043 
L 180.309254 196.487818 
L 180.649039 196.270442 
L 180.988825 198.020832 
L 181.32861 194.666747 
L 181.668395 194.849071 
L 182.00818 190.691655 
L 183.027536 189.786572 
L 183.367321 188.138441 
L 183.707107 188.592467 
L 184.046892 187.681931 
L 184.386677 187.547564 
L 184.726462 187.987743 
L 185.066248 187.7674 
L 185.406033 187.980337 
L 185.745818 187.129604 
L 186.085603 185.804074 
L 186.425389 187.031783 
L 186.765174 187.160216 
L 187.104959 188.04161 
L 187.444744 186.250694 
L 188.4641 183.379776 
L 188.803885 180.248036 
L 189.14367 179.632456 
L 189.483456 179.650235 
L 190.163026 177.220509 
L 190.502811 180.679819 
L 190.842597 178.288642 
L 191.182382 177.899339 
L 191.522167 176.905313 
L 191.861952 176.567876 
L 192.201738 176.480429 
L 192.541523 177.14838 
L 192.881308 178.482304 
L 193.221093 180.360668 
L 193.560879 181.157558 
L 193.900664 180.734652 
L 194.240449 177.459137 
L 194.580234 177.806947 
L 194.92002 176.475484 
L 195.259805 176.63407 
L 195.59959 176.456716 
L 195.939375 177.338592 
L 196.279161 178.661154 
L 196.618946 176.599502 
L 196.958731 173.691047 
L 197.978087 172.271172 
L 198.317872 171.005903 
L 198.657657 171.163501 
L 198.997442 169.337509 
L 199.337228 169.483744 
L 199.677013 173.402532 
L 200.356583 167.821791 
L 200.696369 168.602374 
L 201.036154 168.038178 
L 201.375939 166.020984 
L 201.715724 165.880176 
L 202.05551 164.462279 
L 202.395295 164.69794 
L 202.73508 168.090549 
L 203.074865 165.746292 
L 203.414651 164.308131 
L 204.094221 166.986858 
L 204.434006 166.676102 
L 204.773792 161.477257 
L 205.113577 161.38981 
L 205.453362 162.341838 
L 205.793147 161.914469 
L 206.132932 162.330476 
L 206.472718 161.020747 
L 206.812503 159.004543 
L 207.152288 159.307387 
L 207.492073 161.891262 
L 207.831859 160.601315 
L 208.171644 158.002628 
L 208.511429 159.666077 
L 208.851214 159.950154 
L 209.191 157.117784 
L 209.530785 157.609852 
L 209.87057 158.342526 
L 210.210355 159.992152 
L 211.569496 153.844247 
L 211.909282 154.207352 
L 212.588852 155.719137 
L 212.928637 153.500369 
L 213.268423 153.210865 
L 213.608208 153.73357 
L 213.947993 155.608966 
L 214.287778 155.328339 
L 214.627563 158.50408 
L 214.967349 155.681601 
L 215.307134 155.777926 
L 215.646919 155.406402 
L 215.986704 157.840568 
L 216.32649 155.942447 
L 217.00606 162.722745 
L 217.345845 163.237031 
L 217.685631 164.679654 
L 218.025416 165.227544 
L 218.365201 167.395918 
L 218.704986 165.253235 
L 219.044772 162.291444 
L 219.384557 162.238083 
L 219.724342 163.384762 
L 220.064127 160.838447 
L 220.403913 160.037601 
L 220.743698 164.013681 
L 221.083483 164.868371 
L 221.423268 162.605144 
L 222.102839 156.847531 
L 222.442624 156.503676 
L 222.782409 156.505172 
L 223.122194 155.200389 
L 223.46198 154.775505 
L 223.801765 154.837767 
L 224.14155 153.589795 
L 224.481335 150.552908 
L 224.821121 151.098819 
L 225.500691 150.553897 
L 225.840476 149.89779 
L 226.180262 150.609236 
L 226.520047 152.54441 
L 226.859832 150.72235 
L 227.199617 150.657145 
L 227.879188 154.143136 
L 228.218973 152.066671 
L 228.898544 151.383402 
L 229.238329 148.286231 
L 229.578114 148.339085 
L 229.917899 148.634017 
L 230.59747 147.234405 
L 230.937255 144.976123 
L 231.27704 144.348168 
L 231.616825 144.453901 
L 231.956611 142.397193 
L 232.296396 141.71542 
L 232.636181 142.400161 
L 232.975966 142.82256 
L 233.315752 143.650087 
L 233.655537 142.591362 
L 233.995322 142.166478 
L 234.335107 141.920926 
L 234.674893 143.027102 
L 235.014678 142.305308 
L 236.034034 137.75514 
L 236.713604 137.271467 
L 237.053389 134.458855 
L 237.393175 136.897965 
L 237.73296 135.375807 
L 238.072745 134.59175 
L 238.41253 132.814174 
L 238.752315 136.713687 
L 239.431886 140.827609 
L 239.771671 137.892474 
L 240.111456 138.320808 
L 240.451242 144.67475 
L 240.791027 146.053616 
L 241.130812 143.095275 
L 241.470597 142.875921 
L 241.810383 144.21479 
L 242.150168 139.972919 
L 242.829738 148.655269 
L 243.169524 156.571367 
L 243.509309 153.918354 
L 243.849094 155.920712 
L 244.188879 150.001545 
L 244.528665 148.773836 
L 244.86845 148.762474 
L 245.208235 144.314082 
L 245.54802 143.287465 
L 245.887806 138.939354 
L 246.227591 138.394432 
L 246.567376 135.726584 
L 246.907161 136.276452 
L 247.246946 135.104082 
L 247.586732 137.584684 
L 247.926517 134.424286 
L 248.266302 135.302206 
L 248.606087 134.859543 
L 248.945873 136.520507 
L 249.285658 136.531387 
L 249.625443 133.742995 
L 249.965228 139.645348 
L 250.305014 140.08309 
L 250.644799 140.906154 
L 250.984584 145.599108 
L 251.324369 142.504904 
L 251.664155 141.295963 
L 252.343725 136.343659 
L 252.68351 134.848664 
L 253.023296 134.499382 
L 253.363081 134.425757 
L 253.702866 135.232056 
L 254.042651 130.519827 
L 254.382437 131.067741 
L 255.062007 129.566811 
L 255.401792 130.093978 
L 255.741577 128.952221 
L 256.081363 129.307943 
L 256.421148 128.106915 
L 256.760933 130.761423 
L 257.100718 130.722391 
L 257.440504 131.19668 
L 257.780289 128.670629 
L 258.120074 131.394298 
L 258.799645 126.646512 
L 259.13943 127.238885 
L 259.819 123.296384 
L 260.158786 125.499351 
L 260.498571 124.15503 
L 260.838356 124.204434 
L 261.178141 123.058262 
L 261.517927 123.586394 
L 261.857712 123.723729 
L 262.197497 126.380721 
L 262.537282 125.766131 
L 262.877068 125.852082 
L 263.216853 125.091256 
L 263.556638 124.626858 
L 263.896423 125.577896 
L 264.236208 130.924448 
L 264.575994 129.77087 
L 264.915779 130.566771 
L 265.255564 127.105 
L 265.595349 119.878083 
L 265.935135 117.701313 
L 266.27492 116.592677 
L 266.614705 116.305634 
L 266.95449 117.163291 
L 267.294276 117.094636 
L 267.634061 118.883574 
L 267.973846 122.764295 
L 268.653417 120.473905 
L 268.993202 120.467488 
L 269.332987 118.906298 
L 270.012558 116.996309 
L 270.352343 115.303719 
L 270.692128 116.434573 
L 271.031913 114.77262 
L 271.371699 114.042913 
L 271.711484 113.908039 
L 272.051269 112.09932 
L 272.391054 112.661562 
L 272.730839 111.912581 
L 273.070625 113.761297 
L 273.41041 114.647613 
L 273.750195 112.212965 
L 274.08998 113.840349 
L 274.429766 113.848262 
L 274.769551 112.712438 
L 275.109336 113.871975 
L 275.449121 122.68821 
L 275.788907 122.939189 
L 276.808262 114.394173 
L 277.148048 114.515224 
L 277.827618 120.969929 
L 278.167403 122.220362 
L 278.507189 122.866578 
L 278.846974 119.21457 
L 279.186759 117.588681 
L 279.526544 120.866681 
L 279.86633 120.41116 
L 280.206115 124.917351 
L 280.885685 124.133295 
L 281.22547 118.847003 
L 281.565256 119.468034 
L 282.244826 113.939641 
L 282.924397 110.507517 
L 283.264182 111.370602 
L 283.603967 115.765657 
L 283.943752 113.027634 
L 284.283538 114.430237 
L 284.623323 112.856214 
L 284.963108 114.369977 
L 285.302893 116.64061 
L 285.642679 114.500894 
L 286.322249 112.243601 
L 286.662034 115.088298 
L 287.00182 113.089896 
L 287.341605 112.98812 
L 287.68139 113.804767 
L 288.021175 110.687357 
L 288.360961 110.709092 
L 289.040531 109.250667 
L 289.380316 110.566306 
L 289.720101 115.723658 
L 290.399672 118.58319 
L 290.739457 118.54317 
L 291.079242 123.211421 
L 291.419028 118.620244 
L 292.098598 127.332749 
L 292.438383 124.147141 
L 292.778169 129.290647 
L 293.117954 127.725501 
L 293.457739 135.414838 
L 293.797524 137.514051 
L 294.13731 136.168765 
L 294.477095 140.011444 
L 294.81688 134.21036 
L 295.156665 132.422893 
L 295.496451 135.409893 
L 295.836236 132.414498 
L 296.176021 133.02711 
L 296.515806 132.796395 
L 296.855592 127.855453 
L 297.195377 127.406855 
L 297.535162 130.590967 
L 297.874947 131.524227 
L 298.214732 137.075827 
L 299.234088 132.627917 
L 299.913659 162.117032 
L 300.253444 162.701492 
L 300.593229 166.628169 
L 300.933014 143.203974 
L 301.2728 152.534037 
L 301.612585 147.825282 
L 301.95237 145.720135 
L 302.292155 146.18159 
L 302.631941 152.156072 
L 302.971726 151.81024 
L 303.311511 157.961112 
L 303.991082 147.207725 
L 304.330867 141.827063 
L 304.670652 139.829144 
L 305.010437 139.654249 
L 305.350222 138.069346 
L 305.690008 137.662747 
L 306.029793 135.92963 
L 306.369578 131.85228 
L 307.049149 135.792779 
L 307.388934 134.588807 
L 307.728719 132.975245 
L 308.068504 133.174335 
L 308.40829 124.070067 
L 308.748075 121.977295 
L 309.08786 121.679372 
L 309.427645 120.476366 
L 309.767431 118.42856 
L 310.107216 118.170657 
L 310.447001 119.313886 
L 310.786786 124.049321 
L 311.126572 124.177778 
L 311.466357 126.113941 
L 311.806142 120.248617 
L 312.145927 121.878486 
L 312.485713 120.711544 
L 312.825498 120.735257 
L 313.165283 119.537196 
L 313.505068 117.836187 
L 313.844853 117.814452 
L 314.184639 119.371203 
L 314.524424 116.354556 
L 314.864209 116.081841 
L 315.203994 114.454939 
L 315.54378 115.273565 
L 315.883565 114.136294 
L 316.22335 117.510112 
L 316.563135 114.736555 
L 316.902921 117.226035 
L 317.242706 117.317439 
L 317.582491 117.961194 
L 318.262062 111.81821 
L 318.601847 111.8192 
L 318.941632 109.405298 
L 319.621203 106.246853 
L 319.960988 106.589743 
L 320.300773 105.136746 
L 320.640558 102.571156 
L 320.980344 105.010267 
L 321.320129 105.23061 
L 321.659914 103.366093 
L 321.999699 102.516324 
L 322.339484 103.539491 
L 322.67927 103.104234 
L 323.019055 104.329482 
L 323.35884 103.344334 
L 323.698625 101.681391 
L 324.038411 101.709543 
L 324.378196 101.274286 
L 324.717981 101.075678 
L 325.057766 98.640524 
L 325.397552 98.421171 
L 325.737337 97.171727 
L 326.077122 97.115905 
L 326.416907 98.050154 
L 326.756693 98.443412 
L 327.096478 99.604903 
L 327.436263 104.613559 
L 327.776048 100.071786 
L 328.115834 101.590977 
L 328.455619 99.324783 
L 328.795404 99.574773 
L 329.135189 97.131706 
L 329.474975 97.922179 
L 329.81476 94.349754 
L 330.154545 93.321135 
L 330.49433 93.224304 
L 330.834115 94.150158 
L 331.173901 94.182266 
L 331.513686 96.048761 
L 331.853471 96.818995 
L 332.193256 98.08424 
L 332.533042 93.304828 
L 332.872827 94.667917 
L 333.212612 93.352761 
L 333.892183 91.578152 
L 334.571753 95.842748 
L 334.911538 94.226243 
L 335.251324 91.567272 
L 335.591109 92.584023 
L 336.270679 91.047053 
L 336.610465 90.087113 
L 336.95025 87.348607 
L 337.290035 87.505723 
L 337.62982 85.974687 
L 338.309391 86.712282 
L 339.328746 82.097898 
L 339.668532 83.917473 
L 340.008317 84.853675 
L 340.348102 86.496378 
L 340.687887 84.570588 
L 341.027673 83.705525 
L 341.707243 81.235778 
L 342.047028 81.030754 
L 342.386814 81.009018 
L 342.726599 79.799113 
L 343.066384 81.068314 
L 343.406169 79.135094 
L 343.745955 80.05453 
L 344.08574 89.075814 
L 344.425525 84.026148 
L 344.76531 84.540458 
L 345.105096 83.218885 
L 345.444881 85.293395 
L 345.784666 83.567202 
L 346.124451 80.053541 
L 346.464237 80.042662 
L 346.804022 81.818767 
L 347.143807 79.890009 
L 347.483592 77.259215 
L 347.823377 73.135403 
L 348.163163 72.358269 
L 348.502948 72.373105 
L 348.842733 75.744969 
L 349.522304 74.281092 
L 349.862089 78.25423 
L 350.201874 77.031949 
L 350.541659 80.785226 
L 350.881445 80.366276 
L 351.22123 75.24646 
L 351.561015 74.545918 
L 351.9008 74.332981 
L 352.240586 79.936929 
L 352.580371 80.103935 
L 353.259941 85.873899 
L 353.599727 84.646673 
L 353.939512 89.755127 
L 354.279297 86.581847 
L 354.619082 81.536162 
L 355.298653 76.225674 
L 355.638438 74.423396 
L 355.978223 76.224685 
L 356.997579 74.026663 
L 357.337364 73.370581 
L 357.677149 74.550863 
L 358.016935 74.847291 
L 358.35672 72.566261 
L 358.696505 71.858796 
L 359.03629 75.494472 
L 359.376076 76.033001 
L 359.715861 76.835826 
L 360.055646 80.73037 
L 361.075002 72.970881 
L 361.754572 70.324793 
L 362.094358 70.42903 
L 362.434143 71.624606 
L 362.773928 72.09395 
L 363.113713 74.600751 
L 363.453498 73.959962 
L 364.133069 69.693895 
L 364.472854 70.874153 
L 364.812639 70.84798 
L 365.152425 68.633674 
L 365.49221 68.090706 
L 365.831995 68.75914 
L 366.17178 70.594033 
L 366.511566 69.711167 
L 366.851351 69.931534 
L 367.191136 77.003797 
L 367.530921 73.112678 
L 367.870707 71.248644 
L 368.210492 71.137001 
L 368.890062 68.024994 
L 369.229848 68.05317 
L 369.569633 68.498801 
L 369.909418 69.979949 
L 370.249203 68.131716 
L 370.588989 71.028301 
L 370.928774 72.761901 
L 371.268559 76.927712 
L 371.608344 70.312441 
L 371.948129 68.705803 
L 372.287915 69.842591 
L 372.6277 69.859381 
L 372.967485 75.230177 
L 373.30727 75.061699 
L 373.647056 74.713382 
L 373.986841 72.831569 
L 374.326626 73.791002 
L 374.666411 71.438374 
L 375.006197 74.983636 
L 375.685767 69.629172 
L 376.365338 72.951631 
L 376.705123 72.816251 
L 377.044908 76.027067 
L 377.384693 73.41504 
L 377.724479 75.331446 
L 378.064264 79.811946 
L 378.404049 77.04676 
L 378.743834 77.763634 
L 379.08362 78.04426 
L 379.423405 83.141811 
L 379.76319 85.139247 
L 380.102975 81.819756 
L 380.44276 80.994207 
L 380.782546 85.509275 
L 381.122331 86.408931 
L 381.462116 91.349897 
L 381.801901 87.668266 
L 382.141687 88.885095 
L 382.481472 87.12976 
L 383.161042 98.149445 
L 383.500828 99.390977 
L 383.840613 90.261018 
L 384.180398 87.948892 
L 384.520183 87.584775 
L 384.859969 86.145118 
L 385.199754 85.897106 
L 385.539539 77.697922 
L 385.879324 75.630335 
L 386.21911 76.014209 
L 387.238465 65.833896 
L 387.578251 64.92833 
L 387.918036 60.739795 
L 388.257821 61.575717 
L 388.597606 63.805364 
L 388.937391 60.154852 
L 389.277177 61.612288 
L 389.616962 58.812027 
L 389.956747 58.37578 
L 390.296532 60.110393 
L 390.636318 60.251177 
L 390.976103 56.641698 
L 391.315888 55.59875 
L 391.655673 57.049769 
L 391.995459 54.161071 
L 392.335244 48.92913 
L 392.675029 50.312965 
L 393.014814 47.258757 
L 393.3546 46.571556 
L 393.694385 47.158477 
L 394.373955 42.204171 
L 394.713741 46.785964 
L 395.053526 47.055229 
L 395.393311 49.497789 
L 395.733096 45.577023 
L 396.072882 44.947115 
L 396.412667 43.576137 
L 396.752452 41.320822 
L 397.092237 41.259573 
L 397.432022 39.121835 
L 398.451378 36.841818 
L 398.791163 39.613397 
L 399.130949 38.10014 
L 399.470734 48.00921 
L 399.810519 46.922816 
L 400.150304 47.865459 
L 400.49009 53.777197 
L 400.829875 47.487519 
L 401.16966 45.651637 
L 401.509445 39.583267 
L 401.849231 41.704697 
L 402.189016 46.212866 
L 402.528801 42.236785 
L 402.868586 43.609741 
L 403.208372 48.91234 
L 403.548157 49.270017 
L 403.887942 49.306081 
L 404.227727 49.477526 
L 404.227727 49.477526 
" clip-path="url(#pfe39793130)" style="fill: none; stroke: #16a34a; stroke-width: 1.5; stroke-linecap: square"/>
   </g>
   <g id="line2d_14">
    <path d="M 64.782273 223.811019 
L 65.122058 224.110401 
L 65.461843 223.436183 
L 65.801628 220.602433 
L 66.141414 220.762009 
L 66.820984 224.73043 
L 67.500555 226.130075 
L 67.84034 222.545782 
L 68.180125 224.136985 
L 68.51991 218.924551 
L 68.859696 220.067603 
L 69.539266 216.350593 
L 69.879051 216.092229 
L 70.218837 218.362866 
L 70.558622 213.277117 
L 70.898407 215.697995 
L 71.238192 212.897618 
L 71.577978 212.333277 
L 71.917763 213.668865 
L 72.257548 210.554759 
L 72.597333 210.397546 
L 73.276904 210.976677 
L 73.616689 211.834162 
L 73.956474 207.555473 
L 74.296259 207.410678 
L 74.636045 203.852851 
L 74.97583 203.023427 
L 75.315615 202.629953 
L 75.6554 201.108786 
L 75.995186 200.62834 
L 76.334971 203.365353 
L 76.674756 207.847266 
L 77.014541 208.305922 
L 77.354327 207.709585 
L 77.694112 204.819533 
L 78.033897 211.825988 
L 78.373682 213.165751 
L 79.053253 216.910683 
L 79.393038 216.323754 
L 79.732823 218.43322 
L 80.072609 219.229162 
L 80.412394 215.678878 
L 80.752179 216.981991 
L 81.431749 211.887326 
L 81.771535 203.200546 
L 82.11132 202.490631 
L 82.451105 200.110405 
L 82.79089 201.63797 
L 83.130676 200.190011 
L 83.470461 202.586572 
L 83.810246 206.184687 
L 84.150031 207.925953 
L 84.489817 211.456468 
L 84.829602 213.538465 
L 85.169387 213.960971 
L 85.848958 205.765988 
L 86.188743 208.885305 
L 86.528528 203.607201 
L 86.868313 210.005087 
L 87.208099 209.595858 
L 87.547884 211.6777 
L 87.887669 217.309849 
L 88.227454 218.774551 
L 88.56724 217.509666 
L 88.907025 218.152321 
L 89.24681 213.098172 
L 89.586595 217.823647 
L 89.92638 212.660666 
L 90.266166 214.947771 
L 90.945736 217.830468 
L 91.285521 213.204853 
L 91.625307 215.576437 
L 91.965092 212.368271 
L 92.644662 215.059144 
L 92.984448 210.189505 
L 93.324233 208.679165 
L 93.664018 209.516312 
L 94.003803 214.598805 
L 94.343589 216.69696 
L 94.683374 214.026288 
L 95.023159 215.937294 
L 95.362944 214.835278 
L 95.70273 218.948565 
L 96.042515 208.202516 
L 96.722085 211.904491 
L 97.061871 210.154066 
L 97.401656 211.826309 
L 97.741441 211.205436 
L 98.081226 210.246133 
L 98.421011 211.032788 
L 98.760797 208.292793 
L 99.100582 207.083197 
L 99.440367 207.141424 
L 99.780152 210.317653 
L 100.119938 210.639978 
L 100.459723 204.383559 
L 100.799508 204.20273 
L 101.139293 204.451932 
L 101.818864 211.126515 
L 102.158649 211.502105 
L 102.498434 209.987987 
L 102.83822 211.478569 
L 103.178005 208.603842 
L 103.51779 207.115322 
L 103.857575 208.360274 
L 104.197361 213.455252 
L 104.876931 217.451104 
L 105.216716 217.248461 
L 105.556502 214.341003 
L 105.896287 217.209072 
L 106.236072 216.061325 
L 106.575857 216.858042 
L 106.915642 219.213388 
L 107.255428 215.833109 
L 107.595213 216.333551 
L 107.934998 217.119525 
L 108.274783 215.644296 
L 108.614569 217.940277 
L 108.954354 213.489531 
L 109.294139 213.336534 
L 109.633924 211.944632 
L 109.97371 209.363758 
L 110.65328 207.852956 
L 110.993065 208.269099 
L 111.332851 211.45213 
L 111.672636 212.990095 
L 112.012421 209.210013 
L 112.352206 211.628934 
L 113.031777 211.8086 
L 113.371562 209.596117 
L 113.711347 209.089156 
L 114.051132 211.731028 
L 115.070488 203.624268 
L 115.410273 205.790201 
L 115.750059 207.061336 
L 116.089844 204.412964 
L 116.769414 208.541668 
L 117.1092 208.093267 
L 117.448985 205.749661 
L 117.78877 205.807721 
L 118.128555 205.233695 
L 118.468341 208.095772 
L 118.808126 208.662272 
L 119.147911 212.753442 
L 119.487696 213.068226 
L 119.827482 212.00377 
L 120.167267 214.11967 
L 120.507052 213.509124 
L 120.846837 214.114171 
L 121.186623 215.053014 
L 121.526408 213.553659 
L 121.866193 210.336283 
L 122.205978 210.197157 
L 122.545763 213.302433 
L 122.885549 213.020185 
L 123.565119 219.547036 
L 123.904904 219.838801 
L 124.24469 216.659448 
L 124.584475 215.290214 
L 124.92426 211.821548 
L 125.264045 214.03622 
L 125.603831 212.263566 
L 126.283401 218.125581 
L 126.623186 217.54457 
L 126.962972 216.443368 
L 127.302757 216.119978 
L 127.642542 216.429521 
L 127.982327 213.633743 
L 128.322113 212.495455 
L 128.661898 209.603751 
L 129.001683 208.85216 
L 129.341468 207.669881 
L 129.681254 208.181141 
L 130.021039 207.448777 
L 130.360824 207.244185 
L 130.700609 207.252685 
L 131.040394 208.102599 
L 131.38018 205.387762 
L 131.719965 205.816975 
L 132.05975 205.132657 
L 132.399535 204.955056 
L 132.739321 204.972569 
L 133.079106 206.209672 
L 133.758676 205.846995 
L 134.098462 209.119098 
L 134.438247 209.901474 
L 134.778032 205.931533 
L 135.117817 207.63886 
L 135.457603 207.718074 
L 135.797388 210.094206 
L 136.476958 212.965839 
L 136.816744 209.273955 
L 137.156529 209.365975 
L 137.496314 210.297584 
L 137.836099 209.389571 
L 138.51567 210.056197 
L 138.855455 209.456447 
L 139.19524 210.753307 
L 139.874811 206.419774 
L 140.214596 206.718173 
L 140.554381 206.686223 
L 140.894166 208.999236 
L 141.233952 210.490772 
L 141.573737 208.719033 
L 141.913522 206.055964 
L 142.253307 206.052531 
L 142.593093 207.315473 
L 142.932878 205.290537 
L 143.272663 202.274508 
L 143.612448 202.696312 
L 143.952234 202.20175 
L 144.292019 203.004552 
L 144.631804 201.706204 
L 144.971589 201.463856 
L 145.65116 198.01522 
L 145.990945 197.83922 
L 146.33073 195.221399 
L 147.010301 197.04674 
L 147.350086 198.178426 
L 147.689871 197.382009 
L 148.029656 199.031853 
L 148.369442 199.990996 
L 148.709227 197.553088 
L 149.049012 197.629302 
L 149.388797 196.666726 
L 149.728583 194.014988 
L 150.068368 193.758861 
L 150.408153 194.190003 
L 150.747938 195.921943 
L 151.087724 196.54332 
L 151.427509 196.023217 
L 152.107079 192.944249 
L 152.446865 191.082038 
L 152.78665 191.309167 
L 153.126435 190.455235 
L 153.46622 188.872747 
L 153.806006 188.344747 
L 154.145791 189.861367 
L 154.485576 189.789114 
L 155.165147 188.25922 
L 155.504932 188.294122 
L 155.844717 189.736497 
L 156.184502 187.533111 
L 156.524287 187.202259 
L 156.864073 187.803497 
L 157.203858 190.917344 
L 157.543643 191.482695 
L 157.883428 192.655692 
L 158.223214 190.66909 
L 158.562999 191.606101 
L 158.902784 193.163024 
L 159.242569 193.107958 
L 159.582355 193.342961 
L 159.92214 192.080979 
L 160.261925 194.630484 
L 160.941496 197.948848 
L 161.281281 197.980798 
L 161.621066 196.503017 
L 161.960851 197.103774 
L 162.300637 194.721436 
L 162.640422 197.656331 
L 163.319992 194.854156 
L 163.659778 191.692133 
L 163.999563 192.539679 
L 164.339348 192.891421 
L 164.679133 192.495777 
L 165.018918 193.419771 
L 165.358704 194.949202 
L 165.698489 195.648778 
L 166.038274 195.338986 
L 166.378059 193.876897 
L 166.717845 195.123858 
L 167.05763 194.853584 
L 167.397415 193.016314 
L 167.7372 195.688798 
L 168.076986 195.532198 
L 168.416771 195.999543 
L 168.756556 198.036338 
L 169.096341 201.558661 
L 169.436127 202.043586 
L 169.775912 201.1957 
L 170.115697 204.313589 
L 170.455482 204.26578 
L 170.795268 203.036852 
L 171.135053 203.605222 
L 171.474838 203.588619 
L 171.814623 206.464034 
L 172.154408 204.790701 
L 172.494194 204.51945 
L 172.833979 202.058639 
L 173.513549 199.6257 
L 173.853335 198.710541 
L 174.532905 201.115609 
L 174.87269 198.872947 
L 175.212476 198.893965 
L 175.552261 201.760266 
L 175.892046 203.550483 
L 176.231831 206.183946 
L 176.571617 206.532212 
L 176.911402 205.033514 
L 177.590972 210.435954 
L 177.930758 211.407357 
L 178.270543 208.988628 
L 178.610328 210.308298 
L 178.950113 208.180921 
L 179.289899 204.322102 
L 179.629684 202.363718 
L 179.969469 202.732611 
L 180.309254 203.329227 
L 180.649039 203.118727 
L 180.988825 204.813756 
L 181.32861 201.565753 
L 181.668395 201.74231 
L 182.00818 197.716383 
L 182.687751 197.116442 
L 183.027536 197.392959 
L 183.367321 195.801041 
L 183.707107 196.239581 
L 184.046892 195.360102 
L 184.386677 195.230318 
L 184.726462 195.655483 
L 185.066248 195.442656 
L 185.406033 195.64833 
L 185.745818 194.826612 
L 186.085603 193.546293 
L 186.425389 194.732129 
L 186.765174 194.856181 
L 187.104959 195.707513 
L 187.444744 193.97768 
L 188.4641 191.204681 
L 188.803885 188.179756 
L 189.14367 187.585173 
L 189.483456 187.602345 
L 190.163026 185.25549 
L 190.502811 188.596813 
L 190.842597 186.287192 
L 191.182382 185.911168 
L 191.522167 184.951045 
L 191.861952 184.625117 
L 192.201738 184.540652 
L 192.541523 185.185821 
L 192.881308 186.474249 
L 193.221093 188.288547 
L 193.560879 189.058257 
L 193.900664 188.649775 
L 194.240449 185.485979 
L 194.580234 185.821927 
L 194.92002 184.535876 
L 195.259805 184.689054 
L 195.59959 184.517748 
L 195.939375 185.369546 
L 196.279161 186.646999 
L 196.618946 184.655664 
L 196.958731 181.846409 
L 197.978087 180.474962 
L 198.317872 179.252848 
L 198.657657 179.40507 
L 198.997442 177.641358 
L 199.337228 177.782606 
L 199.677013 181.567735 
L 200.356583 176.177338 
L 200.696369 176.931297 
L 201.036154 176.386344 
L 201.375939 174.437951 
L 201.715724 174.301946 
L 202.05551 172.932409 
L 202.395295 173.160033 
L 202.73508 176.436929 
L 203.074865 174.172628 
L 203.414651 172.783519 
L 204.094221 175.370882 
L 204.434006 175.070725 
L 204.773792 170.049199 
L 205.113577 170.133663 
L 205.453362 171.05258 
L 205.793147 170.640075 
L 206.132932 171.041613 
L 206.472718 169.777436 
L 206.812503 167.831354 
L 207.152288 168.123665 
L 207.492073 170.617675 
L 207.831859 169.372591 
L 208.171644 166.864285 
L 208.511429 168.46988 
L 208.851214 168.744077 
L 209.191 166.010215 
L 209.530785 166.485169 
L 209.87057 167.192362 
L 210.210355 168.784615 
L 211.569496 162.85053 
L 211.909282 163.201006 
L 212.588852 164.660212 
L 212.928637 162.518611 
L 213.268423 162.239176 
L 213.608208 162.743701 
L 213.947993 164.553873 
L 214.287778 164.283006 
L 214.627563 167.348297 
L 214.967349 164.623982 
L 215.307134 164.531007 
L 215.646919 164.172136 
L 215.986704 166.523404 
L 216.32649 164.689926 
L 217.00606 171.239315 
L 217.345845 171.736086 
L 217.685631 173.129581 
L 218.025416 173.658811 
L 218.365201 175.75334 
L 218.704986 173.683627 
L 219.044772 170.822703 
L 219.384557 170.771159 
L 219.724342 171.878787 
L 220.064127 169.419189 
L 220.403913 168.645616 
L 220.743698 172.486288 
L 221.083483 173.311871 
L 221.423268 171.125719 
L 222.102839 165.564186 
L 222.442624 165.232042 
L 222.782409 165.230597 
L 223.122194 163.970235 
L 223.46198 163.559816 
L 223.801765 163.619958 
L 224.14155 162.414472 
L 224.481335 159.480975 
L 224.821121 160.0083 
L 225.500691 159.48193 
L 225.840476 158.84816 
L 226.180262 159.535385 
L 226.520047 161.404677 
L 226.859832 159.644648 
L 227.199617 159.581663 
L 227.879188 162.948975 
L 228.218973 160.943203 
L 228.898544 160.283195 
L 229.238329 157.291466 
L 229.578114 157.34252 
L 229.917899 157.627411 
L 230.59747 156.275449 
L 230.937255 154.094049 
L 231.27704 153.487473 
L 231.616825 153.589606 
L 231.956611 151.602918 
L 232.296396 150.944355 
L 232.636181 151.605784 
L 232.975966 152.013803 
L 233.315752 152.813157 
L 233.655537 151.790476 
L 234.335107 151.142865 
L 234.674893 152.211381 
L 235.014678 151.51416 
L 236.034034 147.1189 
L 236.713604 146.651694 
L 237.053389 143.934836 
L 237.393175 146.290908 
L 237.73296 144.820571 
L 238.072745 144.063207 
L 238.41253 142.346147 
L 238.752315 146.112903 
L 239.431886 150.086768 
L 239.771671 147.251559 
L 240.111456 146.837807 
L 240.451242 152.994589 
L 240.791027 154.330669 
L 241.130812 151.464124 
L 241.470597 151.676671 
L 241.810383 152.971887 
L 242.150168 148.86832 
L 242.829738 157.267586 
L 243.169524 164.925583 
L 243.849094 160.421999 
L 244.188879 154.606553 
L 244.528665 153.400357 
L 244.86845 153.389194 
L 245.208235 149.018752 
L 245.54802 148.010124 
L 245.887806 143.738205 
L 246.227591 144.273579 
L 246.567376 146.884268 
L 246.907161 146.356544 
L 247.246946 145.22691 
L 247.586732 147.617088 
L 247.926517 144.571895 
L 248.266302 143.725977 
L 248.606087 143.296752 
L 248.945873 144.907295 
L 249.285658 144.917844 
L 249.625443 142.214097 
L 249.965228 147.937277 
L 250.305014 148.361731 
L 250.644799 149.15981 
L 250.984584 153.710304 
L 251.324369 150.710028 
L 251.664155 149.537786 
L 252.343725 144.735815 
L 252.68351 143.286202 
L 253.023296 143.624881 
L 253.363081 143.553671 
L 253.702866 144.333531 
L 254.042651 139.775817 
L 254.382437 140.305764 
L 255.062007 138.85405 
L 255.401792 139.363931 
L 255.741577 138.259612 
L 256.081363 138.60367 
L 256.421148 137.442024 
L 256.760933 140.00949 
L 257.100718 139.971738 
L 257.440504 140.430475 
L 257.780289 137.987253 
L 258.120074 140.621614 
L 258.799645 136.029508 
L 259.13943 136.602456 
L 259.819 132.78923 
L 260.158786 134.919962 
L 260.498571 133.619721 
L 260.838356 133.667506 
L 261.178141 132.558917 
L 261.517927 133.069731 
L 261.857712 133.202562 
L 262.197497 135.772432 
L 262.537282 135.177994 
L 262.877068 135.261127 
L 263.216853 134.525249 
L 263.556638 134.076078 
L 263.896423 134.995932 
L 264.236208 140.16717 
L 264.575994 139.051418 
L 264.915779 139.821221 
L 265.255564 136.472962 
L 265.595349 129.483016 
L 265.935135 127.377623 
L 266.27492 128.449907 
L 266.614705 128.72546 
L 266.95449 129.547191 
L 267.294276 129.481411 
L 267.634061 131.195413 
L 267.973846 134.913575 
L 268.653417 132.719127 
L 268.993202 132.712979 
L 269.332987 131.217185 
L 270.012558 129.387204 
L 270.352343 127.765514 
L 270.692128 128.848998 
L 271.031913 127.256662 
L 271.371699 126.557522 
L 271.711484 126.428298 
L 272.051269 124.695344 
L 272.391054 125.234035 
L 272.730839 124.516428 
L 273.070625 126.287703 
L 273.41041 127.136892 
L 273.750195 124.804229 
L 274.08998 126.363444 
L 274.429766 126.371025 
L 274.769551 125.28278 
L 275.109336 126.393745 
L 275.449121 134.840677 
L 275.788907 135.081143 
L 276.128692 132.062584 
L 276.468477 134.108393 
L 276.808262 131.03087 
L 277.148048 131.145172 
L 277.827618 137.240015 
L 278.167403 138.420734 
L 278.507189 139.030922 
L 278.846974 135.582521 
L 279.186759 134.047279 
L 279.526544 137.142524 
L 279.86633 136.712399 
L 280.206115 140.967361 
L 280.885685 140.227017 
L 281.22547 135.235446 
L 281.565256 134.649039 
L 282.244826 129.40676 
L 282.584611 127.66731 
L 282.924397 129.182358 
L 283.264182 129.992123 
L 283.603967 134.115663 
L 283.943752 131.546788 
L 284.623323 128.740165 
L 284.963108 130.173765 
L 285.302893 132.324154 
L 285.642679 130.29775 
L 286.322249 128.159995 
L 286.662034 130.854046 
L 287.00182 128.961473 
L 287.341605 128.865087 
L 287.68139 129.638487 
L 288.021175 126.686164 
L 288.360961 126.706748 
L 289.040531 125.325556 
L 289.380316 126.571523 
L 289.720101 131.45576 
L 290.399672 134.163862 
L 290.739457 134.12596 
L 291.079242 138.546998 
L 291.758813 129.296485 
L 292.098598 132.7651 
L 292.438383 129.640114 
L 292.778169 134.68574 
L 293.117954 133.150378 
L 293.457739 140.69339 
L 293.797524 142.752655 
L 294.13731 141.43297 
L 294.477095 145.202523 
L 294.81688 139.511833 
L 295.156665 137.758381 
L 295.496451 140.688539 
L 295.836236 137.750145 
L 296.176021 138.3511 
L 296.515806 138.124775 
L 296.855592 133.277857 
L 297.195377 132.837796 
L 297.535162 135.961315 
L 297.874947 136.876815 
L 298.214732 142.32277 
L 298.554518 140.824727 
L 298.894303 141.853129 
L 299.234088 140.030146 
L 299.913659 168.74015 
L 300.253444 169.309168 
L 300.593229 165.486236 
L 300.933014 141.953382 
L 301.2728 132.58004 
L 301.612585 127.510276 
L 301.95237 125.243732 
L 302.292155 125.740566 
L 302.631941 119.308034 
L 302.971726 118.918617 
L 303.311511 125.844663 
L 303.651296 118.637149 
L 303.991082 123.538235 
L 304.330867 117.678051 
L 304.670652 115.502078 
L 305.010437 115.692558 
L 305.350222 117.416497 
L 305.690008 116.979332 
L 306.029793 115.115928 
L 306.369578 110.732063 
L 307.049149 114.968789 
L 307.388934 113.674309 
L 307.728719 111.939448 
L 308.068504 112.153504 
L 308.40829 102.364824 
L 308.748075 104.614919 
L 309.08786 104.930629 
L 309.427645 106.202847 
L 309.767431 104.055051 
L 310.107216 104.325546 
L 310.447001 105.522498 
L 310.786786 110.480459 
L 311.126572 110.614952 
L 311.466357 112.642099 
L 311.806142 106.501153 
L 312.485713 103.559225 
L 312.825498 103.584331 
L 313.165283 102.315916 
L 313.505068 100.515019 
L 313.844853 100.492007 
L 314.184639 102.140176 
L 314.524424 98.946381 
L 314.864209 98.657652 
L 315.203994 96.935214 
L 315.54378 97.801911 
L 315.883565 96.597857 
L 316.22335 100.169795 
L 316.563135 97.233367 
L 316.902921 99.869037 
L 317.242706 99.965808 
L 317.582491 100.647366 
L 318.262062 94.143648 
L 318.601847 94.144695 
L 318.941632 91.589042 
L 319.621203 88.245124 
L 319.960988 88.608149 
L 320.300773 87.069827 
L 320.640558 84.353579 
L 320.980344 86.935922 
L 321.320129 87.169203 
L 321.659914 85.195196 
L 321.999699 84.295527 
L 322.339484 85.378777 
L 322.67927 84.91796 
L 323.019055 86.215159 
L 323.35884 85.172159 
L 323.698625 83.411564 
L 324.038411 83.441369 
L 324.378196 82.980552 
L 324.717981 82.770282 
L 325.057766 80.192128 
L 325.397552 79.959893 
L 325.737337 78.637078 
L 326.077122 78.577979 
L 326.416907 79.567089 
L 326.756693 79.983441 
L 327.096478 81.213138 
L 327.436263 86.515917 
L 327.776048 81.707438 
L 328.115834 80.099035 
L 328.455619 77.676338 
L 328.795404 77.943592 
L 329.135189 75.331808 
L 329.474975 76.176872 
L 329.81476 72.357737 
L 330.154545 71.258082 
L 330.49433 71.154564 
L 330.834115 72.144356 
L 331.173901 72.178682 
L 331.513686 74.174076 
L 331.853471 74.997502 
L 332.193256 76.350124 
L 332.533042 71.240648 
L 332.872827 72.697872 
L 333.212612 71.291891 
L 333.892183 69.394729 
L 334.571753 73.953835 
L 334.911538 72.225696 
L 335.251324 69.383098 
L 335.591109 70.470064 
L 336.270679 68.826952 
L 336.610465 67.800719 
L 336.95025 64.873094 
L 337.290035 65.041059 
L 337.62982 63.404291 
L 338.309391 64.192824 
L 339.328746 59.259772 
L 339.668532 61.205007 
L 340.008317 62.205863 
L 340.348102 63.96201 
L 340.687887 61.903226 
L 341.027673 60.978422 
L 341.707243 58.338115 
L 342.047028 58.118932 
L 342.386814 58.095696 
L 342.726599 56.802234 
L 343.066384 58.159086 
L 343.406169 56.092359 
L 343.745955 57.075291 
L 344.08574 66.719581 
L 344.425525 61.321187 
L 344.76531 60.77136 
L 345.105096 59.354092 
L 345.444881 61.578817 
L 345.784666 59.727631 
L 346.124451 55.959548 
L 346.464237 55.94788 
L 346.804022 57.852592 
L 347.143807 55.784174 
L 347.483592 52.962885 
L 347.823377 48.54047 
L 348.163163 47.707065 
L 348.502948 47.722975 
L 348.842733 51.338994 
L 349.522304 49.769119 
L 349.862089 54.029949 
L 350.201874 52.719163 
L 350.541659 56.744214 
L 350.881445 56.294928 
L 351.22123 50.804388 
L 351.561015 50.053121 
L 351.9008 49.824765 
L 352.240586 55.834492 
L 352.580371 56.013591 
L 353.259941 62.201355 
L 353.599727 60.885266 
L 353.939512 66.363621 
L 354.279297 62.960565 
L 354.619082 68.371606 
L 355.298653 62.850078 
L 355.638438 60.976176 
L 355.978223 62.849049 
L 356.997579 60.563677 
L 357.337364 59.881522 
L 357.677149 61.108709 
L 358.016935 61.416917 
L 358.35672 59.045237 
L 358.696505 58.309657 
L 359.03629 62.089817 
L 359.376076 62.649748 
L 359.715861 63.484477 
L 360.055646 67.533791 
L 361.075002 59.465938 
L 361.754572 56.714692 
L 362.094358 56.823072 
L 362.434143 58.066161 
L 362.773928 58.554157 
L 363.113713 61.160579 
L 363.453498 60.494325 
L 364.133069 56.058723 
L 364.472854 57.285885 
L 364.812639 57.258671 
L 365.152425 54.956368 
L 365.49221 54.391822 
L 365.831995 55.08682 
L 366.17178 56.994633 
L 366.511566 56.076681 
L 366.851351 56.305805 
L 367.191136 63.659123 
L 367.530921 59.61337 
L 367.870707 61.551482 
L 368.210492 61.436669 
L 368.890062 58.236308 
L 369.229848 58.265284 
L 369.569633 58.723566 
L 369.909418 60.246767 
L 370.249203 58.346059 
L 370.588989 61.324883 
L 370.928774 63.107702 
L 371.268559 67.391787 
L 371.608344 60.588699 
L 372.287915 63.399098 
L 372.6277 63.416204 
L 372.967485 68.887906 
L 373.30727 68.716263 
L 373.647056 68.361402 
L 373.986841 66.444233 
L 374.326626 67.421692 
L 374.666411 65.024863 
L 375.006197 68.636733 
L 375.685767 63.181669 
L 376.365338 66.566551 
L 376.705123 66.428627 
L 377.044908 69.699768 
L 377.384693 67.038667 
L 377.724479 68.991078 
L 378.064264 73.555758 
L 378.404049 70.73862 
L 378.743834 71.468961 
L 379.08362 71.754861 
L 379.423405 76.948184 
L 379.76319 78.983148 
L 380.102975 75.60129 
L 380.44276 76.442349 
L 380.782546 81.019357 
L 381.122331 81.931355 
L 381.462116 86.940103 
L 381.801901 83.207966 
L 382.141687 81.974443 
L 382.481472 80.181659 
L 383.161042 91.436447 
L 383.500828 92.704466 
L 383.840613 83.379721 
L 384.180398 85.741175 
L 384.520183 85.374583 
L 384.859969 83.925142 
L 385.199754 83.675445 
L 385.539539 75.420538 
L 385.879324 77.502177 
L 386.21911 77.88392 
L 386.558895 81.291112 
L 386.89868 77.384989 
L 387.238465 80.060185 
L 387.578251 79.191749 
L 387.918036 83.208546 
L 388.257821 83.991119 
L 388.597606 86.078469 
L 388.937391 82.660935 
L 389.277177 84.025356 
L 389.616962 81.40381 
L 389.956747 80.995405 
L 390.296532 82.619313 
L 390.636318 82.751112 
L 390.976103 79.371993 
L 391.315888 78.395607 
L 391.655673 79.75402 
L 391.995459 77.049682 
L 392.335244 72.151647 
L 392.675029 73.447165 
L 393.014814 70.587879 
L 393.3546 69.944535 
L 393.694385 70.493998 
L 394.373955 65.85588 
L 394.713741 70.14526 
L 395.053526 70.39734 
L 395.393311 72.684014 
L 395.733096 69.013474 
L 396.072882 68.423767 
L 396.412667 67.140287 
L 396.752452 65.028908 
L 397.092237 64.971567 
L 397.432022 62.970262 
L 398.451378 60.835757 
L 398.791163 63.430451 
L 399.130949 62.013772 
L 399.470734 71.290438 
L 399.810519 70.273378 
L 400.150304 71.155861 
L 400.49009 76.690307 
L 400.829875 70.802041 
L 401.16966 69.083326 
L 401.509445 63.402244 
L 401.849231 65.388283 
L 402.189016 69.608737 
L 402.528801 65.886413 
L 402.868586 67.171746 
L 403.208372 72.135929 
L 403.548157 72.470778 
L 403.887942 72.504541 
L 404.227727 72.665044 
L 404.227727 72.665044 
" clip-path="url(#pfe39793130)" style="fill: none; stroke: #dc2626; stroke-width: 1.5; stroke-linecap: square"/>
   </g>
   <g id="patch_3">
    <path d="M 47.81 246.04 
L 47.81 26.88 
" style="fill: none; stroke: #000000; stroke-width: 0.8; stroke-linejoin: miter; stroke-linecap: square"/>
   </g>
   <g id="patch_4">
    <path d="M 421.2 246.04 
L 421.2 26.88 
" style="fill: none; stroke: #000000; stroke-width: 0.8; stroke-linejoin: miter; stroke-linecap: square"/>
   </g>
   <g id="patch_5">
    <path d="M 47.81 246.04 
L 421.2 246.04 
" style="fill: none; stroke: #000000; stroke-width: 0.8; stroke-linejoin: miter; stroke-linecap: square"/>
   </g>
   <g id="patch_6">
    <path d="M 47.81 26.88 
L 421.2 26.88 
" style="fill: none; stroke: #000000; stroke-width: 0.8; stroke-linejoin: miter; stroke-linecap: square"/>
   </g>
   <g id="text_15">
    <!-- Finance: the searched 'edge' is luck - it underperforms buy-and-hold -->
    <g transform="translate(29.291875 20.88) scale(0.12 -0.12)">
     <defs>
      <path id="DejaVuSans-46" d="M 628 4666 
L 3309 4666 
L 3309 4134 
L 1259 4134 
L 1259 2759 
L 3109 2759 
L 3109 2228 
L 1259 2228 
L 1259 0 
L 628 0 
L 628 4666 
z
" transform="scale(0.015625)"/>
      <path id="DejaVuSans-63" d="M 3122 3366 
L 3122 2828 
Q 2878 2963 2633 3030 
Q 2388 3097 2138 3097 
Q 1578 3097 1268 2742 
Q 959 2388 959 1747 
Q 959 1106 1268 751 
Q 1578 397 2138 397 
Q 2388 397 2633 464 
Q 2878 531 3122 666 
L 3122 134 
Q 2881 22 2623 -34 
Q 2366 -91 2075 -91 
Q 1284 -91 818 406 
Q 353 903 353 1747 
Q 353 2603 823 3093 
Q 1294 3584 2113 3584 
Q 2378 3584 2631 3529 
Q 2884 3475 3122 3366 
z
" transform="scale(0.015625)"/>
      <path id="DejaVuSans-3a" d="M 750 794 
L 1409 794 
L 1409 0 
L 750 0 
L 750 794 
z
M 750 3309 
L 1409 3309 
L 1409 2516 
L 750 2516 
L 750 3309 
z
" transform="scale(0.015625)"/>
      <path id="DejaVuSans-68" d="M 3513 2113 
L 3513 0 
L 2938 0 
L 2938 2094 
Q 2938 2591 2744 2837 
Q 2550 3084 2163 3084 
Q 1697 3084 1428 2787 
Q 1159 2491 1159 1978 
L 1159 0 
L 581 0 
L 581 4863 
L 1159 4863 
L 1159 2956 
Q 1366 3272 1645 3428 
Q 1925 3584 2291 3584 
Q 2894 3584 3203 3211 
Q 3513 2838 3513 2113 
z
" transform="scale(0.015625)"/>
      <path id="DejaVuSans-27" d="M 1147 4666 
L 1147 2931 
L 616 2931 
L 616 4666 
L 1147 4666 
z
" transform="scale(0.015625)"/>
      <path id="DejaVuSans-67" d="M 2906 1791 
Q 2906 2416 2648 2759 
Q 2391 3103 1925 3103 
Q 1463 3103 1205 2759 
Q 947 2416 947 1791 
Q 947 1169 1205 825 
Q 1463 481 1925 481 
Q 2391 481 2648 825 
Q 2906 1169 2906 1791 
z
M 3481 434 
Q 3481 -459 3084 -895 
Q 2688 -1331 1869 -1331 
Q 1566 -1331 1297 -1286 
Q 1028 -1241 775 -1147 
L 775 -588 
Q 1028 -725 1275 -790 
Q 1522 -856 1778 -856 
Q 2344 -856 2625 -561 
Q 2906 -266 2906 331 
L 2906 616 
Q 2728 306 2450 153 
Q 2172 0 1784 0 
Q 1141 0 747 490 
Q 353 981 353 1791 
Q 353 2603 747 3093 
Q 1141 3584 1784 3584 
Q 2172 3584 2450 3431 
Q 2728 3278 2906 2969 
L 2906 3500 
L 3481 3500 
L 3481 434 
z
" transform="scale(0.015625)"/>
      <path id="DejaVuSans-6b" d="M 581 4863 
L 1159 4863 
L 1159 1991 
L 2875 3500 
L 3609 3500 
L 1753 1863 
L 3688 0 
L 2938 0 
L 1159 1709 
L 1159 0 
L 581 0 
L 581 4863 
z
" transform="scale(0.015625)"/>
      <path id="DejaVuSans-62" d="M 3116 1747 
Q 3116 2381 2855 2742 
Q 2594 3103 2138 3103 
Q 1681 3103 1420 2742 
Q 1159 2381 1159 1747 
Q 1159 1113 1420 752 
Q 1681 391 2138 391 
Q 2594 391 2855 752 
Q 3116 1113 3116 1747 
z
M 1159 2969 
Q 1341 3281 1617 3432 
Q 1894 3584 2278 3584 
Q 2916 3584 3314 3078 
Q 3713 2572 3713 1747 
Q 3713 922 3314 415 
Q 2916 -91 2278 -91 
Q 1894 -91 1617 61 
Q 1341 213 1159 525 
L 1159 0 
L 581 0 
L 581 4863 
L 1159 4863 
L 1159 2969 
z
" transform="scale(0.015625)"/>
     </defs>
     <use xlink:href="#DejaVuSans-46"/>
     <use xlink:href="#DejaVuSans-69" x="50.269531"/>
     <use xlink:href="#DejaVuSans-6e" x="78.052734"/>
     <use xlink:href="#DejaVuSans-61" x="141.431641"/>
     <use xlink:href="#DejaVuSans-6e" x="202.710938"/>
     <use xlink:href="#DejaVuSans-63" x="266.089844"/>
     <use xlink:href="#DejaVuSans-65" x="321.070312"/>
     <use xlink:href="#DejaVuSans-3a" x="382.59375"/>
     <use xlink:href="#DejaVuSans-20" x="416.285156"/>
     <use xlink:href="#DejaVuSans-74" x="448.072266"/>
     <use xlink:href="#DejaVuSans-68" x="487.28125"/>
     <use xlink:href="#DejaVuSans-65" x="550.660156"/>
     <use xlink:href="#DejaVuSans-20" x="612.183594"/>
     <use xlink:href="#DejaVuSans-73" x="643.970703"/>
     <use xlink:href="#DejaVuSans-65" x="696.070312"/>
     <use xlink:href="#DejaVuSans-61" x="757.59375"/>
     <use xlink:href="#DejaVuSans-72" x="818.873047"/>
     <use xlink:href="#DejaVuSans-63" x="857.736328"/>
     <use xlink:href="#DejaVuSans-68" x="912.716797"/>
     <use xlink:href="#DejaVuSans-65" x="976.095703"/>
     <use xlink:href="#DejaVuSans-64" x="1037.619141"/>
     <use xlink:href="#DejaVuSans-20" x="1101.095703"/>
     <use xlink:href="#DejaVuSans-27" x="1132.882812"/>
     <use xlink:href="#DejaVuSans-65" x="1160.373047"/>
     <use xlink:href="#DejaVuSans-64" x="1221.896484"/>
     <use xlink:href="#DejaVuSans-67" x="1285.373047"/>
     <use xlink:href="#DejaVuSans-65" x="1348.849609"/>
     <use xlink:href="#DejaVuSans-27" x="1410.373047"/>
     <use xlink:href="#DejaVuSans-20" x="1437.863281"/>
     <use xlink:href="#DejaVuSans-69" x="1469.650391"/>
     <use xlink:href="#DejaVuSans-73" x="1497.433594"/>
     <use xlink:href="#DejaVuSans-20" x="1549.533203"/>
     <use xlink:href="#DejaVuSans-6c" x="1581.320312"/>
     <use xlink:href="#DejaVuSans-75" x="1609.103516"/>
     <use xlink:href="#DejaVuSans-63" x="1672.482422"/>
     <use xlink:href="#DejaVuSans-6b" x="1727.462891"/>
     <use xlink:href="#DejaVuSans-20" x="1785.373047"/>
     <use xlink:href="#DejaVuSans-2d" x="1817.160156"/>
     <use xlink:href="#DejaVuSans-20" x="1853.244141"/>
     <use xlink:href="#DejaVuSans-69" x="1885.03125"/>
     <use xlink:href="#DejaVuSans-74" x="1912.814453"/>
     <use xlink:href="#DejaVuSans-20" x="1952.023438"/>
     <use xlink:href="#DejaVuSans-75" x="1983.810547"/>
     <use xlink:href="#DejaVuSans-6e" x="2047.189453"/>
     <use xlink:href="#DejaVuSans-64" x="2110.568359"/>
     <use xlink:href="#DejaVuSans-65" x="2174.044922"/>
     <use xlink:href="#DejaVuSans-72" x="2235.568359"/>
     <use xlink:href="#DejaVuSans-70" x="2276.681641"/>
     <use xlink:href="#DejaVuSans-65" x="2340.158203"/>
     <use xlink:href="#DejaVuSans-72" x="2401.681641"/>
     <use xlink:href="#DejaVuSans-66" x="2442.794922"/>
     <use xlink:href="#DejaVuSans-6f" x="2478"/>
     <use xlink:href="#DejaVuSans-72" x="2539.181641"/>
     <use xlink:href="#DejaVuSans-6d" x="2578.544922"/>
     <use xlink:href="#DejaVuSans-73" x="2675.957031"/>
     <use xlink:href="#DejaVuSans-20" x="2728.056641"/>
     <use xlink:href="#DejaVuSans-62" x="2759.84375"/>
     <use xlink:href="#DejaVuSans-75" x="2823.320312"/>
     <use xlink:href="#DejaVuSans-79" x="2886.699219"/>
     <use xlink:href="#DejaVuSans-2d" x="2944.128906"/>
     <use xlink:href="#DejaVuSans-61" x="2980.212891"/>
     <use xlink:href="#DejaVuSans-6e" x="3041.492188"/>
     <use xlink:href="#DejaVuSans-64" x="3104.871094"/>
     <use xlink:href="#DejaVuSans-2d" x="3168.347656"/>
     <use xlink:href="#DejaVuSans-68" x="3204.431641"/>
     <use xlink:href="#DejaVuSans-6f" x="3267.810547"/>
     <use xlink:href="#DejaVuSans-6c" x="3328.992188"/>
     <use xlink:href="#DejaVuSans-64" x="3356.775391"/>
    </g>
   </g>
   <g id="legend_1">
    <g id="patch_7">
     <path d="M 54.81 64.23625 
L 229.338125 64.23625 
Q 231.338125 64.23625 231.338125 62.23625 
L 231.338125 33.88 
Q 231.338125 31.88 229.338125 31.88 
L 54.81 31.88 
Q 52.81 31.88 52.81 33.88 
L 52.81 62.23625 
Q 52.81 64.23625 54.81 64.23625 
z
" style="fill: #ffffff; opacity: 0.8; stroke: #cccccc; stroke-linejoin: miter"/>
    </g>
    <g id="line2d_15">
     <path d="M 56.81 39.978438 
L 66.81 39.978438 
L 76.81 39.978438 
" style="fill: none; stroke: #16a34a; stroke-width: 1.5; stroke-linecap: square"/>
    </g>
    <g id="text_16">
     <!-- buy &amp; hold (+94%) -->
     <g transform="translate(84.81 43.478438) scale(0.1 -0.1)">
      <defs>
       <path id="DejaVuSans-26" d="M 1556 2509 
Q 1272 2256 1139 2004 
Q 1006 1753 1006 1478 
Q 1006 1022 1337 719 
Q 1669 416 2169 416 
Q 2466 416 2725 514 
Q 2984 613 3213 813 
L 1556 2509 
z
M 1997 2859 
L 3584 1234 
Q 3769 1513 3872 1830 
Q 3975 2147 3994 2503 
L 4575 2503 
Q 4538 2091 4375 1687 
Q 4213 1284 3922 891 
L 4794 0 
L 4006 0 
L 3559 459 
Q 3234 181 2878 45 
Q 2522 -91 2113 -91 
Q 1359 -91 881 339 
Q 403 769 403 1441 
Q 403 1841 612 2192 
Q 822 2544 1241 2853 
Q 1091 3050 1012 3245 
Q 934 3441 934 3628 
Q 934 4134 1281 4442 
Q 1628 4750 2203 4750 
Q 2463 4750 2720 4694 
Q 2978 4638 3244 4525 
L 3244 3956 
Q 2972 4103 2725 4179 
Q 2478 4256 2266 4256 
Q 1938 4256 1733 4082 
Q 1528 3909 1528 3634 
Q 1528 3475 1620 3314 
Q 1713 3153 1997 2859 
z
" transform="scale(0.015625)"/>
       <path id="DejaVuSans-2b" d="M 2944 4013 
L 2944 2272 
L 4684 2272 
L 4684 1741 
L 2944 1741 
L 2944 0 
L 2419 0 
L 2419 1741 
L 678 1741 
L 678 2272 
L 2419 2272 
L 2419 4013 
L 2944 4013 
z
" transform="scale(0.015625)"/>
       <path id="DejaVuSans-39" d="M 703 97 
L 703 672 
Q 941 559 1184 500 
Q 1428 441 1663 441 
Q 2288 441 2617 861 
Q 2947 1281 2994 2138 
Q 2813 1869 2534 1725 
Q 2256 1581 1919 1581 
Q 1219 1581 811 2004 
Q 403 2428 403 3163 
Q 403 3881 828 4315 
Q 1253 4750 1959 4750 
Q 2769 4750 3195 4129 
Q 3622 3509 3622 2328 
Q 3622 1225 3098 567 
Q 2575 -91 1691 -91 
Q 1453 -91 1209 -44 
Q 966 3 703 97 
z
M 1959 2075 
Q 2384 2075 2632 2365 
Q 2881 2656 2881 3163 
Q 2881 3666 2632 3958 
Q 2384 4250 1959 4250 
Q 1534 4250 1286 3958 
Q 1038 3666 1038 3163 
Q 1038 2656 1286 2365 
Q 1534 2075 1959 2075 
z
" transform="scale(0.015625)"/>
       <path id="DejaVuSans-25" d="M 4653 2053 
Q 4381 2053 4226 1822 
Q 4072 1591 4072 1178 
Q 4072 772 4226 539 
Q 4381 306 4653 306 
Q 4919 306 5073 539 
Q 5228 772 5228 1178 
Q 5228 1588 5073 1820 
Q 4919 2053 4653 2053 
z
M 4653 2450 
Q 5147 2450 5437 2106 
Q 5728 1763 5728 1178 
Q 5728 594 5436 251 
Q 5144 -91 4653 -91 
Q 4153 -91 3862 251 
Q 3572 594 3572 1178 
Q 3572 1766 3864 2108 
Q 4156 2450 4653 2450 
z
M 1428 4353 
Q 1159 4353 1004 4120 
Q 850 3888 850 3481 
Q 850 3069 1003 2837 
Q 1156 2606 1428 2606 
Q 1700 2606 1854 2837 
Q 2009 3069 2009 3481 
Q 2009 3884 1853 4118 
Q 1697 4353 1428 4353 
z
M 4250 4750 
L 4750 4750 
L 1831 -91 
L 1331 -91 
L 4250 4750 
z
M 1428 4750 
Q 1922 4750 2215 4408 
Q 2509 4066 2509 3481 
Q 2509 2891 2217 2550 
Q 1925 2209 1428 2209 
Q 931 2209 642 2551 
Q 353 2894 353 3481 
Q 353 4063 643 4406 
Q 934 4750 1428 4750 
z
" transform="scale(0.015625)"/>
      </defs>
      <use xlink:href="#DejaVuSans-62"/>
      <use xlink:href="#DejaVuSans-75" x="63.476562"/>
      <use xlink:href="#DejaVuSans-79" x="126.855469"/>
      <use xlink:href="#DejaVuSans-20" x="186.035156"/>
      <use xlink:href="#DejaVuSans-26" x="217.822266"/>
      <use xlink:href="#DejaVuSans-20" x="295.800781"/>
      <use xlink:href="#DejaVuSans-68" x="327.587891"/>
      <use xlink:href="#DejaVuSans-6f" x="390.966797"/>
      <use xlink:href="#DejaVuSans-6c" x="452.148438"/>
      <use xlink:href="#DejaVuSans-64" x="479.931641"/>
      <use xlink:href="#DejaVuSans-20" x="543.408203"/>
      <use xlink:href="#DejaVuSans-28" x="575.195312"/>
      <use xlink:href="#DejaVuSans-2b" x="614.208984"/>
      <use xlink:href="#DejaVuSans-39" x="697.998047"/>
      <use xlink:href="#DejaVuSans-34" x="761.621094"/>
      <use xlink:href="#DejaVuSans-25" x="825.244141"/>
      <use xlink:href="#DejaVuSans-29" x="920.263672"/>
     </g>
    </g>
    <g id="line2d_16">
     <path d="M 56.81 54.656563 
L 66.81 54.656563 
L 76.81 54.656563 
" style="fill: none; stroke: #dc2626; stroke-width: 1.5; stroke-linecap: square"/>
    </g>
    <g id="text_17">
     <!-- best-on-val strategy (+82%) -->
     <g transform="translate(84.81 58.156563) scale(0.1 -0.1)">
      <defs>
       <path id="DejaVuSans-76" d="M 191 3500 
L 800 3500 
L 1894 563 
L 2988 3500 
L 3597 3500 
L 2284 0 
L 1503 0 
L 191 3500 
z
" transform="scale(0.015625)"/>
      </defs>
      <use xlink:href="#DejaVuSans-62"/>
      <use xlink:href="#DejaVuSans-65" x="63.476562"/>
      <use xlink:href="#DejaVuSans-73" x="125"/>
      <use xlink:href="#DejaVuSans-74" x="177.099609"/>
      <use xlink:href="#DejaVuSans-2d" x="216.308594"/>
      <use xlink:href="#DejaVuSans-6f" x="254.267578"/>
      <use xlink:href="#DejaVuSans-6e" x="315.449219"/>
      <use xlink:href="#DejaVuSans-2d" x="378.828125"/>
      <use xlink:href="#DejaVuSans-76" x="412.287109"/>
      <use xlink:href="#DejaVuSans-61" x="471.466797"/>
      <use xlink:href="#DejaVuSans-6c" x="532.746094"/>
      <use xlink:href="#DejaVuSans-20" x="560.529297"/>
      <use xlink:href="#DejaVuSans-73" x="592.316406"/>
      <use xlink:href="#DejaVuSans-74" x="644.416016"/>
      <use xlink:href="#DejaVuSans-72" x="683.625"/>
      <use xlink:href="#DejaVuSans-61" x="724.738281"/>
      <use xlink:href="#DejaVuSans-74" x="786.017578"/>
      <use xlink:href="#DejaVuSans-65" x="825.226562"/>
      <use xlink:href="#DejaVuSans-67" x="886.75"/>
      <use xlink:href="#DejaVuSans-79" x="950.226562"/>
      <use xlink:href="#DejaVuSans-20" x="1009.40625"/>
      <use xlink:href="#DejaVuSans-28" x="1041.193359"/>
      <use xlink:href="#DejaVuSans-2b" x="1080.207031"/>
      <use xlink:href="#DejaVuSans-38" x="1163.996094"/>
      <use xlink:href="#DejaVuSans-32" x="1227.619141"/>
      <use xlink:href="#DejaVuSans-25" x="1291.242188"/>
      <use xlink:href="#DejaVuSans-29" x="1386.261719"/>
     </g>
    </g>
   </g>
  </g>
 </g>
 <defs>
  <clipPath id="pfe39793130">
   <rect x="47.81" y="26.88" width="373.39" height="219.16"/>
  </clipPath>
 </defs>
</svg>
