<?xml version="1.0" encoding="utf-8" standalone="no"?>
<!DOCTYPE svg PUBLIC "-//W3C//DTD SVG 1.1//EN"
  "http://www.w3.org/Graphics/SVG/1.1/DTD/svg11.dtd">
<svg xmlns:xlink="http://www.w3.org/1999/xlink" width="432pt" height="288pt" viewBox="0 0 432 288" xmlns="http://www.w3.org/2000/svg" version="1.1">
 <metadata>
  <rdf:RDF xmlns:dc="http://purl.org/dc/elements/1.1/" xmlns:cc="http://creativecommons.org/ns#" xmlns:rdf="http://www.w3.org/1999/02/22-rdf-syntax-ns#">
   <cc:Work>
    <dc:type rdf:resource="http://purl.org/dc/dcmitype/StillImage"/>
    <dc:date>2026-06-29T23:06:44.375140</dc:date>
    <dc:format>image/svg+xml</dc:format>
    <dc:creator>
     <cc:Agent>
      <dc:title>Matplotlib v3.9.4, https://matplotlib.org/</dc:title>
     </cc:Agent>
    </dc:creator>
   </cc:Work>
  </rdf:RDF>
 </metadata>
 <defs>
  <style type="text/css">*{stroke-linejoin: round; stroke-linecap: butt}</style>
 </defs>
 <g id="figure_1">
  <g id="patch_1">
   <path d="M 0 288 
L 432 288 
L 432 0 
L 0 0 
z
" style="fill: #ffffff"/>
  </g>
  <g id="axes_1">
   <g id="patch_2">
    <path d="M 47.81 246.04 
L 421.2 246.04 
L 421.2 26.88 
L 47.81 26.88 
z
" style="fill: #ffffff"/>
   </g>
   <g id="matplotlib.axis_1">
    <g id="xtick_1">
     <g id="line2d_1">
      <defs>
       <path id="m881b31d2cd" d="M 0 0 
L 0 3.5 
" style="stroke: #000000; stroke-width: 0.8"/>
      </defs>
      <g>
       <use xlink:href="#m881b31d2cd" x="64.782273" y="246.04" style="stroke: #000000; stroke-width: 0.8"/>
      </g>
     </g>
     <g id="text_1">
      <!-- 0 -->
      <g transform="translate(61.601023 260.638438) scale(0.1 -0.1)">
       <defs>
        <path id="DejaVuSans-30" d="M 2034 4250 
Q 1547 4250 1301 3770 
Q 1056 3291 1056 2328 
Q 1056 1369 1301 889 
Q 1547 409 2034 409 
Q 2525 409 2770 889 
Q 3016 1369 3016 2328 
Q 3016 3291 2770 3770 
Q 2525 4250 2034 4250 
z
M 2034 4750 
Q 2819 4750 3233 4129 
Q 3647 3509 3647 2328 
Q 3647 1150 3233 529 
Q 2819 -91 2034 -91 
Q 1250 -91 836 529 
Q 422 1150 422 2328 
Q 422 3509 836 4129 
Q 1250 4750 2034 4750 
z
" transform="scale(0.015625)"/>
       </defs>
       <use xlink:href="#DejaVuSans-30"/>
      </g>
     </g>
    </g>
    <g id="xtick_2">
     <g id="line2d_2">
      <g>
       <use xlink:href="#m881b31d2cd" x="132.739321" y="246.04" style="stroke: #000000; stroke-width: 0.8"/>
      </g>
     </g>
     <g id="text_2">
      <!-- 200 -->
      <g transform="translate(123.195571 260.638438) scale(0.1 -0.1)">
       <defs>
        <path id="DejaVuSans-32" d="M 1228 531 
L 3431 531 
L 3431 0 
L 469 0 
L 469 531 
Q 828 903 1448 1529 
Q 2069 2156 2228 2338 
Q 2531 2678 2651 2914 
Q 2772 3150 2772 3378 
Q 2772 3750 2511 3984 
Q 2250 4219 1831 4219 
Q 1534 4219 1204 4116 
Q 875 4013 500 3803 
L 500 4441 
Q 881 4594 1212 4672 
Q 1544 4750 1819 4750 
Q 2544 4750 2975 4387 
Q 3406 4025 3406 3419 
Q 3406 3131 3298 2873 
Q 3191 2616 2906 2266 
Q 2828 2175 2409 1742 
Q 1991 1309 1228 531 
z
" transform="scale(0.015625)"/>
       </defs>
       <use xlink:href="#DejaVuSans-32"/>
       <use xlink:href="#DejaVuSans-30" x="63.623047"/>
       <use xlink:href="#DejaVuSans-30" x="127.246094"/>
      </g>
     </g>
    </g>
    <g id="xtick_3">
     <g id="line2d_3">
      <g>
       <use xlink:href="#m881b31d2cd" x="200.696369" y="246.04" style="stroke: #000000; stroke-width: 0.8"/>
      </g>
     </g>
     <g id="text_3">
      <!-- 400 -->
      <g transform="translate(191.152619 260.638438) scale(0.1 -0.1)">
       <defs>
        <path id="DejaVuSans-34" d="M 2419 4116 
L 825 1625 
L 2419 1625 
L 2419 4116 
z
M 2253 4666 
L 3047 4666 
L 3047 1625 
L 3713 1625 
L 3713 1100 
L 3047 1100 
L 3047 0 
L 2419 0 
L 2419 1100 
L 313 1100 
L 313 1709 
L 2253 4666 
z
" transform="scale(0.015625)"/>
       </defs>
       <use xlink:href="#DejaVuSans-34"/>
       <use xlink:href="#DejaVuSans-30" x="63.623047"/>
       <use xlink:href="#DejaVuSans-30" x="127.246094"/>
      </g>
     </g>
    </g>
    <g id="xtick_4">
     <g id="line2d_4">
      <g>
       <use xlink:href="#m881b31d2cd" x="268.653417" y="246.04" style="stroke: #000000; stroke-width: 0.8"/>
      </g>
     </g>
     <g id="text_4">
      <!-- 600 -->
      <g transform="translate(259.109667 260.638438) scale(0.1 -0.1)">
       <defs>
        <path id="DejaVuSans-36" d="M 2113 2584 
Q 1688 2584 1439 2293 
Q 1191 2003 1191 1497 
Q 1191 994 1439 701 
Q 1688 409 2113 409 
Q 2538 409 2786 701 
Q 3034 994 3034 1497 
Q 3034 2003 2786 2293 
Q 2538 2584 2113 2584 
z
M 3366 4563 
L 3366 3988 
Q 3128 4100 2886 4159 
Q 2644 4219 2406 4219 
Q 1781 4219 1451 3797 
Q 1122 3375 1075 2522 
Q 1259 2794 1537 2939 
Q 1816 3084 2150 3084 
Q 2853 3084 3261 2657 
Q 3669 2231 3669 1497 
Q 3669 778 3244 343 
Q 2819 -91 2113 -91 
Q 1303 -91 875 529 
Q 447 1150 447 2328 
Q 447 3434 972 4092 
Q 1497 4750 2381 4750 
Q 2619 4750 2861 4703 
Q 3103 4656 3366 4563 
z
" transform="scale(0.015625)"/>
       </defs>
       <use xlink:href="#DejaVuSans-36"/>
       <use xlink:href="#DejaVuSans-30" x="63.623047"/>
       <use xlink:href="#DejaVuSans-30" x="127.246094"/>
      </g>
     </g>
    </g>
    <g id="xtick_5">
     <g id="line2d_5">
      <g>
       <use xlink:href="#m881b31d2cd" x="336.610465" y="246.04" style="stroke: #000000; stroke-width: 0.8"/>
      </g>
     </g>
     <g id="text_5">
      <!-- 800 -->
      <g transform="translate(327.066715 260.638438) scale(0.1 -0.1)">
       <defs>
        <path id="DejaVuSans-38" d="M 2034 2216 
Q 1584 2216 1326 1975 
Q 1069 1734 1069 1313 
Q 1069 891 1326 650 
Q 1584 409 2034 409 
Q 2484 409 2743 651 
Q 3003 894 3003 1313 
Q 3003 1734 2745 1975 
Q 2488 2216 2034 2216 
z
M 1403 2484 
Q 997 2584 770 2862 
Q 544 3141 544 3541 
Q 544 4100 942 4425 
Q 1341 4750 2034 4750 
Q 2731 4750 3128 4425 
Q 3525 4100 3525 3541 
Q 3525 3141 3298 2862 
Q 3072 2584 2669 2484 
Q 3125 2378 3379 2068 
Q 3634 1759 3634 1313 
Q 3634 634 3220 271 
Q 2806 -91 2034 -91 
Q 1263 -91 848 271 
Q 434 634 434 1313 
Q 434 1759 690 2068 
Q 947 2378 1403 2484 
z
M 1172 3481 
Q 1172 3119 1398 2916 
Q 1625 2713 2034 2713 
Q 2441 2713 2670 2916 
Q 2900 3119 2900 3481 
Q 2900 3844 2670 4047 
Q 2441 4250 2034 4250 
Q 1625 4250 1398 4047 
Q 1172 3844 1172 3481 
z
" transform="scale(0.015625)"/>
       </defs>
       <use xlink:href="#DejaVuSans-38"/>
       <use xlink:href="#DejaVuSans-30" x="63.623047"/>
       <use xlink:href="#DejaVuSans-30" x="127.246094"/>
      </g>
     </g>
    </g>
    <g id="xtick_6">
     <g id="line2d_6">
      <g>
       <use xlink:href="#m881b31d2cd" x="404.567513" y="246.04" style="stroke: #000000; stroke-width: 0.8"/>
      </g>
     </g>
     <g id="text_6">
      <!-- 1000 -->
      <g transform="translate(391.842513 260.638438) scale(0.1 -0.1)">
       <defs>
        <path id="DejaVuSans-31" d="M 794 531 
L 1825 531 
L 1825 4091 
L 703 3866 
L 703 4441 
L 1819 4666 
L 2450 4666 
L 2450 531 
L 3481 531 
L 3481 0 
L 794 0 
L 794 531 
z
" transform="scale(0.015625)"/>
       </defs>
       <use xlink:href="#DejaVuSans-31"/>
       <use xlink:href="#DejaVuSans-30" x="63.623047"/>
       <use xlink:href="#DejaVuSans-30" x="127.246094"/>
       <use xlink:href="#DejaVuSans-30" x="190.869141"/>
      </g>
     </g>
    </g>
    <g id="text_7">
     <!-- test day (out-of-sample, newest) -->
     <g transform="translate(152.858906 274.316562) scale(0.1 -0.1)">
      <defs>
       <path id="DejaVuSans-74" d="M 1172 4494 
L 1172 3500 
L 2356 3500 
L 2356 3053 
L 1172 3053 
L 1172 1153 
Q 1172 725 1289 603 
Q 1406 481 1766 481 
L 2356 481 
L 2356 0 
L 1766 0 
Q 1100 0 847 248 
Q 594 497 594 1153 
L 594 3053 
L 172 3053 
L 172 3500 
L 594 3500 
L 594 4494 
L 1172 4494 
z
" transform="scale(0.015625)"/>
       <path id="DejaVuSans-65" d="M 3597 1894 
L 3597 1613 
L 953 1613 
Q 991 1019 1311 708 
Q 1631 397 2203 397 
Q 2534 397 2845 478 
Q 3156 559 3463 722 
L 3463 178 
Q 3153 47 2828 -22 
Q 2503 -91 2169 -91 
Q 1331 -91 842 396 
Q 353 884 353 1716 
Q 353 2575 817 3079 
Q 1281 3584 2069 3584 
Q 2775 3584 3186 3129 
Q 3597 2675 3597 1894 
z
M 3022 2063 
Q 3016 2534 2758 2815 
Q 2500 3097 2075 3097 
Q 1594 3097 1305 2825 
Q 1016 2553 972 2059 
L 3022 2063 
z
" transform="scale(0.015625)"/>
       <path id="DejaVuSans-73" d="M 2834 3397 
L 2834 2853 
Q 2591 2978 2328 3040 
Q 2066 3103 1784 3103 
Q 1356 3103 1142 2972 
Q 928 2841 928 2578 
Q 928 2378 1081 2264 
Q 1234 2150 1697 2047 
L 1894 2003 
Q 2506 1872 2764 1633 
Q 3022 1394 3022 966 
Q 3022 478 2636 193 
Q 2250 -91 1575 -91 
Q 1294 -91 989 -36 
Q 684 19 347 128 
L 347 722 
Q 666 556 975 473 
Q 1284 391 1588 391 
Q 1994 391 2212 530 
Q 2431 669 2431 922 
Q 2431 1156 2273 1281 
Q 2116 1406 1581 1522 
L 1381 1569 
Q 847 1681 609 1914 
Q 372 2147 372 2553 
Q 372 3047 722 3315 
Q 1072 3584 1716 3584 
Q 2034 3584 2315 3537 
Q 2597 3491 2834 3397 
z
" transform="scale(0.015625)"/>
       <path id="DejaVuSans-20" transform="scale(0.015625)"/>
       <path id="DejaVuSans-64" d="M 2906 2969 
L 2906 4863 
L 3481 4863 
L 3481 0 
L 2906 0 
L 2906 525 
Q 2725 213 2448 61 
Q 2172 -91 1784 -91 
Q 1150 -91 751 415 
Q 353 922 353 1747 
Q 353 2572 751 3078 
Q 1150 3584 1784 3584 
Q 2172 3584 2448 3432 
Q 2725 3281 2906 2969 
z
M 947 1747 
Q 947 1113 1208 752 
Q 1469 391 1925 391 
Q 2381 391 2643 752 
Q 2906 1113 2906 1747 
Q 2906 2381 2643 2742 
Q 2381 3103 1925 3103 
Q 1469 3103 1208 2742 
Q 947 2381 947 1747 
z
" transform="scale(0.015625)"/>
       <path id="DejaVuSans-61" d="M 2194 1759 
Q 1497 1759 1228 1600 
Q 959 1441 959 1056 
Q 959 750 1161 570 
Q 1363 391 1709 391 
Q 2188 391 2477 730 
Q 2766 1069 2766 1631 
L 2766 1759 
L 2194 1759 
z
M 3341 1997 
L 3341 0 
L 2766 0 
L 2766 531 
Q 2569 213 2275 61 
Q 1981 -91 1556 -91 
Q 1019 -91 701 211 
Q 384 513 384 1019 
Q 384 1609 779 1909 
Q 1175 2209 1959 2209 
L 2766 2209 
L 2766 2266 
Q 2766 2663 2505 2880 
Q 2244 3097 1772 3097 
Q 1472 3097 1187 3025 
Q 903 2953 641 2809 
L 641 3341 
Q 956 3463 1253 3523 
Q 1550 3584 1831 3584 
Q 2591 3584 2966 3190 
Q 3341 2797 3341 1997 
z
" transform="scale(0.015625)"/>
       <path id="DejaVuSans-79" d="M 2059 -325 
Q 1816 -950 1584 -1140 
Q 1353 -1331 966 -1331 
L 506 -1331 
L 506 -850 
L 844 -850 
Q 1081 -850 1212 -737 
Q 1344 -625 1503 -206 
L 1606 56 
L 191 3500 
L 800 3500 
L 1894 763 
L 2988 3500 
L 3597 3500 
L 2059 -325 
z
" transform="scale(0.015625)"/>
       <path id="DejaVuSans-28" d="M 1984 4856 
Q 1566 4138 1362 3434 
Q 1159 2731 1159 2009 
Q 1159 1288 1364 580 
Q 1569 -128 1984 -844 
L 1484 -844 
Q 1016 -109 783 600 
Q 550 1309 550 2009 
Q 550 2706 781 3412 
Q 1013 4119 1484 4856 
L 1984 4856 
z
" transform="scale(0.015625)"/>
       <path id="DejaVuSans-6f" d="M 1959 3097 
Q 1497 3097 1228 2736 
Q 959 2375 959 1747 
Q 959 1119 1226 758 
Q 1494 397 1959 397 
Q 2419 397 2687 759 
Q 2956 1122 2956 1747 
Q 2956 2369 2687 2733 
Q 2419 3097 1959 3097 
z
M 1959 3584 
Q 2709 3584 3137 3096 
Q 3566 2609 3566 1747 
Q 3566 888 3137 398 
Q 2709 -91 1959 -91 
Q 1206 -91 779 398 
Q 353 888 353 1747 
Q 353 2609 779 3096 
Q 1206 3584 1959 3584 
z
" transform="scale(0.015625)"/>
       <path id="DejaVuSans-75" d="M 544 1381 
L 544 3500 
L 1119 3500 
L 1119 1403 
Q 1119 906 1312 657 
Q 1506 409 1894 409 
Q 2359 409 2629 706 
Q 2900 1003 2900 1516 
L 2900 3500 
L 3475 3500 
L 3475 0 
L 2900 0 
L 2900 538 
Q 2691 219 2414 64 
Q 2138 -91 1772 -91 
Q 1169 -91 856 284 
Q 544 659 544 1381 
z
M 1991 3584 
L 1991 3584 
z
" transform="scale(0.015625)"/>
       <path id="DejaVuSans-2d" d="M 313 2009 
L 1997 2009 
L 1997 1497 
L 313 1497 
L 313 2009 
z
" transform="scale(0.015625)"/>
       <path id="DejaVuSans-66" d="M 2375 4863 
L 2375 4384 
L 1825 4384 
Q 1516 4384 1395 4259 
Q 1275 4134 1275 3809 
L 1275 3500 
L 2222 3500 
L 2222 3053 
L 1275 3053 
L 1275 0 
L 697 0 
L 697 3053 
L 147 3053 
L 147 3500 
L 697 3500 
L 697 3744 
Q 697 4328 969 4595 
Q 1241 4863 1831 4863 
L 2375 4863 
z
" transform="scale(0.015625)"/>
       <path id="DejaVuSans-6d" d="M 3328 2828 
Q 3544 3216 3844 3400 
Q 4144 3584 4550 3584 
Q 5097 3584 5394 3201 
Q 5691 2819 5691 2113 
L 5691 0 
L 5113 0 
L 5113 2094 
Q 5113 2597 4934 2840 
Q 4756 3084 4391 3084 
Q 3944 3084 3684 2787 
Q 3425 2491 3425 1978 
L 3425 0 
L 2847 0 
L 2847 2094 
Q 2847 2600 2669 2842 
Q 2491 3084 2119 3084 
Q 1678 3084 1418 2786 
Q 1159 2488 1159 1978 
L 1159 0 
L 581 0 
L 581 3500 
L 1159 3500 
L 1159 2956 
Q 1356 3278 1631 3431 
Q 1906 3584 2284 3584 
Q 2666 3584 2933 3390 
Q 3200 3197 3328 2828 
z
" transform="scale(0.015625)"/>
       <path id="DejaVuSans-70" d="M 1159 525 
L 1159 -1331 
L 581 -1331 
L 581 3500 
L 1159 3500 
L 1159 2969 
Q 1341 3281 1617 3432 
Q 1894 3584 2278 3584 
Q 2916 3584 3314 3078 
Q 3713 2572 3713 1747 
Q 3713 922 3314 415 
Q 2916 -91 2278 -91 
Q 1894 -91 1617 61 
Q 1341 213 1159 525 
z
M 3116 1747 
Q 3116 2381 2855 2742 
Q 2594 3103 2138 3103 
Q 1681 3103 1420 2742 
Q 1159 2381 1159 1747 
Q 1159 1113 1420 752 
Q 1681 391 2138 391 
Q 2594 391 2855 752 
Q 3116 1113 3116 1747 
z
" transform="scale(0.015625)"/>
       <path id="DejaVuSans-6c" d="M 603 4863 
L 1178 4863 
L 1178 0 
L 603 0 
L 603 4863 
z
" transform="scale(0.015625)"/>
       <path id="DejaVuSans-2c" d="M 750 794 
L 1409 794 
L 1409 256 
L 897 -744 
L 494 -744 
L 750 256 
L 750 794 
z
" transform="scale(0.015625)"/>
       <path id="DejaVuSans-6e" d="M 3513 2113 
L 3513 0 
L 2938 0 
L 2938 2094 
Q 2938 2591 2744 2837 
Q 2550 3084 2163 3084 
Q 1697 3084 1428 2787 
Q 1159 2491 1159 1978 
L 1159 0 
L 581 0 
L 581 3500 
L 1159 3500 
L 1159 2956 
Q 1366 3272 1645 3428 
Q 1925 3584 2291 3584 
Q 2894 3584 3203 3211 
Q 3513 2838 3513 2113 
z
" transform="scale(0.015625)"/>
       <path id="DejaVuSans-77" d="M 269 3500 
L 844 3500 
L 1563 769 
L 2278 3500 
L 2956 3500 
L 3675 769 
L 4391 3500 
L 4966 3500 
L 4050 0 
L 3372 0 
L 2619 2869 
L 1863 0 
L 1184 0 
L 269 3500 
z
" transform="scale(0.015625)"/>
       <path id="DejaVuSans-29" d="M 513 4856 
L 1013 4856 
Q 1481 4119 1714 3412 
Q 1947 2706 1947 2009 
Q 1947 1309 1714 600 
Q 1481 -109 1013 -844 
L 513 -844 
Q 928 -128 1133 580 
Q 1338 1288 1338 2009 
Q 1338 2731 1133 3434 
Q 928 4138 513 4856 
z
" transform="scale(0.015625)"/>
      </defs>
      <use xlink:href="#DejaVuSans-74"/>
      <use xlink:href="#DejaVuSans-65" x="39.208984"/>
      <use xlink:href="#DejaVuSans-73" x="100.732422"/>
      <use xlink:href="#DejaVuSans-74" x="152.832031"/>
      <use xlink:href="#DejaVuSans-20" x="192.041016"/>
      <use xlink:href="#DejaVuSans-64" x="223.828125"/>
      <use xlink:href="#DejaVuSans-61" x="287.304688"/>
      <use xlink:href="#DejaVuSans-79" x="348.583984"/>
      <use xlink:href="#DejaVuSans-20" x="407.763672"/>
      <use xlink:href="#DejaVuSans-28" x="439.550781"/>
      <use xlink:href="#DejaVuSans-6f" x="478.564453"/>
      <use xlink:href="#DejaVuSans-75" x="539.746094"/>
      <use xlink:href="#DejaVuSans-74" x="603.125"/>
      <use xlink:href="#DejaVuSans-2d" x="642.333984"/>
      <use xlink:href="#DejaVuSans-6f" x="680.292969"/>
      <use xlink:href="#DejaVuSans-66" x="741.474609"/>
      <use xlink:href="#DejaVuSans-2d" x="771.179688"/>
      <use xlink:href="#DejaVuSans-73" x="807.263672"/>
      <use xlink:href="#DejaVuSans-61" x="859.363281"/>
      <use xlink:href="#DejaVuSans-6d" x="920.642578"/>
      <use xlink:href="#DejaVuSans-70" x="1018.054688"/>
      <use xlink:href="#DejaVuSans-6c" x="1081.53125"/>
      <use xlink:href="#DejaVuSans-65" x="1109.314453"/>
      <use xlink:href="#DejaVuSans-2c" x="1170.837891"/>
      <use xlink:href="#DejaVuSans-20" x="1202.625"/>
      <use xlink:href="#DejaVuSans-6e" x="1234.412109"/>
      <use xlink:href="#DejaVuSans-65" x="1297.791016"/>
      <use xlink:href="#DejaVuSans-77" x="1359.314453"/>
      <use xlink:href="#DejaVuSans-65" x="1441.101562"/>
      <use xlink:href="#DejaVuSans-73" x="1502.625"/>
      <use xlink:href="#DejaVuSans-74" x="1554.724609"/>
      <use xlink:href="#DejaVuSans-29" x="1593.933594"/>
     </g>
    </g>
   </g>
   <g id="matplotlib.axis_2">
    <g id="ytick_1">
     <g id="line2d_7">
      <defs>
       <path id="m8ef02c059f" d="M 0 0 
L -3.5 0 
" style="stroke: #000000; stroke-width: 0.8"/>
      </defs>
      <g>
       <use xlink:href="#m8ef02c059f" x="47.81" y="223.811019" style="stroke: #000000; stroke-width: 0.8"/>
      </g>
     </g>
     <g id="text_8">
      <!-- 1.0 -->
      <g transform="translate(24.906875 227.610238) scale(0.1 -0.1)">
       <defs>
        <path id="DejaVuSans-2e" d="M 684 794 
L 1344 794 
L 1344 0 
L 684 0 
L 684 794 
z
" transform="scale(0.015625)"/>
       </defs>
       <use xlink:href="#DejaVuSans-31"/>
       <use xlink:href="#DejaVuSans-2e" x="63.623047"/>
       <use xlink:href="#DejaVuSans-30" x="95.410156"/>
      </g>
     </g>
    </g>
    <g id="ytick_2">
     <g id="line2d_8">
      <g>
       <use xlink:href="#m8ef02c059f" x="47.81" y="186.013243" style="stroke: #000000; stroke-width: 0.8"/>
      </g>
     </g>
     <g id="text_9">
      <!-- 1.2 -->
      <g transform="translate(24.906875 189.812462) scale(0.1 -0.1)">
       <use xlink:href="#DejaVuSans-31"/>
       <use xlink:href="#DejaVuSans-2e" x="63.623047"/>
       <use xlink:href="#DejaVuSans-32" x="95.410156"/>
      </g>
     </g>
    </g>
    <g id="ytick_3">
     <g id="line2d_9">
      <g>
       <use xlink:href="#m8ef02c059f" x="47.81" y="148.215467" style="stroke: #000000; stroke-width: 0.8"/>
      </g>
     </g>
     <g id="text_10">
      <!-- 1.4 -->
      <g transform="translate(24.906875 152.014686) scale(0.1 -0.1)">
       <use xlink:href="#DejaVuSans-31"/>
       <use xlink:href="#DejaVuSans-2e" x="63.623047"/>
       <use xlink:href="#DejaVuSans-34" x="95.410156"/>
      </g>
     </g>
    </g>
    <g id="ytick_4">
     <g id="line2d_10">
      <g>
       <use xlink:href="#m8ef02c059f" x="47.81" y="110.417692" style="stroke: #000000; stroke-width: 0.8"/>
      </g>
     </g>
     <g id="text_11">
      <!-- 1.6 -->
      <g transform="translate(24.906875 114.21691) scale(0.1 -0.1)">
       <use xlink:href="#DejaVuSans-31"/>
       <use xlink:href="#DejaVuSans-2e" x="63.623047"/>
       <use xlink:href="#DejaVuSans-36" x="95.410156"/>
      </g>
     </g>
    </g>
    <g id="ytick_5">
     <g id="line2d_11">
      <g>
       <use xlink:href="#m8ef02c059f" x="47.81" y="72.619916" style="stroke: #000000; stroke-width: 0.8"/>
      </g>
     </g>
     <g id="text_12">
      <!-- 1.8 -->
      <g transform="translate(24.906875 76.419135) scale(0.1 -0.1)">
       <use xlink:href="#DejaVuSans-31"/>
       <use xlink:href="#DejaVuSans-2e" x="63.623047"/>
       <use xlink:href="#DejaVuSans-38" x="95.410156"/>
      </g>
     </g>
    </g>
    <g id="ytick_6">
     <g id="line2d_12">
      <g>
       <use xlink:href="#m8ef02c059f" x="47.81" y="34.82214" style="stroke: #000000; stroke-width: 0.8"/>
      </g>
     </g>
     <g id="text_13">
      <!-- 2.0 -->
      <g transform="translate(24.906875 38.621359) scale(0.1 -0.1)">
       <use xlink:href="#DejaVuSans-32"/>
       <use xlink:href="#DejaVuSans-2e" x="63.623047"/>
       <use xlink:href="#DejaVuSans-30" x="95.410156"/>
      </g>
     </g>
    </g>
    <g id="text_14">
     <!-- equity (start = 1) -->
     <g transform="translate(18.827188 179.8725) rotate(-90) scale(0.1 -0.1)">
      <defs>
       <path id="DejaVuSans-71" d="M 947 1747 
Q 947 1113 1208 752 
Q 1469 391 1925 391 
Q 2381 391 2643 752 
Q 2906 1113 2906 1747 
Q 2906 2381 2643 2742 
Q 2381 3103 1925 3103 
Q 1469 3103 1208 2742 
Q 947 2381 947 1747 
z
M 2906 525 
Q 2725 213 2448 61 
Q 2172 -91 1784 -91 
Q 1150 -91 751 415 
Q 353 922 353 1747 
Q 353 2572 751 3078 
Q 1150 3584 1784 3584 
Q 2172 3584 2448 3432 
Q 2725 3281 2906 2969 
L 2906 3500 
L 3481 3500 
L 3481 -1331 
L 2906 -1331 
L 2906 525 
z
" transform="scale(0.015625)"/>
       <path id="DejaVuSans-69" d="M 603 3500 
L 1178 3500 
L 1178 0 
L 603 0 
L 603 3500 
z
M 603 4863 
L 1178 4863 
L 1178 4134 
L 603 4134 
L 603 4863 
z
" transform="scale(0.015625)"/>
       <path id="DejaVuSans-72" d="M 2631 2963 
Q 2534 3019 2420 3045 
Q 2306 3072 2169 3072 
Q 1681 3072 1420 2755 
Q 1159 2438 1159 1844 
L 1159 0 
L 581 0 
L 581 3500 
L 1159 3500 
L 1159 2956 
Q 1341 3275 1631 3429 
Q 1922 3584 2338 3584 
Q 2397 3584 2469 3576 
Q 2541 3569 2628 3553 
L 2631 2963 
z
" transform="scale(0.015625)"/>
       <path id="DejaVuSans-3d" d="M 678 2906 
L 4684 2906 
L 4684 2381 
L 678 2381 
L 678 2906 
z
M 678 1631 
L 4684 1631 
L 4684 1100 
L 678 1100 
L 678 1631 
z
" transform="scale(0.015625)"/>
      </defs>
      <use xlink:href="#DejaVuSans-65"/>
      <use xlink:href="#DejaVuSans-71" x="61.523438"/>
      <use xlink:href="#DejaVuSans-75" x="125"/>
      <use xlink:href="#DejaVuSans-69" x="188.378906"/>
      <use xlink:href="#DejaVuSans-74" x="216.162109"/>
      <use xlink:href="#DejaVuSans-79" x="255.371094"/>
      <use xlink:href="#DejaVuSans-20" x="314.550781"/>
      <use xlink:href="#DejaVuSans-28" x="346.337891"/>
      <use xlink:href="#DejaVuSans-73" x="385.351562"/>
      <use xlink:href="#DejaVuSans-74" x="437.451172"/>
      <use xlink:href="#DejaVuSans-61" x="476.660156"/>
      <use xlink:href="#DejaVuSans-72" x="537.939453"/>
      <use xlink:href="#DejaVuSans-74" x="579.052734"/>
      <use xlink:href="#DejaVuSans-20" x="618.261719"/>
      <use xlink:href="#DejaVuSans-3d" x="650.048828"/>
      <use xlink:href="#DejaVuSans-20" x="733.837891"/>
      <use xlink:href="#DejaVuSans-31" x="765.625"/>
      <use xlink:href="#DejaVuSans-29" x="829.248047"/>
     </g>
    </g>
   </g>
   <g id="line2d_13">
    <path d="M 64.782273 223.511636 
L 65.122058 222.835278 
L 65.461843 219.992536 
L 65.801628 220.152618 
L 66.481199 224.133632 
L 67.160769 225.537719 
L 67.500555 221.942051 
L 67.84034 223.538304 
L 68.180125 218.30933 
L 68.51991 217.162651 
L 68.859696 215.233399 
L 69.199481 217.077182 
L 69.539266 216.819774 
L 69.879051 219.082012 
L 70.218837 214.015074 
L 70.898407 208.744596 
L 71.238192 209.320661 
L 71.577978 210.67632 
L 71.917763 207.515415 
L 72.257548 207.674991 
L 72.937118 208.261912 
L 73.276904 209.130931 
L 73.616689 204.794689 
L 73.956474 204.941431 
L 74.296259 201.34083 
L 74.636045 200.501434 
L 74.97583 200.103231 
L 75.315615 201.642685 
L 75.6554 201.163451 
L 75.995186 203.893562 
L 76.334971 208.364171 
L 76.674756 208.82167 
L 77.014541 208.226837 
L 77.354327 205.344074 
L 77.694112 212.332858 
L 78.033897 213.669242 
L 78.713468 217.404729 
L 79.053253 216.81928 
L 79.393038 218.923426 
L 79.732823 219.717361 
L 80.072609 216.176031 
L 80.412394 214.876205 
L 81.091964 209.726753 
L 81.431749 218.506948 
L 81.771535 217.848876 
L 82.11132 220.055281 
L 82.451105 221.439598 
L 82.79089 220.127421 
L 83.130676 222.299245 
L 83.470461 225.559949 
L 83.810246 227.137928 
L 84.150031 230.33737 
L 84.489817 232.224129 
L 84.829602 232.607015 
L 85.169387 229.062235 
L 85.848958 235.653792 
L 86.528528 225.510544 
L 86.868313 225.888484 
L 87.208099 227.803407 
L 87.547884 232.983978 
L 88.227454 235.494711 
L 88.56724 236.078182 
L 88.907025 231.489489 
L 89.24681 235.779776 
L 89.586595 231.092274 
L 89.92638 229.015798 
L 90.605951 231.693524 
L 90.945736 227.396808 
L 91.285521 225.193853 
L 91.625307 222.14213 
L 92.304877 224.701785 
L 92.644662 220.06961 
L 92.984448 221.506299 
L 93.324233 222.290838 
L 93.664018 227.053943 
L 94.003803 229.020248 
L 94.683374 224.726487 
L 95.023159 223.673673 
L 95.362944 227.603316 
L 95.70273 217.337039 
L 96.042515 215.530816 
L 96.3823 217.293569 
L 96.722085 215.590099 
L 97.061871 217.217484 
L 97.401656 217.821701 
L 97.741441 216.893881 
L 98.081226 217.654719 
L 98.421011 215.00465 
L 98.760797 213.834753 
L 99.100582 213.891068 
L 99.440367 216.963055 
L 99.780152 217.274801 
L 100.119938 211.223715 
L 100.799508 211.639215 
L 101.479079 218.083548 
L 101.818864 218.446182 
L 102.158649 216.984295 
L 102.498434 218.423457 
L 102.83822 215.647899 
L 103.178005 214.210727 
L 103.51779 215.412732 
L 103.857575 220.331951 
L 104.537146 224.18996 
L 104.876931 223.994308 
L 105.216716 221.187148 
L 105.556502 223.956277 
L 105.896287 222.848124 
L 106.236072 223.617357 
L 106.575857 225.891452 
L 106.915642 222.627781 
L 107.255428 223.11096 
L 107.595213 223.869819 
L 107.934998 222.445481 
L 108.274783 224.662259 
L 108.614569 220.365048 
L 108.954354 220.512768 
L 109.294139 219.170943 
L 109.633924 216.682923 
L 110.313495 215.226476 
L 110.65328 215.627647 
L 110.993065 218.69616 
L 111.332851 220.178792 
L 111.672636 216.534709 
L 112.012421 214.202814 
L 112.691992 214.380181 
L 113.031777 212.196006 
L 113.371562 211.695531 
L 113.711347 214.303602 
L 114.730703 206.300564 
L 115.070488 208.438784 
L 115.410273 209.693656 
L 115.750059 207.079169 
L 116.429629 211.155048 
L 116.769414 210.712385 
L 117.1092 208.398764 
L 117.448985 208.456081 
L 117.78877 207.889399 
L 118.128555 210.714857 
L 118.468341 211.274109 
L 118.808126 215.312934 
L 119.147911 215.623691 
L 119.487696 214.572854 
L 119.827482 216.661682 
L 120.167267 216.058948 
L 120.507052 216.656254 
L 120.846837 217.583085 
L 121.186623 216.102913 
L 121.526408 212.926702 
L 121.866193 212.789356 
L 122.205978 215.854901 
L 122.545763 215.576264 
L 123.225334 222.019608 
L 123.565119 222.30764 
L 123.904904 219.168965 
L 124.24469 220.52068 
L 124.584475 217.143871 
L 124.92426 219.299894 
L 125.264045 217.574183 
L 125.603831 215.039725 
L 125.943616 218.295495 
L 126.283401 217.714991 
L 126.623186 216.61475 
L 126.962972 216.291642 
L 127.302757 216.600915 
L 127.642542 213.807578 
L 127.982327 212.670283 
L 128.322113 209.781103 
L 128.661898 209.030168 
L 129.001683 210.211415 
L 129.341468 210.716341 
L 129.681254 209.993051 
L 130.021039 209.790994 
L 130.360824 209.799389 
L 130.700609 210.638772 
L 131.040394 207.957572 
L 131.38018 208.381467 
L 131.719965 207.705628 
L 132.05975 207.530227 
L 132.399535 207.547523 
L 132.739321 208.769298 
L 133.418891 208.411115 
L 133.758676 211.642677 
L 134.098462 212.415359 
L 134.438247 208.494606 
L 134.778032 206.808433 
L 135.117817 206.887967 
L 135.457603 209.273717 
L 136.137173 212.156974 
L 136.476958 208.450146 
L 136.816744 208.357754 
L 137.156529 209.293981 
L 137.496314 208.381467 
L 138.175885 209.051396 
L 138.51567 208.448675 
L 138.855455 209.751962 
L 139.535025 205.396952 
L 139.874811 205.696829 
L 140.214596 205.664721 
L 140.554381 207.989198 
L 140.894166 209.488125 
L 141.233952 207.707606 
L 141.573737 205.031339 
L 141.913522 205.027889 
L 142.253307 206.29709 
L 142.593093 204.262118 
L 142.932878 201.231141 
L 143.272663 201.655037 
L 143.612448 201.158023 
L 143.952234 201.964804 
L 144.292019 200.660021 
L 144.631804 200.416472 
L 145.311375 196.950745 
L 145.65116 196.773872 
L 145.990945 194.143078 
L 146.670516 195.977464 
L 147.010301 197.114759 
L 147.350086 196.314395 
L 147.689871 197.972416 
L 148.029656 198.936312 
L 148.369442 196.486322 
L 148.709227 196.562914 
L 149.049012 195.595568 
L 149.388797 192.930687 
L 149.728583 192.673291 
L 150.068368 193.10657 
L 150.408153 194.847093 
L 150.747938 195.47155 
L 151.087724 194.94887 
L 151.767294 191.854641 
L 152.107079 189.983201 
L 152.446865 190.211456 
L 152.78665 189.353293 
L 153.126435 187.762962 
L 153.46622 187.232345 
L 153.806006 188.756481 
L 154.145791 188.68387 
L 154.825361 187.146393 
L 155.165147 187.181469 
L 155.504932 188.630992 
L 155.844717 186.416687 
L 156.184502 186.084195 
L 156.524287 186.688412 
L 156.864073 189.817691 
L 157.203858 190.385844 
L 157.543643 191.564655 
L 157.883428 189.568207 
L 158.223214 190.509862 
L 158.562999 192.074502 
L 158.902784 192.019163 
L 159.242569 192.25533 
L 159.582355 190.987094 
L 159.92214 193.549234 
L 160.60171 196.884044 
L 160.941496 196.916152 
L 161.281281 195.431047 
L 161.621066 196.034782 
L 161.960851 193.640637 
L 162.300637 196.590077 
L 162.980207 193.774015 
L 163.319992 190.59632 
L 163.659778 189.744573 
L 163.999563 190.100778 
L 164.339348 189.700114 
L 164.679133 190.635834 
L 165.018918 192.184673 
L 165.358704 192.893127 
L 165.698489 192.579403 
L 166.038274 191.098761 
L 166.378059 192.361545 
L 166.717845 192.087842 
L 167.05763 190.227257 
L 167.397415 192.933654 
L 167.7372 192.775067 
L 168.076986 193.248343 
L 168.416771 195.310985 
L 168.756556 198.878006 
L 169.096341 199.369085 
L 169.436127 198.510439 
L 169.775912 201.667894 
L 170.115697 201.619479 
L 170.455482 200.374956 
L 170.795268 200.950539 
L 171.135053 200.933725 
L 171.474838 203.845629 
L 171.814623 202.151061 
L 172.154408 202.425753 
L 172.494194 199.940205 
L 173.173764 197.482809 
L 173.513549 196.558451 
L 174.19312 198.987695 
L 174.532905 196.72249 
L 174.87269 196.743718 
L 175.212476 199.638832 
L 175.552261 201.447045 
L 175.892046 204.106981 
L 176.231831 204.458747 
L 176.571617 202.944984 
L 177.251187 208.401731 
L 177.590972 209.382899 
L 177.930758 206.939857 
L 178.270543 205.606922 
L 178.610328 203.430152 
L 178.950113 199.481741 
L 179.289899 197.477888 
L 179.629684 197.10043 
L 179.969469 196.487818 
L 180.309254 196.270442 
L 180.649039 198.020832 
L 180.988825 194.666747 
L 181.32861 194.849071 
L 181.668395 190.691655 
L 182.687751 189.786572 
L 183.027536 188.138441 
L 183.367321 188.592467 
L 183.707107 187.681931 
L 184.046892 187.547564 
L 184.386677 187.987743 
L 184.726462 187.7674 
L 185.066248 187.980337 
L 185.406033 187.129604 
L 185.745818 185.804074 
L 186.085603 187.031783 
L 186.425389 187.160216 
L 186.765174 188.04161 
L 187.104959 186.250694 
L 188.124315 183.379776 
L 188.4641 180.248036 
L 188.803885 179.632456 
L 189.14367 179.650235 
L 189.823241 177.220509 
L 190.163026 180.679819 
L 190.502811 178.288642 
L 190.842597 177.899339 
L 191.182382 176.905313 
L 191.522167 176.567876 
L 191.861952 176.480429 
L 192.201738 177.14838 
L 192.541523 178.482304 
L 192.881308 180.360668 
L 193.221093 181.157558 
L 193.560879 180.734652 
L 193.900664 177.459137 
L 194.240449 177.806947 
L 194.580234 176.475484 
L 194.92002 176.63407 
L 195.259805 176.456716 
L 195.59959 177.338592 
L 195.939375 178.661154 
L 196.279161 176.599502 
L 196.618946 173.691047 
L 197.638301 172.271172 
L 197.978087 171.005903 
L 198.317872 171.163501 
L 198.657657 169.337509 
L 198.997442 169.483744 
L 199.337228 173.402532 
L 200.016798 167.821791 
L 200.356583 168.602374 
L 200.696369 168.038178 
L 201.036154 166.020984 
L 201.375939 165.880176 
L 201.715724 164.462279 
L 202.05551 164.69794 
L 202.395295 168.090549 
L 202.73508 165.746292 
L 203.074865 164.308131 
L 203.754436 166.986858 
L 204.094221 166.676102 
L 204.434006 161.477257 
L 204.773792 161.38981 
L 205.113577 162.341838 
L 205.453362 161.914469 
L 205.793147 162.330476 
L 206.132932 161.020747 
L 206.472718 159.004543 
L 206.812503 159.307387 
L 207.152288 161.891262 
L 207.492073 160.601315 
L 207.831859 158.002628 
L 208.171644 159.666077 
L 208.511429 159.950154 
L 208.851214 157.117784 
L 209.191 157.609852 
L 209.530785 158.342526 
L 209.87057 159.992152 
L 211.229711 153.844247 
L 211.569496 154.207352 
L 212.249067 155.719137 
L 212.588852 153.500369 
L 212.928637 153.210865 
L 213.268423 153.73357 
L 213.608208 155.608966 
L 213.947993 155.328339 
L 214.287778 158.50408 
L 214.627563 155.681601 
L 214.967349 155.777926 
L 215.307134 155.406402 
L 215.646919 157.840568 
L 215.986704 155.942447 
L 216.666275 162.722745 
L 217.00606 163.237031 
L 217.345845 164.679654 
L 217.685631 165.227544 
L 218.025416 167.395918 
L 218.365201 165.253235 
L 218.704986 162.291444 
L 219.044772 162.238083 
L 219.384557 163.384762 
L 219.724342 160.838447 
L 220.064127 160.037601 
L 220.403913 164.013681 
L 220.743698 164.868371 
L 221.083483 162.605144 
L 221.763054 156.847531 
L 222.102839 156.503676 
L 222.442624 156.505172 
L 222.782409 155.200389 
L 223.122194 154.775505 
L 223.46198 154.837767 
L 223.801765 153.589795 
L 224.14155 150.552908 
L 224.481335 151.098819 
L 225.160906 150.553897 
L 225.500691 149.89779 
L 225.840476 150.609236 
L 226.180262 152.54441 
L 226.520047 150.72235 
L 226.859832 150.657145 
L 227.539403 154.143136 
L 227.879188 152.066671 
L 228.558758 151.383402 
L 228.898544 148.286231 
L 229.238329 148.339085 
L 229.578114 148.634017 
L 230.257685 147.234405 
L 230.59747 144.976123 
L 230.937255 144.348168 
L 231.27704 144.453901 
L 231.616825 142.397193 
L 231.956611 141.71542 
L 232.296396 142.400161 
L 232.636181 142.82256 
L 232.975966 143.650087 
L 233.315752 142.591362 
L 233.655537 142.166478 
L 233.995322 141.920926 
L 234.335107 143.027102 
L 234.674893 142.305308 
L 235.694248 137.75514 
L 236.373819 137.271467 
L 236.713604 134.458855 
L 237.053389 136.897965 
L 237.393175 135.375807 
L 237.73296 134.59175 
L 238.072745 132.814174 
L 238.41253 136.713687 
L 239.092101 140.827609 
L 239.431886 137.892474 
L 239.771671 138.320808 
L 240.111456 144.67475 
L 240.451242 146.053616 
L 240.791027 143.095275 
L 241.130812 142.875921 
L 241.470597 144.21479 
L 241.810383 139.972919 
L 242.489953 148.655269 
L 242.829738 156.571367 
L 243.169524 153.918354 
L 243.509309 155.920712 
L 243.849094 150.001545 
L 244.188879 148.773836 
L 244.528665 148.762474 
L 244.86845 144.314082 
L 245.208235 143.287465 
L 245.54802 138.939354 
L 245.887806 138.394432 
L 246.227591 135.726584 
L 246.567376 136.276452 
L 246.907161 135.104082 
L 247.246946 137.584684 
L 247.586732 134.424286 
L 247.926517 135.302206 
L 248.266302 134.859543 
L 248.606087 136.520507 
L 248.945873 136.531387 
L 249.285658 133.742995 
L 249.625443 139.645348 
L 249.965228 140.08309 
L 250.305014 140.906154 
L 250.644799 145.599108 
L 250.984584 142.504904 
L 251.324369 141.295963 
L 252.00394 136.343659 
L 252.343725 134.848664 
L 252.68351 134.499382 
L 253.023296 134.425757 
L 253.363081 135.232056 
L 253.702866 130.519827 
L 254.042651 131.067741 
L 254.722222 129.566811 
L 255.062007 130.093978 
L 255.401792 128.952221 
L 255.741577 129.307943 
L 256.081363 128.106915 
L 256.421148 130.761423 
L 256.760933 130.722391 
L 257.100718 131.19668 
L 257.440504 128.670629 
L 257.780289 131.394298 
L 258.459859 126.646512 
L 258.799645 127.238885 
L 259.479215 123.296384 
L 259.819 125.499351 
L 260.158786 124.15503 
L 260.498571 124.204434 
L 260.838356 123.058262 
L 261.178141 123.586394 
L 261.517927 123.723729 
L 261.857712 126.380721 
L 262.197497 125.766131 
L 262.537282 125.852082 
L 262.877068 125.091256 
L 263.216853 124.626858 
L 263.556638 125.577896 
L 263.896423 130.924448 
L 264.236208 129.77087 
L 264.575994 130.566771 
L 264.915779 127.105 
L 265.255564 119.878083 
L 265.595349 117.701313 
L 265.935135 116.592677 
L 266.27492 116.305634 
L 266.614705 117.163291 
L 266.95449 117.094636 
L 267.294276 118.883574 
L 267.634061 122.764295 
L 268.313631 120.473905 
L 268.653417 120.467488 
L 268.993202 118.906298 
L 269.672772 116.996309 
L 270.012558 115.303719 
L 270.352343 116.434573 
L 270.692128 114.77262 
L 271.031913 114.042913 
L 271.371699 113.908039 
L 271.711484 112.09932 
L 272.051269 112.661562 
L 272.391054 111.912581 
L 272.730839 113.761297 
L 273.070625 114.647613 
L 273.41041 112.212965 
L 273.750195 113.840349 
L 274.08998 113.848262 
L 274.429766 112.712438 
L 274.769551 113.871975 
L 275.109336 122.68821 
L 275.449121 122.939189 
L 276.468477 114.394173 
L 276.808262 114.515224 
L 277.487833 120.969929 
L 277.827618 122.220362 
L 278.167403 122.866578 
L 278.507189 119.21457 
L 278.846974 117.588681 
L 279.186759 120.866681 
L 279.526544 120.41116 
L 279.86633 124.917351 
L 280.5459 124.133295 
L 280.885685 118.847003 
L 281.22547 119.468034 
L 281.905041 113.939641 
L 282.584611 110.507517 
L 282.924397 111.370602 
L 283.264182 115.765657 
L 283.603967 113.027634 
L 283.943752 114.430237 
L 284.283538 112.856214 
L 284.623323 114.369977 
L 284.963108 116.64061 
L 285.302893 114.500894 
L 285.982464 112.243601 
L 286.322249 115.088298 
L 286.662034 113.089896 
L 287.00182 112.98812 
L 287.341605 113.804767 
L 287.68139 110.687357 
L 288.021175 110.709092 
L 288.700746 109.250667 
L 289.040531 110.566306 
L 289.380316 115.723658 
L 290.059887 118.58319 
L 290.399672 118.54317 
L 290.739457 123.211421 
L 291.079242 118.620244 
L 291.758813 127.332749 
L 292.098598 124.147141 
L 292.438383 129.290647 
L 292.778169 127.725501 
L 293.117954 135.414838 
L 293.457739 137.514051 
L 293.797524 136.168765 
L 294.13731 140.011444 
L 294.477095 134.21036 
L 294.81688 132.422893 
L 295.156665 135.409893 
L 295.496451 132.414498 
L 295.836236 133.02711 
L 296.176021 132.796395 
L 296.515806 127.855453 
L 296.855592 127.406855 
L 297.195377 130.590967 
L 297.535162 131.524227 
L 297.874947 137.075827 
L 298.894303 132.627917 
L 299.573873 162.117032 
L 299.913659 162.701492 
L 300.253444 166.628169 
L 300.593229 143.203974 
L 300.933014 152.534037 
L 301.2728 147.825282 
L 301.612585 145.720135 
L 301.95237 146.18159 
L 302.292155 152.156072 
L 302.631941 151.81024 
L 302.971726 157.961112 
L 303.651296 147.207725 
L 303.991082 141.827063 
L 304.330867 139.829144 
L 304.670652 139.654249 
L 305.010437 138.069346 
L 305.350222 137.662747 
L 305.690008 135.92963 
L 306.029793 131.85228 
L 306.709363 135.792779 
L 307.049149 134.588807 
L 307.388934 132.975245 
L 307.728719 133.174335 
L 308.068504 124.070067 
L 308.40829 121.977295 
L 308.748075 121.679372 
L 309.08786 120.476366 
L 309.427645 118.42856 
L 309.767431 118.170657 
L 310.107216 119.313886 
L 310.447001 124.049321 
L 310.786786 124.177778 
L 311.126572 126.113941 
L 311.466357 120.248617 
L 311.806142 121.878486 
L 312.145927 120.711544 
L 312.485713 120.735257 
L 312.825498 119.537196 
L 313.165283 117.836187 
L 313.505068 117.814452 
L 313.844853 119.371203 
L 314.184639 116.354556 
L 314.524424 116.081841 
L 314.864209 114.454939 
L 315.203994 115.273565 
L 315.54378 114.136294 
L 315.883565 117.510112 
L 316.22335 114.736555 
L 316.563135 117.226035 
L 316.902921 117.317439 
L 317.242706 117.961194 
L 317.922276 111.81821 
L 318.262062 111.8192 
L 318.601847 109.405298 
L 319.281417 106.246853 
L 319.621203 106.589743 
L 319.960988 105.136746 
L 320.300773 102.571156 
L 320.640558 105.010267 
L 320.980344 105.23061 
L 321.320129 103.366093 
L 321.659914 102.516324 
L 321.999699 103.539491 
L 322.339484 103.104234 
L 322.67927 104.329482 
L 323.019055 103.344334 
L 323.35884 101.681391 
L 323.698625 101.709543 
L 324.038411 101.274286 
L 324.378196 101.075678 
L 324.717981 98.640524 
L 325.057766 98.421171 
L 325.397552 97.171727 
L 325.737337 97.115905 
L 326.077122 98.050154 
L 326.416907 98.443412 
L 326.756693 99.604903 
L 327.096478 104.613559 
L 327.436263 100.071786 
L 327.776048 101.590977 
L 328.115834 99.324783 
L 328.455619 99.574773 
L 328.795404 97.131706 
L 329.135189 97.922179 
L 329.474975 94.349754 
L 329.81476 93.321135 
L 330.154545 93.224304 
L 330.49433 94.150158 
L 330.834115 94.182266 
L 331.173901 96.048761 
L 331.513686 96.818995 
L 331.853471 98.08424 
L 332.193256 93.304828 
L 332.533042 94.667917 
L 332.872827 93.352761 
L 333.552397 91.578152 
L 334.231968 95.842748 
L 334.571753 94.226243 
L 334.911538 91.567272 
L 335.251324 92.584023 
L 335.930894 91.047053 
L 336.270679 90.087113 
L 336.610465 87.348607 
L 336.95025 87.505723 
L 337.290035 85.974687 
L 337.969606 86.712282 
L 338.988961 82.097898 
L 339.328746 83.917473 
L 339.668532 84.853675 
L 340.008317 86.496378 
L 340.348102 84.570588 
L 340.687887 83.705525 
L 341.367458 81.235778 
L 341.707243 81.030754 
L 342.047028 81.009018 
L 342.386814 79.799113 
L 342.726599 81.068314 
L 343.066384 79.135094 
L 343.406169 80.05453 
L 343.745955 89.075814 
L 344.08574 84.026148 
L 344.425525 84.540458 
L 344.76531 83.218885 
L 345.105096 85.293395 
L 345.444881 83.567202 
L 345.784666 80.053541 
L 346.124451 80.042662 
L 346.464237 81.818767 
L 346.804022 79.890009 
L 347.143807 77.259215 
L 347.483592 73.135403 
L 347.823377 72.358269 
L 348.163163 72.373105 
L 348.502948 75.744969 
L 349.182518 74.281092 
L 349.522304 78.25423 
L 349.862089 77.031949 
L 350.201874 80.785226 
L 350.541659 80.366276 
L 350.881445 75.24646 
L 351.22123 74.545918 
L 351.561015 74.332981 
L 351.9008 79.936929 
L 352.240586 80.103935 
L 352.920156 85.873899 
L 353.259941 84.646673 
L 353.599727 89.755127 
L 353.939512 86.581847 
L 354.279297 81.536162 
L 354.958868 76.225674 
L 355.298653 74.423396 
L 355.638438 76.224685 
L 356.657794 74.026663 
L 356.997579 73.370581 
L 357.337364 74.550863 
L 357.677149 74.847291 
L 358.016935 72.566261 
L 358.35672 71.858796 
L 358.696505 75.494472 
L 359.03629 76.033001 
L 359.376076 76.835826 
L 359.715861 80.73037 
L 360.735217 72.970881 
L 361.414787 70.324793 
L 361.754572 70.42903 
L 362.094358 71.624606 
L 362.434143 72.09395 
L 362.773928 74.600751 
L 363.113713 73.959962 
L 363.793284 69.693895 
L 364.133069 70.874153 
L 364.472854 70.84798 
L 364.812639 68.633674 
L 365.152425 68.090706 
L 365.49221 68.75914 
L 365.831995 70.594033 
L 366.17178 69.711167 
L 366.511566 69.931534 
L 366.851351 77.003797 
L 367.191136 73.112678 
L 367.530921 71.248644 
L 367.870707 71.137001 
L 368.550277 68.024994 
L 368.890062 68.05317 
L 369.229848 68.498801 
L 369.569633 69.979949 
L 369.909418 68.131716 
L 370.249203 71.028301 
L 370.588989 72.761901 
L 370.928774 76.927712 
L 371.268559 70.312441 
L 371.608344 68.705803 
L 371.948129 69.842591 
L 372.287915 69.859381 
L 372.6277 75.230177 
L 372.967485 75.061699 
L 373.30727 74.713382 
L 373.647056 72.831569 
L 373.986841 73.791002 
L 374.326626 71.438374 
L 374.666411 74.983636 
L 375.345982 69.629172 
L 376.025552 72.951631 
L 376.365338 72.816251 
L 376.705123 76.027067 
L 377.044908 73.41504 
L 377.384693 75.331446 
L 377.724479 79.811946 
L 378.064264 77.04676 
L 378.404049 77.763634 
L 378.743834 78.04426 
L 379.08362 83.141811 
L 379.423405 85.139247 
L 379.76319 81.819756 
L 380.102975 80.994207 
L 380.44276 85.509275 
L 380.782546 86.408931 
L 381.122331 91.349897 
L 381.462116 87.668266 
L 381.801901 88.885095 
L 382.141687 87.12976 
L 382.821257 98.149445 
L 383.161042 99.390977 
L 383.500828 90.261018 
L 383.840613 87.948892 
L 384.180398 87.584775 
L 384.520183 86.145118 
L 384.859969 85.897106 
L 385.199754 77.697922 
L 385.539539 75.630335 
L 385.879324 76.014209 
L 386.89868 65.833896 
L 387.238465 64.92833 
L 387.578251 60.739795 
L 387.918036 61.575717 
L 388.257821 63.805364 
L 388.597606 60.154852 
L 388.937391 61.612288 
L 389.277177 58.812027 
L 389.616962 58.37578 
L 389.956747 60.110393 
L 390.296532 60.251177 
L 390.636318 56.641698 
L 390.976103 55.59875 
L 391.315888 57.049769 
L 391.655673 54.161071 
L 391.995459 48.92913 
L 392.335244 50.312965 
L 392.675029 47.258757 
L 393.014814 46.571556 
L 393.3546 47.158477 
L 394.03417 42.204171 
L 394.373955 46.785964 
L 394.713741 47.055229 
L 395.053526 49.497789 
L 395.393311 45.577023 
L 395.733096 44.947115 
L 396.072882 43.576137 
L 396.412667 41.320822 
L 396.752452 41.259573 
L 397.092237 39.121835 
L 398.111593 36.841818 
L 398.451378 39.613397 
L 398.791163 38.10014 
L 399.130949 48.00921 
L 399.470734 46.922816 
L 399.810519 47.865459 
L 400.150304 53.777197 
L 400.49009 47.487519 
L 400.829875 45.651637 
L 401.16966 39.583267 
L 401.509445 41.704697 
L 401.849231 46.212866 
L 402.189016 42.236785 
L 402.528801 43.609741 
L 402.868586 48.91234 
L 403.208372 49.270017 
L 403.548157 49.306081 
L 403.887942 49.477526 
L 404.227727 46.342794 
L 404.227727 46.342794 
" clip-path="url(#pbb23a40531)" style="fill: none; stroke: #16a34a; stroke-width: 1.5; stroke-linecap: square"/>
   </g>
   <g id="line2d_14">
    <path d="M 64.782273 224.110401 
L 65.122058 223.436183 
L 65.461843 220.602433 
L 65.801628 220.762009 
L 66.481199 224.73043 
L 67.160769 226.130075 
L 67.500555 222.545782 
L 67.84034 224.136985 
L 68.180125 218.924551 
L 68.51991 220.067603 
L 69.199481 216.350593 
L 69.539266 216.092229 
L 69.879051 218.362866 
L 70.218837 213.277117 
L 70.558622 215.697995 
L 70.898407 212.897618 
L 71.238192 212.333277 
L 71.577978 213.668865 
L 71.917763 210.554759 
L 72.257548 210.397546 
L 72.937118 210.976677 
L 73.276904 211.834162 
L 73.616689 207.555473 
L 73.956474 207.410678 
L 74.296259 203.852851 
L 74.636045 203.023427 
L 74.97583 202.629953 
L 75.315615 201.108786 
L 75.6554 200.62834 
L 75.995186 203.365353 
L 76.334971 207.847266 
L 76.674756 208.305922 
L 77.014541 207.709585 
L 77.354327 204.819533 
L 77.694112 211.825988 
L 78.033897 213.165751 
L 78.713468 216.910683 
L 79.053253 216.323754 
L 79.393038 218.43322 
L 79.732823 219.229162 
L 80.072609 215.678878 
L 80.412394 216.981991 
L 81.091964 211.887326 
L 81.431749 203.200546 
L 81.771535 202.490631 
L 82.11132 200.110405 
L 82.451105 201.63797 
L 82.79089 200.190011 
L 83.130676 202.586572 
L 83.470461 206.184687 
L 83.810246 207.925953 
L 84.150031 211.456468 
L 84.489817 213.538465 
L 84.829602 213.960971 
L 85.509172 205.765988 
L 85.848958 208.885305 
L 86.188743 203.607201 
L 86.528528 210.005087 
L 86.868313 209.595858 
L 87.208099 211.6777 
L 87.547884 217.309849 
L 87.887669 218.774551 
L 88.227454 217.509666 
L 88.56724 218.152321 
L 88.907025 213.098172 
L 89.24681 217.823647 
L 89.586595 212.660666 
L 89.92638 214.947771 
L 90.605951 217.830468 
L 90.945736 213.204853 
L 91.285521 215.576437 
L 91.625307 212.368271 
L 92.304877 215.059144 
L 92.644662 210.189505 
L 92.984448 208.679165 
L 93.324233 209.516312 
L 93.664018 214.598805 
L 94.003803 216.69696 
L 94.343589 214.026288 
L 94.683374 215.937294 
L 95.023159 214.835278 
L 95.362944 218.948565 
L 95.70273 208.202516 
L 96.3823 211.904491 
L 96.722085 210.154066 
L 97.061871 211.826309 
L 97.401656 211.205436 
L 97.741441 210.246133 
L 98.081226 211.032788 
L 98.421011 208.292793 
L 98.760797 207.083197 
L 99.100582 207.141424 
L 99.440367 210.317653 
L 99.780152 210.639978 
L 100.119938 204.383559 
L 100.459723 204.20273 
L 100.799508 204.451932 
L 101.479079 211.126515 
L 101.818864 211.502105 
L 102.158649 209.987987 
L 102.498434 211.478569 
L 102.83822 208.603842 
L 103.178005 207.115322 
L 103.51779 208.360274 
L 103.857575 213.455252 
L 104.537146 217.451104 
L 104.876931 217.248461 
L 105.216716 214.341003 
L 105.556502 217.209072 
L 105.896287 216.061325 
L 106.236072 216.858042 
L 106.575857 219.213388 
L 106.915642 215.833109 
L 107.255428 216.333551 
L 107.595213 217.119525 
L 107.934998 215.644296 
L 108.274783 217.940277 
L 108.614569 213.489531 
L 108.954354 213.336534 
L 109.294139 211.944632 
L 109.633924 209.363758 
L 109.97371 208.668839 
L 110.313495 209.484722 
L 110.65328 209.897552 
L 110.993065 213.055239 
L 111.332851 214.580959 
L 111.672636 210.830974 
L 112.012421 213.230636 
L 112.691992 213.408871 
L 113.031777 211.214004 
L 113.371562 210.711079 
L 113.711347 213.331917 
L 114.730703 205.289703 
L 115.070488 207.43839 
L 115.410273 208.699405 
L 115.750059 206.072119 
L 116.429629 210.16795 
L 116.769414 209.72312 
L 117.1092 207.398173 
L 117.448985 207.455771 
L 117.78877 206.886316 
L 118.128555 209.725605 
L 118.468341 210.287594 
L 118.808126 214.34619 
L 119.147911 214.658468 
L 119.487696 213.602488 
L 119.827482 215.701541 
L 120.167267 215.095856 
L 120.507052 215.696086 
L 120.846837 216.627454 
L 121.186623 215.140036 
L 121.526408 211.948277 
L 121.866193 211.810258 
L 122.205978 214.89081 
L 122.545763 214.61081 
L 123.225334 221.085695 
L 123.565119 221.375137 
L 123.904904 218.221097 
L 124.24469 216.862765 
L 124.584475 213.421716 
L 124.92426 215.618756 
L 125.264045 213.860215 
L 125.943616 219.675558 
L 126.283401 219.099172 
L 126.623186 218.006738 
L 126.962972 217.685922 
L 127.302757 217.993001 
L 127.642542 215.219483 
L 127.982327 214.090258 
L 128.322113 211.221577 
L 128.661898 210.47597 
L 129.001683 209.303104 
L 129.341468 209.810293 
L 129.681254 209.083761 
L 130.021039 208.880798 
L 130.360824 208.88923 
L 130.700609 209.732377 
L 131.040394 207.039156 
L 131.38018 207.464951 
L 131.719965 206.786082 
L 132.05975 206.609895 
L 132.399535 206.627269 
L 132.739321 207.854521 
L 133.418891 207.494732 
L 133.758676 210.740783 
L 134.098462 211.51693 
L 134.438247 207.578597 
L 134.778032 209.27233 
L 135.117817 209.350913 
L 135.457603 211.708127 
L 136.137173 214.556897 
L 136.476958 210.894407 
L 136.816744 210.985694 
L 137.156529 211.909886 
L 137.496314 211.009103 
L 138.175885 211.67042 
L 138.51567 211.075446 
L 138.855455 212.361981 
L 139.535025 208.062951 
L 139.874811 208.358974 
L 140.214596 208.327278 
L 140.554381 210.621875 
L 140.894166 212.101535 
L 141.233952 210.343903 
L 141.573737 207.702037 
L 141.913522 207.698632 
L 142.253307 208.951519 
L 142.593093 206.942704 
L 142.932878 203.950688 
L 143.272663 204.369135 
L 143.612448 203.87851 
L 143.952234 204.674921 
L 144.292019 203.38691 
L 144.631804 203.146491 
L 145.311375 199.725313 
L 145.65116 199.550714 
L 145.990945 196.953736 
L 146.670516 198.764543 
L 147.010301 199.887219 
L 147.350086 199.097143 
L 147.689871 200.733852 
L 148.029656 201.685358 
L 148.369442 199.26686 
L 148.709227 199.342467 
L 149.049012 198.387556 
L 149.388797 195.75693 
L 149.728583 195.502843 
L 150.068368 195.930552 
L 150.408153 197.648702 
L 150.747938 198.265132 
L 151.087724 197.74917 
L 151.767294 194.694716 
L 152.107079 192.847332 
L 152.446865 193.072653 
L 152.78665 192.22552 
L 153.126435 190.655632 
L 153.46622 190.131835 
L 153.806006 191.63638 
L 154.145791 191.564702 
L 154.825361 190.046989 
L 155.165147 190.081613 
L 155.504932 191.512504 
L 155.844717 189.326662 
L 156.184502 188.998444 
L 156.524287 189.594894 
L 156.864073 192.683949 
L 157.203858 193.244799 
L 157.543643 194.408457 
L 157.883428 192.437672 
L 158.223214 193.367223 
L 158.562999 194.91175 
L 158.902784 194.857122 
L 159.242569 195.090254 
L 159.582355 193.83832 
L 159.92214 196.367525 
L 160.60171 199.659469 
L 160.941496 199.691165 
L 161.281281 198.22515 
L 161.621066 198.821124 
L 161.960851 196.457754 
L 162.300637 199.369281 
L 162.980207 196.589417 
L 163.319992 193.452569 
L 163.659778 194.293368 
L 163.999563 194.642309 
L 164.339348 194.249815 
L 164.679133 195.166453 
L 165.018918 196.683706 
L 165.358704 197.377712 
L 165.698489 197.070386 
L 166.038274 195.619939 
L 166.378059 196.856971 
L 166.717845 196.58885 
L 167.05763 194.766208 
L 167.397415 197.417413 
L 167.7372 197.26206 
L 168.076986 197.725685 
L 168.416771 199.746263 
L 168.756556 203.240541 
L 169.096341 203.721605 
L 169.436127 202.88047 
L 169.775912 205.973535 
L 170.115697 205.926107 
L 170.455482 204.706963 
L 170.795268 205.270808 
L 171.135053 205.254337 
L 171.474838 208.106858 
L 171.814623 206.446848 
L 172.154408 206.177757 
L 172.494194 203.736539 
L 173.173764 201.32297 
L 173.513549 200.415098 
L 174.19312 202.801017 
L 174.532905 200.576211 
L 174.87269 200.597061 
L 175.212476 203.440541 
L 175.552261 205.216505 
L 175.892046 207.829 
L 176.231831 208.174493 
L 176.571617 206.687728 
L 177.251187 212.047154 
L 177.590972 213.010823 
L 177.930758 210.611352 
L 178.270543 211.920514 
L 178.610328 209.810076 
L 178.950113 205.981981 
L 179.289899 204.039189 
L 179.629684 204.405145 
L 179.969469 204.997011 
L 180.309254 204.788186 
L 180.649039 206.46972 
L 180.988825 203.247576 
L 181.32861 203.422728 
L 181.668395 199.428855 
L 182.347966 198.833691 
L 182.687751 199.108006 
L 183.027536 197.528763 
L 183.367321 197.963812 
L 183.707107 197.091334 
L 184.046892 196.962584 
L 184.386677 197.384364 
L 184.726462 197.173231 
L 185.066248 197.377267 
L 185.406033 196.562093 
L 185.745818 195.291967 
L 186.085603 196.468361 
L 186.425389 196.591426 
L 186.765174 197.43598 
L 187.104959 195.719919 
L 188.124315 192.968999 
L 188.4641 189.968158 
L 188.803885 189.378309 
L 189.14367 189.395344 
L 189.823241 187.067175 
L 190.163026 190.381894 
L 190.502811 188.090662 
L 190.842597 187.717632 
L 191.182382 186.765154 
L 191.522167 186.44182 
L 191.861952 186.358028 
L 192.201738 186.998061 
L 192.541523 188.27623 
L 192.881308 190.076082 
L 193.221093 190.839664 
L 193.560879 190.434435 
L 193.900664 187.295829 
L 194.240449 187.629101 
L 194.580234 186.35329 
L 194.92002 186.505248 
L 195.259805 186.335306 
L 195.59959 187.180323 
L 195.939375 188.447605 
L 196.279161 186.472124 
L 196.618946 183.685237 
L 197.638301 182.324709 
L 197.978087 181.112325 
L 198.317872 181.263335 
L 198.657657 179.513666 
L 198.997442 179.653789 
L 199.337228 183.408781 
L 200.016798 178.061302 
L 200.356583 178.809258 
L 200.696369 178.268643 
L 201.036154 176.335764 
L 201.375939 176.200842 
L 201.715724 174.842209 
L 202.05551 175.06802 
L 202.395295 178.318826 
L 202.73508 176.072553 
L 203.074865 174.694504 
L 203.754436 177.261267 
L 204.094221 176.963499 
L 204.434006 171.981954 
L 204.773792 172.065746 
L 205.113577 172.977347 
L 205.453362 172.568125 
L 205.793147 172.966467 
L 206.132932 171.712355 
L 206.472718 169.781767 
L 206.812503 170.071752 
L 207.152288 172.545904 
L 207.492073 171.310734 
L 207.831859 168.822398 
L 208.171644 170.41521 
L 208.511429 170.687223 
L 208.851214 167.975129 
L 209.191 168.446301 
L 209.530785 169.147863 
L 209.87057 170.727439 
L 211.229711 164.8406 
L 211.569496 165.188286 
L 212.249067 166.635874 
L 212.588852 164.511324 
L 212.928637 164.234114 
L 213.268423 164.734622 
L 213.608208 166.530381 
L 213.947993 166.261671 
L 214.287778 169.302556 
L 214.627563 166.599932 
L 214.967349 166.507698 
L 215.307134 166.151684 
L 215.646919 168.484232 
L 215.986704 166.665351 
L 216.666275 173.162595 
L 217.00606 173.655411 
L 217.345845 175.03781 
L 217.685631 175.562827 
L 218.025416 177.640679 
L 218.365201 175.587446 
L 218.704986 172.749299 
L 219.044772 172.698166 
L 219.384557 173.796975 
L 219.724342 171.35696 
L 220.064127 170.589546 
L 220.403913 174.399639 
L 220.743698 175.218649 
L 221.083483 173.049903 
L 221.763054 167.53265 
L 222.102839 167.203151 
L 222.442624 167.201718 
L 222.782409 165.95139 
L 223.122194 165.544239 
L 223.46198 165.603903 
L 223.801765 164.408014 
L 224.14155 161.497873 
L 224.481335 162.021 
L 225.160906 161.498821 
L 225.500691 160.870097 
L 225.840476 161.55185 
L 226.180262 163.406259 
L 226.520047 161.660244 
L 226.859832 161.59776 
L 227.539403 164.938262 
L 227.879188 162.948459 
L 228.558758 162.293706 
L 228.898544 159.325797 
L 229.238329 159.376445 
L 229.578114 159.659068 
L 230.257685 158.317869 
L 230.59747 156.153837 
L 230.937255 155.552091 
L 231.27704 155.65341 
L 231.616825 153.68254 
L 231.956611 153.029221 
L 232.296396 153.685384 
L 232.636181 154.090154 
L 232.975966 154.883144 
L 233.315752 153.868605 
L 233.995322 153.22615 
L 234.335107 154.286159 
L 234.674893 153.594489 
L 235.694248 149.234224 
L 236.373819 148.770738 
L 236.713604 146.075511 
L 237.053389 148.412824 
L 237.393175 146.954194 
L 237.73296 146.20286 
L 238.072745 144.499471 
L 238.41253 148.236237 
L 239.092101 152.178463 
L 239.431886 149.365827 
L 239.771671 148.955369 
L 240.111456 155.063131 
L 240.451242 156.388573 
L 240.791027 153.544852 
L 241.130812 153.755706 
L 241.470597 155.04061 
L 241.810383 150.969715 
L 242.489953 159.302108 
L 242.829738 166.899132 
L 243.509309 162.431405 
L 243.849094 156.662261 
L 244.188879 155.465669 
L 244.528665 155.454595 
L 244.86845 151.118949 
L 245.208235 150.118353 
L 245.54802 145.880446 
L 245.887806 146.411557 
L 246.227591 149.00146 
L 246.567376 148.477938 
L 246.907161 147.357298 
L 247.246946 149.728445 
L 247.586732 146.707498 
L 247.926517 145.868315 
L 248.266302 145.442507 
L 248.606087 147.040228 
L 248.945873 147.050693 
L 249.285658 144.368473 
L 249.625443 150.046086 
L 249.965228 150.46716 
L 250.305014 151.258885 
L 250.644799 155.773148 
L 250.984584 152.79676 
L 251.324369 151.633851 
L 252.00394 146.870113 
L 252.343725 145.432042 
L 252.68351 145.768024 
L 253.023296 145.697381 
L 253.363081 146.471031 
L 253.702866 141.949605 
L 254.042651 141.423878 
L 254.722222 139.97812 
L 255.062007 140.485909 
L 255.401792 139.386121 
L 255.741577 139.728768 
L 256.081363 138.571888 
L 256.421148 141.128819 
L 256.760933 141.091223 
L 257.100718 141.548077 
L 257.440504 139.114881 
L 257.780289 141.738431 
L 258.459859 137.165168 
L 258.799645 137.735766 
L 259.479215 133.938186 
L 259.819 136.060175 
L 260.158786 134.76527 
L 260.498571 134.812858 
L 260.838356 133.708818 
L 261.178141 134.217537 
L 261.517927 134.349822 
L 261.857712 136.909147 
L 262.197497 136.317149 
L 262.537282 136.399941 
L 262.877068 135.667082 
L 263.216853 135.219754 
L 263.556638 136.135833 
L 263.896423 141.285852 
L 264.236208 140.174678 
L 264.575994 140.941323 
L 264.915779 137.606803 
L 265.255564 130.645538 
L 265.595349 128.548784 
L 265.935135 129.616668 
L 266.27492 129.891091 
L 266.614705 130.70945 
L 266.95449 130.64394 
L 267.294276 132.350909 
L 267.634061 136.053814 
L 268.313631 133.868371 
L 268.653417 133.862248 
L 268.993202 132.372592 
L 269.672772 130.550119 
L 270.012558 128.935084 
L 270.352343 130.014122 
L 270.692128 128.42832 
L 271.031913 127.732048 
L 271.371699 127.603355 
L 271.711484 125.877511 
L 272.051269 126.413992 
L 272.391054 125.699329 
L 272.730839 127.463336 
L 273.070625 128.309041 
L 273.41041 125.985949 
L 273.750195 127.538766 
L 274.08998 127.546316 
L 274.429766 126.462537 
L 274.769551 127.568943 
L 275.109336 135.981216 
L 275.449121 136.220695 
L 275.788907 133.214521 
L 276.128692 135.251936 
L 276.468477 132.187041 
L 276.808262 132.300874 
L 277.487833 138.370708 
L 277.827618 139.546583 
L 278.167403 140.154267 
L 278.507189 136.720016 
L 278.846974 135.191073 
L 279.186759 138.273617 
L 279.526544 137.845257 
L 279.86633 142.08276 
L 280.5459 141.345454 
L 280.885685 136.374365 
L 281.22547 135.790364 
L 281.905041 130.569595 
L 282.244826 128.837282 
L 282.584611 130.346114 
L 282.924397 131.152557 
L 283.264182 135.259177 
L 283.603967 132.700842 
L 284.283538 129.905736 
L 284.623323 131.333453 
L 284.963108 133.475018 
L 285.302893 131.456929 
L 285.982464 129.327946 
L 286.322249 132.010943 
L 286.662034 130.126135 
L 287.00182 130.030144 
L 287.341605 130.800371 
L 287.68139 127.860162 
L 288.021175 127.880662 
L 288.700746 126.505137 
L 289.040531 127.745992 
L 289.380316 132.610188 
L 290.059887 135.307177 
L 290.399672 135.269432 
L 290.739457 139.672329 
L 291.419028 130.459772 
L 291.758813 133.914155 
L 292.098598 130.801991 
L 292.438383 135.826914 
L 292.778169 134.297852 
L 293.117954 141.809913 
L 293.457739 143.860729 
L 293.797524 142.546458 
L 294.13731 146.300544 
L 294.477095 140.633204 
L 294.81688 138.886947 
L 295.156665 141.805082 
L 295.496451 138.878746 
L 295.836236 139.477234 
L 296.176021 139.251838 
L 296.515806 134.424808 
L 296.855592 133.986553 
L 297.195377 137.097256 
L 297.535162 138.008999 
L 297.874947 143.432608 
L 298.214732 141.940711 
L 298.554518 142.964893 
L 298.894303 141.149391 
L 299.573873 169.74159 
L 299.913659 170.308274 
L 300.253444 166.501028 
L 300.593229 143.064736 
L 300.933014 133.729855 
L 301.2728 128.680893 
L 301.612585 126.423649 
L 301.95237 126.918444 
L 302.292155 120.512307 
L 302.631941 120.124488 
L 302.971726 127.022114 
L 303.311511 119.844175 
L 303.651296 124.725151 
L 303.991082 118.889012 
L 304.330867 116.721967 
L 304.670652 116.911667 
L 305.010437 118.628532 
L 305.350222 118.193161 
L 305.690008 116.337403 
L 306.029793 111.971526 
L 306.709363 116.190867 
L 307.049149 114.901698 
L 307.388934 113.173956 
L 307.728719 113.387134 
L 308.068504 103.638619 
L 308.40829 105.879482 
L 308.748075 106.193896 
L 309.08786 107.460894 
L 309.427645 105.321911 
L 309.767431 105.591296 
L 310.107216 106.783336 
L 310.447001 111.720953 
L 310.786786 111.854895 
L 311.126572 113.873723 
L 311.466357 107.757976 
L 312.145927 104.82812 
L 312.485713 104.853122 
L 312.825498 103.589912 
L 313.165283 101.796404 
L 313.505068 101.773487 
L 313.844853 103.414893 
L 314.184639 100.234203 
L 314.524424 99.946659 
L 314.864209 98.231288 
L 315.203994 99.09443 
L 315.54378 97.895316 
L 315.883565 101.452597 
L 316.22335 98.528218 
L 316.563135 101.153073 
L 316.902921 101.249447 
L 317.242706 101.928209 
L 317.922276 95.451177 
L 318.262062 95.45222 
L 318.601847 92.907053 
L 319.281417 89.576856 
L 319.621203 89.938391 
L 319.960988 88.406382 
L 320.300773 85.701279 
L 320.640558 88.273026 
L 320.980344 88.50535 
L 321.320129 86.539443 
L 321.659914 85.643465 
L 321.999699 86.722271 
L 322.339484 86.263345 
L 322.67927 87.555221 
L 323.019055 86.516501 
L 323.35884 84.763129 
L 323.698625 84.792812 
L 324.038411 84.333886 
L 324.378196 84.124479 
L 324.717981 81.556903 
L 325.057766 81.325622 
L 325.397552 80.008234 
L 325.737337 79.949377 
L 326.077122 80.934429 
L 326.416907 81.349073 
L 326.756693 82.573724 
L 327.096478 87.854745 
L 327.436263 83.065995 
L 327.776048 81.464192 
L 328.115834 79.051436 
L 328.455619 79.317594 
L 328.795404 76.716527 
L 329.135189 77.558123 
L 329.474975 73.754659 
L 329.81476 72.659516 
L 330.154545 72.556423 
L 330.49433 73.542154 
L 330.834115 73.576339 
L 331.173901 75.563545 
L 331.513686 76.383592 
L 331.853471 77.730664 
L 332.193256 72.642154 
L 332.533042 74.093398 
L 332.872827 72.693187 
L 333.552397 70.803809 
L 334.231968 75.344208 
L 334.571753 73.62316 
L 334.911538 70.792225 
L 335.251324 71.874732 
L 335.930894 70.238362 
L 336.270679 69.21634 
L 336.610465 66.300727 
L 336.95025 66.468004 
L 337.290035 64.837951 
L 337.969606 65.623249 
L 338.988961 60.710439 
L 339.328746 62.647691 
L 339.668532 63.644441 
L 340.008317 65.393382 
L 340.348102 63.343045 
L 340.687887 62.422036 
L 341.367458 59.792563 
L 341.707243 59.57428 
L 342.047028 59.551139 
L 342.386814 58.262985 
L 342.726599 59.614269 
L 343.066384 57.556022 
L 343.406169 58.534921 
L 343.745955 68.139637 
L 344.08574 62.763395 
L 344.425525 62.215824 
L 344.76531 60.804372 
L 345.105096 63.019968 
L 345.444881 61.176377 
L 345.784666 57.423756 
L 346.124451 57.412136 
L 346.464237 59.309033 
L 346.804022 57.249102 
L 347.143807 54.43939 
L 347.483592 50.035121 
L 347.823377 49.205135 
L 348.163163 49.22098 
L 348.502948 52.822161 
L 349.182518 51.258728 
L 349.522304 55.502075 
L 349.862089 54.196667 
L 350.201874 58.205202 
L 350.541659 57.75776 
L 350.881445 52.289749 
L 351.22123 51.541564 
L 351.561015 51.314146 
L 351.9008 57.299213 
L 352.240586 57.477577 
L 352.920156 63.639951 
L 353.259941 62.329262 
L 353.599727 67.785138 
L 353.939512 64.396046 
L 354.279297 59.007208 
L 354.958868 53.335559 
L 355.298653 51.410709 
L 355.638438 53.334503 
L 356.657794 50.986995 
L 356.997579 50.286293 
L 357.337364 51.546846 
L 357.677149 51.863433 
L 358.016935 49.427272 
L 358.35672 48.671693 
L 358.696505 52.554628 
L 359.03629 53.129783 
L 359.376076 53.987207 
L 359.715861 58.146615 
L 360.735217 49.859411 
L 361.414787 47.033364 
L 361.754572 47.14469 
L 362.094358 48.421576 
L 362.434143 48.92284 
L 362.773928 51.600126 
L 363.113713 50.915758 
L 363.793284 46.359559 
L 364.133069 47.620086 
L 364.472854 47.592132 
L 364.812639 45.227234 
L 365.152425 44.647339 
L 365.49221 45.361232 
L 365.831995 47.320915 
L 366.17178 46.378006 
L 366.511566 46.61336 
L 366.851351 54.166601 
L 367.191136 50.010851 
L 367.530921 52.001657 
L 367.870707 51.883723 
L 368.550277 48.596349 
L 368.890062 48.626113 
L 369.229848 49.096855 
L 369.569633 50.661469 
L 369.909418 48.709084 
L 370.249203 51.768897 
L 370.588989 53.600188 
L 370.928774 58.000749 
L 371.268559 51.012698 
L 371.948129 53.899507 
L 372.287915 53.917077 
L 372.6277 59.537545 
L 372.967485 59.361236 
L 373.30727 58.996727 
L 373.647056 57.027434 
L 373.986841 58.031468 
L 374.326626 55.569473 
L 374.666411 59.279544 
L 375.345982 53.676166 
L 376.025552 57.153077 
L 376.365338 57.011403 
L 376.705123 60.371481 
L 377.044908 57.638029 
L 377.384693 59.643523 
L 377.724479 64.332308 
L 378.064264 61.438577 
L 378.404049 62.188775 
L 378.743834 62.482448 
L 379.08362 67.816968 
L 379.423405 69.90726 
L 379.76319 66.433455 
L 380.102975 67.297381 
L 380.44276 71.99883 
L 380.782546 72.935623 
L 381.122331 78.08055 
L 381.462116 74.246942 
L 381.801901 72.979883 
L 382.141687 71.138356 
L 382.821257 82.699141 
L 383.161042 84.001636 
L 383.500828 74.423368 
L 383.840613 76.849025 
L 384.180398 76.472466 
L 384.520183 74.983618 
L 384.859969 74.727131 
L 385.199754 66.247788 
L 385.539539 68.386023 
L 385.879324 68.778145 
L 386.21911 72.277973 
L 386.558895 68.265649 
L 386.89868 71.013579 
L 387.238465 70.121532 
L 387.578251 74.247539 
L 387.918036 75.051388 
L 388.257821 77.195489 
L 388.597606 73.685039 
L 388.937391 75.086556 
L 389.277177 72.393734 
L 389.616962 71.974226 
L 389.956747 73.642285 
L 390.296532 73.777668 
L 390.636318 70.306677 
L 390.976103 69.303744 
L 391.315888 70.69909 
L 391.655673 67.921226 
L 391.995459 62.890022 
L 392.335244 64.220762 
L 392.675029 61.283738 
L 393.014814 60.622903 
L 393.3546 61.187305 
L 394.03417 56.423084 
L 394.373955 60.829085 
L 394.713741 61.088018 
L 395.053526 63.436863 
L 395.393311 59.666528 
L 395.733096 59.060788 
L 396.072882 57.742411 
L 396.412667 55.573628 
L 396.752452 55.514729 
L 397.092237 53.459011 
L 398.111593 51.266473 
L 398.451378 53.931712 
L 398.791163 52.476515 
L 399.130949 62.005398 
L 399.470734 60.960686 
L 399.810519 61.867162 
L 400.150304 67.55208 
L 400.49009 61.503723 
L 400.829875 59.738279 
L 401.16966 53.902738 
L 401.509445 55.942774 
L 401.849231 60.277975 
L 402.189016 56.454447 
L 402.528801 57.774726 
L 402.868586 62.873876 
L 403.208372 63.21783 
L 403.548157 63.25251 
L 403.887942 63.417377 
L 404.227727 60.402918 
L 404.227727 60.402918 
" clip-path="url(#pbb23a40531)" style="fill: none; stroke: #dc2626; stroke-width: 1.5; stroke-linecap: square"/>
   </g>
   <g id="patch_3">
    <path d="M 47.81 246.04 
L 47.81 26.88 
" style="fill: none; stroke: #000000; stroke-width: 0.8; stroke-linejoin: miter; stroke-linecap: square"/>
   </g>
   <g id="patch_4">
    <path d="M 421.2 246.04 
L 421.2 26.88 
" style="fill: none; stroke: #000000; stroke-width: 0.8; stroke-linejoin: miter; stroke-linecap: square"/>
   </g>
   <g id="patch_5">
    <path d="M 47.81 246.04 
L 421.2 246.04 
" style="fill: none; stroke: #000000; stroke-width: 0.8; stroke-linejoin: miter; stroke-linecap: square"/>
   </g>
   <g id="patch_6">
    <path d="M 47.81 26.88 
L 421.2 26.88 
" style="fill: none; stroke: #000000; stroke-width: 0.8; stroke-linejoin: miter; stroke-linecap: square"/>
   </g>
   <g id="text_15">
    <!-- Finance: the searched 'edge' is luck - it underperforms buy-and-hold -->
    <g transform="translate(29.291875 20.88) scale(0.12 -0.12)">
     <defs>
      <path id="DejaVuSans-46" d="M 628 4666 
L 3309 4666 
L 3309 4134 
L 1259 4134 
L 1259 2759 
L 3109 2759 
L 3109 2228 
L 1259 2228 
L 1259 0 
L 628 0 
L 628 4666 
z
" transform="scale(0.015625)"/>
      <path id="DejaVuSans-63" d="M 3122 3366 
L 3122 2828 
Q 2878 2963 2633 3030 
Q 2388 3097 2138 3097 
Q 1578 3097 1268 2742 
Q 959 2388 959 1747 
Q 959 1106 1268 751 
Q 1578 397 2138 397 
Q 2388 397 2633 464 
Q 2878 531 3122 666 
L 3122 134 
Q 2881 22 2623 -34 
Q 2366 -91 2075 -91 
Q 1284 -91 818 406 
Q 353 903 353 1747 
Q 353 2603 823 3093 
Q 1294 3584 2113 3584 
Q 2378 3584 2631 3529 
Q 2884 3475 3122 3366 
z
" transform="scale(0.015625)"/>
      <path id="DejaVuSans-3a" d="M 750 794 
L 1409 794 
L 1409 0 
L 750 0 
L 750 794 
z
M 750 3309 
L 1409 3309 
L 1409 2516 
L 750 2516 
L 750 3309 
z
" transform="scale(0.015625)"/>
      <path id="DejaVuSans-68" d="M 3513 2113 
L 3513 0 
L 2938 0 
L 2938 2094 
Q 2938 2591 2744 2837 
Q 2550 3084 2163 3084 
Q 1697 3084 1428 2787 
Q 1159 2491 1159 1978 
L 1159 0 
L 581 0 
L 581 4863 
L 1159 4863 
L 1159 2956 
Q 1366 3272 1645 3428 
Q 1925 3584 2291 3584 
Q 2894 3584 3203 3211 
Q 3513 2838 3513 2113 
z
" transform="scale(0.015625)"/>
      <path id="DejaVuSans-27" d="M 1147 4666 
L 1147 2931 
L 616 2931 
L 616 4666 
L 1147 4666 
z
" transform="scale(0.015625)"/>
      <path id="DejaVuSans-67" d="M 2906 1791 
Q 2906 2416 2648 2759 
Q 2391 3103 1925 3103 
Q 1463 3103 1205 2759 
Q 947 2416 947 1791 
Q 947 1169 1205 825 
Q 1463 481 1925 481 
Q 2391 481 2648 825 
Q 2906 1169 2906 1791 
z
M 3481 434 
Q 3481 -459 3084 -895 
Q 2688 -1331 1869 -1331 
Q 1566 -1331 1297 -1286 
Q 1028 -1241 775 -1147 
L 775 -588 
Q 1028 -725 1275 -790 
Q 1522 -856 1778 -856 
Q 2344 -856 2625 -561 
Q 2906 -266 2906 331 
L 2906 616 
Q 2728 306 2450 153 
Q 2172 0 1784 0 
Q 1141 0 747 490 
Q 353 981 353 1791 
Q 353 2603 747 3093 
Q 1141 3584 1784 3584 
Q 2172 3584 2450 3431 
Q 2728 3278 2906 2969 
L 2906 3500 
L 3481 3500 
L 3481 434 
z
" transform="scale(0.015625)"/>
      <path id="DejaVuSans-6b" d="M 581 4863 
L 1159 4863 
L 1159 1991 
L 2875 3500 
L 3609 3500 
L 1753 1863 
L 3688 0 
L 2938 0 
L 1159 1709 
L 1159 0 
L 581 0 
L 581 4863 
z
" transform="scale(0.015625)"/>
      <path id="DejaVuSans-62" d="M 3116 1747 
Q 3116 2381 2855 2742 
Q 2594 3103 2138 3103 
Q 1681 3103 1420 2742 
Q 1159 2381 1159 1747 
Q 1159 1113 1420 752 
Q 1681 391 2138 391 
Q 2594 391 2855 752 
Q 3116 1113 3116 1747 
z
M 1159 2969 
Q 1341 3281 1617 3432 
Q 1894 3584 2278 3584 
Q 2916 3584 3314 3078 
Q 3713 2572 3713 1747 
Q 3713 922 3314 415 
Q 2916 -91 2278 -91 
Q 1894 -91 1617 61 
Q 1341 213 1159 525 
L 1159 0 
L 581 0 
L 581 4863 
L 1159 4863 
L 1159 2969 
z
" transform="scale(0.015625)"/>
     </defs>
     <use xlink:href="#DejaVuSans-46"/>
     <use xlink:href="#DejaVuSans-69" x="50.269531"/>
     <use xlink:href="#DejaVuSans-6e" x="78.052734"/>
     <use xlink:href="#DejaVuSans-61" x="141.431641"/>
     <use xlink:href="#DejaVuSans-6e" x="202.710938"/>
     <use xlink:href="#DejaVuSans-63" x="266.089844"/>
     <use xlink:href="#DejaVuSans-65" x="321.070312"/>
     <use xlink:href="#DejaVuSans-3a" x="382.59375"/>
     <use xlink:href="#DejaVuSans-20" x="416.285156"/>
     <use xlink:href="#DejaVuSans-74" x="448.072266"/>
     <use xlink:href="#DejaVuSans-68" x="487.28125"/>
     <use xlink:href="#DejaVuSans-65" x="550.660156"/>
     <use xlink:href="#DejaVuSans-20" x="612.183594"/>
     <use xlink:href="#DejaVuSans-73" x="643.970703"/>
     <use xlink:href="#DejaVuSans-65" x="696.070312"/>
     <use xlink:href="#DejaVuSans-61" x="757.59375"/>
     <use xlink:href="#DejaVuSans-72" x="818.873047"/>
     <use xlink:href="#DejaVuSans-63" x="857.736328"/>
     <use xlink:href="#DejaVuSans-68" x="912.716797"/>
     <use xlink:href="#DejaVuSans-65" x="976.095703"/>
     <use xlink:href="#DejaVuSans-64" x="1037.619141"/>
     <use xlink:href="#DejaVuSans-20" x="1101.095703"/>
     <use xlink:href="#DejaVuSans-27" x="1132.882812"/>
     <use xlink:href="#DejaVuSans-65" x="1160.373047"/>
     <use xlink:href="#DejaVuSans-64" x="1221.896484"/>
     <use xlink:href="#DejaVuSans-67" x="1285.373047"/>
     <use xlink:href="#DejaVuSans-65" x="1348.849609"/>
     <use xlink:href="#DejaVuSans-27" x="1410.373047"/>
     <use xlink:href="#DejaVuSans-20" x="1437.863281"/>
     <use xlink:href="#DejaVuSans-69" x="1469.650391"/>
     <use xlink:href="#DejaVuSans-73" x="1497.433594"/>
     <use xlink:href="#DejaVuSans-20" x="1549.533203"/>
     <use xlink:href="#DejaVuSans-6c" x="1581.320312"/>
     <use xlink:href="#DejaVuSans-75" x="1609.103516"/>
     <use xlink:href="#DejaVuSans-63" x="1672.482422"/>
     <use xlink:href="#DejaVuSans-6b" x="1727.462891"/>
     <use xlink:href="#DejaVuSans-20" x="1785.373047"/>
     <use xlink:href="#DejaVuSans-2d" x="1817.160156"/>
     <use xlink:href="#DejaVuSans-20" x="1853.244141"/>
     <use xlink:href="#DejaVuSans-69" x="1885.03125"/>
     <use xlink:href="#DejaVuSans-74" x="1912.814453"/>
     <use xlink:href="#DejaVuSans-20" x="1952.023438"/>
     <use xlink:href="#DejaVuSans-75" x="1983.810547"/>
     <use xlink:href="#DejaVuSans-6e" x="2047.189453"/>
     <use xlink:href="#DejaVuSans-64" x="2110.568359"/>
     <use xlink:href="#DejaVuSans-65" x="2174.044922"/>
     <use xlink:href="#DejaVuSans-72" x="2235.568359"/>
     <use xlink:href="#DejaVuSans-70" x="2276.681641"/>
     <use xlink:href="#DejaVuSans-65" x="2340.158203"/>
     <use xlink:href="#DejaVuSans-72" x="2401.681641"/>
     <use xlink:href="#DejaVuSans-66" x="2442.794922"/>
     <use xlink:href="#DejaVuSans-6f" x="2478"/>
     <use xlink:href="#DejaVuSans-72" x="2539.181641"/>
     <use xlink:href="#DejaVuSans-6d" x="2578.544922"/>
     <use xlink:href="#DejaVuSans-73" x="2675.957031"/>
     <use xlink:href="#DejaVuSans-20" x="2728.056641"/>
     <use xlink:href="#DejaVuSans-62" x="2759.84375"/>
     <use xlink:href="#DejaVuSans-75" x="2823.320312"/>
     <use xlink:href="#DejaVuSans-79" x="2886.699219"/>
     <use xlink:href="#DejaVuSans-2d" x="2944.128906"/>
     <use xlink:href="#DejaVuSans-61" x="2980.212891"/>
     <use xlink:href="#DejaVuSans-6e" x="3041.492188"/>
     <use xlink:href="#DejaVuSans-64" x="3104.871094"/>
     <use xlink:href="#DejaVuSans-2d" x="3168.347656"/>
     <use xlink:href="#DejaVuSans-68" x="3204.431641"/>
     <use xlink:href="#DejaVuSans-6f" x="3267.810547"/>
     <use xlink:href="#DejaVuSans-6c" x="3328.992188"/>
     <use xlink:href="#DejaVuSans-64" x="3356.775391"/>
    </g>
   </g>
   <g id="legend_1">
    <g id="patch_7">
     <path d="M 54.81 64.23625 
L 229.338125 64.23625 
Q 231.338125 64.23625 231.338125 62.23625 
L 231.338125 33.88 
Q 231.338125 31.88 229.338125 31.88 
L 54.81 31.88 
Q 52.81 31.88 52.81 33.88 
L 52.81 62.23625 
Q 52.81 64.23625 54.81 64.23625 
z
" style="fill: #ffffff; opacity: 0.8; stroke: #cccccc; stroke-linejoin: miter"/>
    </g>
    <g id="line2d_15">
     <path d="M 56.81 39.978438 
L 66.81 39.978438 
L 76.81 39.978438 
" style="fill: none; stroke: #16a34a; stroke-width: 1.5; stroke-linecap: square"/>
    </g>
    <g id="text_16">
     <!-- buy &amp; hold (+94%) -->
     <g transform="translate(84.81 43.478438) scale(0.1 -0.1)">
      <defs>
       <path id="DejaVuSans-26" d="M 1556 2509 
Q 1272 2256 1139 2004 
Q 1006 1753 1006 1478 
Q 1006 1022 1337 719 
Q 1669 416 2169 416 
Q 2466 416 2725 514 
Q 2984 613 3213 813 
L 1556 2509 
z
M 1997 2859 
L 3584 1234 
Q 3769 1513 3872 1830 
Q 3975 2147 3994 2503 
L 4575 2503 
Q 4538 2091 4375 1687 
Q 4213 1284 3922 891 
L 4794 0 
L 4006 0 
L 3559 459 
Q 3234 181 2878 45 
Q 2522 -91 2113 -91 
Q 1359 -91 881 339 
Q 403 769 403 1441 
Q 403 1841 612 2192 
Q 822 2544 1241 2853 
Q 1091 3050 1012 3245 
Q 934 3441 934 3628 
Q 934 4134 1281 4442 
Q 1628 4750 2203 4750 
Q 2463 4750 2720 4694 
Q 2978 4638 3244 4525 
L 3244 3956 
Q 2972 4103 2725 4179 
Q 2478 4256 2266 4256 
Q 1938 4256 1733 4082 
Q 1528 3909 1528 3634 
Q 1528 3475 1620 3314 
Q 1713 3153 1997 2859 
z
" transform="scale(0.015625)"/>
       <path id="DejaVuSans-2b" d="M 2944 4013 
L 2944 2272 
L 4684 2272 
L 4684 1741 
L 2944 1741 
L 2944 0 
L 2419 0 
L 2419 1741 
L 678 1741 
L 678 2272 
L 2419 2272 
L 2419 4013 
L 2944 4013 
z
" transform="scale(0.015625)"/>
       <path id="DejaVuSans-39" d="M 703 97 
L 703 672 
Q 941 559 1184 500 
Q 1428 441 1663 441 
Q 2288 441 2617 861 
Q 2947 1281 2994 2138 
Q 2813 1869 2534 1725 
Q 2256 1581 1919 1581 
Q 1219 1581 811 2004 
Q 403 2428 403 3163 
Q 403 3881 828 4315 
Q 1253 4750 1959 4750 
Q 2769 4750 3195 4129 
Q 3622 3509 3622 2328 
Q 3622 1225 3098 567 
Q 2575 -91 1691 -91 
Q 1453 -91 1209 -44 
Q 966 3 703 97 
z
M 1959 2075 
Q 2384 2075 2632 2365 
Q 2881 2656 2881 3163 
Q 2881 3666 2632 3958 
Q 2384 4250 1959 4250 
Q 1534 4250 1286 3958 
Q 1038 3666 1038 3163 
Q 1038 2656 1286 2365 
Q 1534 2075 1959 2075 
z
" transform="scale(0.015625)"/>
       <path id="DejaVuSans-25" d="M 4653 2053 
Q 4381 2053 4226 1822 
Q 4072 1591 4072 1178 
Q 4072 772 4226 539 
Q 4381 306 4653 306 
Q 4919 306 5073 539 
Q 5228 772 5228 1178 
Q 5228 1588 5073 1820 
Q 4919 2053 4653 2053 
z
M 4653 2450 
Q 5147 2450 5437 2106 
Q 5728 1763 5728 1178 
Q 5728 594 5436 251 
Q 5144 -91 4653 -91 
Q 4153 -91 3862 251 
Q 3572 594 3572 1178 
Q 3572 1766 3864 2108 
Q 4156 2450 4653 2450 
z
M 1428 4353 
Q 1159 4353 1004 4120 
Q 850 3888 850 3481 
Q 850 3069 1003 2837 
Q 1156 2606 1428 2606 
Q 1700 2606 1854 2837 
Q 2009 3069 2009 3481 
Q 2009 3884 1853 4118 
Q 1697 4353 1428 4353 
z
M 4250 4750 
L 4750 4750 
L 1831 -91 
L 1331 -91 
L 4250 4750 
z
M 1428 4750 
Q 1922 4750 2215 4408 
Q 2509 4066 2509 3481 
Q 2509 2891 2217 2550 
Q 1925 2209 1428 2209 
Q 931 2209 642 2551 
Q 353 2894 353 3481 
Q 353 4063 643 4406 
Q 934 4750 1428 4750 
z
" transform="scale(0.015625)"/>
      </defs>
      <use xlink:href="#DejaVuSans-62"/>
      <use xlink:href="#DejaVuSans-75" x="63.476562"/>
      <use xlink:href="#DejaVuSans-79" x="126.855469"/>
      <use xlink:href="#DejaVuSans-20" x="186.035156"/>
      <use xlink:href="#DejaVuSans-26" x="217.822266"/>
      <use xlink:href="#DejaVuSans-20" x="295.800781"/>
      <use xlink:href="#DejaVuSans-68" x="327.587891"/>
      <use xlink:href="#DejaVuSans-6f" x="390.966797"/>
      <use xlink:href="#DejaVuSans-6c" x="452.148438"/>
      <use xlink:href="#DejaVuSans-64" x="479.931641"/>
      <use xlink:href="#DejaVuSans-20" x="543.408203"/>
      <use xlink:href="#DejaVuSans-28" x="575.195312"/>
      <use xlink:href="#DejaVuSans-2b" x="614.208984"/>
      <use xlink:href="#DejaVuSans-39" x="697.998047"/>
      <use xlink:href="#DejaVuSans-34" x="761.621094"/>
      <use xlink:href="#DejaVuSans-25" x="825.244141"/>
      <use xlink:href="#DejaVuSans-29" x="920.263672"/>
     </g>
    </g>
    <g id="line2d_16">
     <path d="M 56.81 54.656563 
L 66.81 54.656563 
L 76.81 54.656563 
" style="fill: none; stroke: #dc2626; stroke-width: 1.5; stroke-linecap: square"/>
    </g>
    <g id="text_17">
     <!-- best-on-val strategy (+86%) -->
     <g transform="translate(84.81 58.156563) scale(0.1 -0.1)">
      <defs>
       <path id="DejaVuSans-76" d="M 191 3500 
L 800 3500 
L 1894 563 
L 2988 3500 
L 3597 3500 
L 2284 0 
L 1503 0 
L 191 3500 
z
" transform="scale(0.015625)"/>
      </defs>
      <use xlink:href="#DejaVuSans-62"/>
      <use xlink:href="#DejaVuSans-65" x="63.476562"/>
      <use xlink:href="#DejaVuSans-73" x="125"/>
      <use xlink:href="#DejaVuSans-74" x="177.099609"/>
      <use xlink:href="#DejaVuSans-2d" x="216.308594"/>
      <use xlink:href="#DejaVuSans-6f" x="254.267578"/>
      <use xlink:href="#DejaVuSans-6e" x="315.449219"/>
      <use xlink:href="#DejaVuSans-2d" x="378.828125"/>
      <use xlink:href="#DejaVuSans-76" x="412.287109"/>
      <use xlink:href="#DejaVuSans-61" x="471.466797"/>
      <use xlink:href="#DejaVuSans-6c" x="532.746094"/>
      <use xlink:href="#DejaVuSans-20" x="560.529297"/>
      <use xlink:href="#DejaVuSans-73" x="592.316406"/>
      <use xlink:href="#DejaVuSans-74" x="644.416016"/>
      <use xlink:href="#DejaVuSans-72" x="683.625"/>
      <use xlink:href="#DejaVuSans-61" x="724.738281"/>
      <use xlink:href="#DejaVuSans-74" x="786.017578"/>
      <use xlink:href="#DejaVuSans-65" x="825.226562"/>
      <use xlink:href="#DejaVuSans-67" x="886.75"/>
      <use xlink:href="#DejaVuSans-79" x="950.226562"/>
      <use xlink:href="#DejaVuSans-20" x="1009.40625"/>
      <use xlink:href="#DejaVuSans-28" x="1041.193359"/>
      <use xlink:href="#DejaVuSans-2b" x="1080.207031"/>
      <use xlink:href="#DejaVuSans-38" x="1163.996094"/>
      <use xlink:href="#DejaVuSans-36" x="1227.619141"/>
      <use xlink:href="#DejaVuSans-25" x="1291.242188"/>
      <use xlink:href="#DejaVuSans-29" x="1386.261719"/>
     </g>
    </g>
   </g>
  </g>
 </g>
 <defs>
  <clipPath id="pbb23a40531">
   <rect x="47.81" y="26.88" width="373.39" height="219.16"/>
  </clipPath>
 </defs>
</svg>
